<svg width="498" height="335" viewBox="0 0 498 335" fill="none" xmlns="http://www.w3.org/2000/svg">
<g clip-path="url(#clip0)">
<path d="M222.388 217.992L214.68 220.638L222.388 223.284V227.609L209.414 222.902V218.374L222.388 213.668V217.992ZM231.168 208.122H236.256L227.861 232.086H222.773L231.168 208.122ZM222.388 249.374V253.902L209.414 258.609V254.284L217.122 251.638L209.414 248.992V244.668L222.388 249.374Z" fill="#323247"/>
<path d="M308.11 159.928C307.141 181.157 286.248 197.426 270.599 198.414C249.921 199.714 235.145 181.085 233.089 159.928C231.306 141.604 237.819 141.877 242.673 134.233C248.555 124.977 259.512 119.862 270.599 119.862C291.317 119.862 309.418 131.36 308.11 159.928Z" fill="#242424"/>
<path d="M285.135 196.432H256.057V232.793H285.135V196.432Z" fill="#E3B5AA"/>
<path d="M303.256 175.222C308.442 167.357 315.04 167.013 317.799 176.314C320.551 185.616 311.461 193.266 304.057 190.439C296.646 187.611 303.256 175.222 303.256 175.222Z" fill="#E3B5AA"/>
<path d="M309.379 175.424C312.854 174.787 314.637 185.128 307.017 185.473L308.585 181.865L307.115 178.862L309.379 175.424Z" fill="#D78F97"/>
<path d="M305.872 186.89C310.316 182.164 307.108 178.862 307.108 178.862C307.108 178.862 311.338 170.204 313.03 176.841" stroke="#C87E84" stroke-width="0.5" stroke-miterlimit="10"/>
<path d="M237.695 175.222C232.509 167.357 225.912 167.013 223.153 176.314C220.401 185.616 229.49 193.266 236.895 190.439C244.3 187.611 237.695 175.222 237.695 175.222Z" fill="#E3B5AA"/>
<path d="M231.572 175.424C228.098 174.787 226.315 185.128 233.934 185.473L232.366 181.865L233.837 178.862L231.572 175.424Z" fill="#D78F97"/>
<path d="M235.073 186.89C230.629 182.164 233.837 178.862 233.837 178.862C233.837 178.862 229.608 170.204 227.916 176.841" stroke="#C87E84" stroke-width="0.5" stroke-miterlimit="10"/>
<path d="M285.135 197.231V210.758C274.686 224.902 256.057 220.306 256.057 220.306L256.382 197.231H285.135Z" fill="#C87E84"/>
<path d="M270.599 212.734C253.24 212.734 239.172 198.681 239.172 181.339V158.394C239.172 146.681 248.679 137.191 260.397 137.191H280.795C292.52 137.191 302.02 146.687 302.02 158.394V181.339C302.027 198.674 287.953 212.734 270.599 212.734Z" fill="#E3B5AA"/>
<path d="M275.434 185.44C275.434 188.105 273.267 190.27 270.6 190.27C267.932 190.27 265.765 188.105 265.765 185.44" stroke="#B83D5D" stroke-miterlimit="10"/>
<path d="M242.491 138.595C242.491 138.595 236.986 129.482 243.883 121.441C243.877 121.441 248.835 130.606 242.491 138.595Z" fill="#242424"/>
<path d="M245.289 136.43C245.289 136.43 237.624 143.827 228.241 138.907C228.241 138.907 236.075 132.036 245.289 136.43Z" fill="#242424"/>
<path d="M266.561 177.141C268.391 170.413 264.415 163.478 257.681 161.65C250.946 159.822 244.004 163.794 242.174 170.521C240.344 177.249 244.32 184.184 251.054 186.012C257.789 187.84 264.731 183.868 266.561 177.141Z" stroke="white" stroke-width="4" stroke-miterlimit="10"/>
<path d="M298.993 177.191C300.856 170.473 296.914 163.518 290.188 161.657C283.463 159.797 276.501 163.735 274.639 170.453C272.776 177.172 276.718 184.126 283.443 185.987C290.169 187.848 297.131 183.91 298.993 177.191Z" stroke="white" stroke-width="4" stroke-miterlimit="10"/>
<path d="M243.063 146.148C243.063 146.148 263.026 135.631 276.293 143.255C289.56 150.873 291.05 166.616 304.154 162.541C304.154 162.541 314.103 158.166 303.159 142.924C292.215 127.681 284.725 124.698 270.476 128.013C256.226 131.328 246.961 133.908 243.063 146.148Z" fill="#282828"/>
<path d="M242.302 145.998C242.302 145.998 248.893 137.269 258.12 134.961C267.346 132.654 277.549 143.99 277.549 143.99C277.549 143.99 253.91 140.623 242.302 145.998Z" fill="#1F1F1F"/>
<path d="M239.218 156.977C239.218 156.977 241.443 173.181 239.218 183.068C239.218 183.068 235.971 157.945 239.218 156.977Z" fill="#1E1E1E"/>
<path d="M301.792 156.977C301.792 156.977 299.567 173.181 301.792 183.068C301.792 183.068 305.046 157.945 301.792 156.977Z" fill="#1E1E1E"/>
<path d="M261.275 155.716C257.846 154.078 251.75 152.277 246.095 156.294C245.145 156.97 245.51 158.459 246.655 158.654C248.47 158.966 251.067 159.291 254.014 159.271C256.304 159.258 259.011 158.693 261.035 158.173C262.225 157.874 262.388 156.242 261.275 155.716Z" fill="#1E1E1E"/>
<path d="M294.394 155.716C290.965 154.078 284.869 152.277 279.214 156.294C278.264 156.97 278.629 158.459 279.774 158.654C281.589 158.966 284.185 159.291 287.133 159.271C289.423 159.258 292.13 158.693 294.154 158.173C295.338 157.874 295.5 156.242 294.394 155.716Z" fill="#1E1E1E"/>
<path d="M371.466 323.117L158.724 323.338C158.724 323.338 162.693 315.044 168.406 304.052C168.829 303.24 169.265 302.408 169.707 301.563C177.509 286.697 188.004 267.919 196.196 257.733C205.63 246.007 227.922 237.648 243.063 233.079C251.886 230.42 258.276 229.049 258.276 229.049H282.715C282.715 229.049 288.454 230.277 296.561 232.676C311.689 237.141 334.306 246.306 344.795 257.733C347.098 260.242 349.265 263.278 351.295 266.645C364.204 288.075 371.466 323.117 371.466 323.117Z" fill="#1B1F42"/>
<path opacity="0.5" d="M371.466 323.117L158.724 323.338C158.724 323.338 162.693 315.044 168.406 304.052C274.569 335.226 330.513 284.136 343.279 270.304C345.342 268.068 348.204 266.729 351.243 266.645H351.295C364.204 288.075 371.466 323.117 371.466 323.117Z" fill="#141732"/>
<path d="M267.262 175.97H273.931" stroke="white" stroke-width="4" stroke-miterlimit="10"/>
<path d="M296.561 232.669C270.229 261.614 243.063 233.079 243.063 233.079C251.886 230.414 258.276 229.042 258.276 229.042H282.715C282.715 229.042 288.454 230.277 296.561 232.669Z" fill="#E3B5AA"/>
<path d="M212.449 290.363V323.377" stroke="#DC831E" stroke-width="3" stroke-miterlimit="10"/>
<path d="M212.449 311.404L203.581 300.107" stroke="#DC831E" stroke-width="3" stroke-miterlimit="10"/>
<path d="M328.138 290.363V323.377" stroke="black" stroke-width="3" stroke-miterlimit="10"/>
<path d="M328.138 311.404L336.018 301.368" stroke="black" stroke-width="3" stroke-miterlimit="10"/>
<path d="M241.801 245.643C241.801 245.643 274.451 267.919 296.561 244.564" stroke="black" stroke-width="3" stroke-miterlimit="10"/>
<path d="M300.464 277.222L300.01 279.915L302.455 279.809L302.592 282.946L299.475 283.082L298.939 286.228L295.68 286.37L296.216 283.224L292.834 283.371L292.298 286.517L289.039 286.659L289.575 283.513L286.56 283.645L286.423 280.508L290.11 280.347L290.564 277.654L287.61 277.782L287.473 274.645L291.079 274.488L291.599 271.445L294.858 271.303L294.338 274.346L297.72 274.198L298.24 271.155L301.499 271.013L300.979 274.056L303.505 273.946L303.642 277.083L300.464 277.222ZM297.205 277.364L293.823 277.511L293.37 280.205L296.751 280.057L297.205 277.364ZM314.31 278.21C315.146 278.35 315.83 278.735 316.361 279.365C316.891 279.982 317.174 280.704 317.211 281.532C317.263 282.728 316.883 283.697 316.072 284.439C315.274 285.168 314.128 285.565 312.634 285.63L305.973 285.921L305.348 271.621L311.785 271.34C313.238 271.277 314.387 271.56 315.231 272.19C316.088 272.819 316.542 273.704 316.592 274.845C316.629 275.687 316.435 276.396 316.011 276.972C315.601 277.548 315.034 277.961 314.31 278.21ZM309.084 277.254L311.366 277.154C311.936 277.13 312.365 276.988 312.654 276.731C312.955 276.459 313.095 276.079 313.073 275.59C313.052 275.101 312.879 274.735 312.556 274.49C312.246 274.245 311.805 274.135 311.235 274.16L308.953 274.259L309.084 277.254ZM311.9 282.846C312.484 282.82 312.927 282.672 313.228 282.4C313.542 282.114 313.688 281.72 313.666 281.218C313.644 280.715 313.457 280.329 313.105 280.058C312.767 279.787 312.306 279.665 311.722 279.69L309.196 279.8L309.334 282.958L311.9 282.846Z" fill="white"/>
<path d="M242.308 132.498C249.641 101.714 323.089 105.1 309.425 165.037C305.332 182.99 275.395 124.223 249.557 138.64C247.624 139.719 245.217 139.44 243.603 137.932C242.12 136.547 241.833 134.474 242.308 132.498Z" fill="#242424"/>
<path d="M282.65 323.136C282.63 323.143 282.604 323.149 282.578 323.149C282.402 323.169 282.22 323.175 282.038 323.175H139.549C137.655 323.175 135.97 322.298 134.87 320.92C134.05 319.899 133.562 318.599 133.562 317.189L133.543 317.124L111.355 254.496C109.657 249.712 113.21 244.688 118.291 244.688H210.803C213.926 244.688 216.705 246.651 217.746 249.589L241.658 317.072C241.684 317.15 241.697 317.189 241.697 317.189H282.175C285.89 317.189 286.3 322.74 282.65 323.136Z" fill="#80ABBD"/>
<path d="M170.471 298.271C176.074 296.346 178.72 289.276 176.38 282.48C174.041 275.684 167.602 271.736 161.998 273.661C156.395 275.586 153.749 282.656 156.089 289.451C158.428 296.247 164.867 300.196 170.471 298.271Z" fill="white"/>
<path d="M282.175 317.189H241.697C241.697 317.189 241.684 317.15 241.664 317.072L217.746 249.589C216.705 246.651 213.926 244.694 210.803 244.694H207.712C207.712 244.694 214.622 245.143 216.353 251.324C218.084 257.499 241.697 323.052 241.697 323.052L243.441 323.182H282.032C282.22 323.182 282.402 323.175 282.578 323.156C286.306 322.811 285.916 317.189 282.175 317.189Z" fill="#4B7195"/>
<path opacity="0.4" d="M282.65 323.136C282.63 323.143 282.604 323.149 282.578 323.149C282.403 323.169 282.22 323.175 282.038 323.175H139.549C137.655 323.175 135.97 322.298 134.87 320.92C219.093 328.148 210.803 244.688 210.803 244.688C213.926 244.688 216.705 246.651 217.746 249.589L241.658 317.072C241.684 317.15 241.697 317.189 241.697 317.189H281.537C281.967 319.158 282.344 321.141 282.65 323.136Z" fill="#5A93A0"/>
<path d="M113.216 281.829V283.922C109.423 284.357 108.499 287.555 108.499 291.455V292.742C108.499 296.642 109.429 299.84 113.216 300.276V302.362H40.7384C37.7649 302.362 35.3574 299.957 35.3574 296.987V287.217C35.3574 284.247 37.7649 281.829 40.7384 281.829H113.216Z" fill="#4B7195"/>
<path d="M112.091 298.137C112.527 299.164 111.726 300.282 110.62 300.282L41.3566 300.334V283.876L110.62 283.928C111.023 283.928 111.388 284.078 111.661 284.318C112.143 284.721 112.364 285.417 112.097 286.073C111.524 287.445 111.544 289.349 111.544 291.462V292.749C111.538 294.861 111.511 296.766 112.091 298.137Z" fill="white"/>
<path opacity="0.4" d="M111.655 284.318C110.321 284.39 49.1191 287.549 44.9223 293.496C43.7836 295.108 42.4953 296.005 41.3501 296.187V283.883L110.614 283.935C111.023 283.922 111.381 284.078 111.655 284.318Z" fill="#A3D5E6"/>
<path d="M44.9222 302.369H38.832C36.9125 302.369 35.3574 300.815 35.3574 298.898V285.313C35.3574 283.395 36.9125 281.842 38.832 281.842H44.9222V302.369Z" fill="#4B7195"/>
<path opacity="0.4" d="M112.091 298.137C112.526 299.164 111.726 300.282 110.62 300.282L96.7933 300.295C107.777 299.047 107.093 290.032 107.093 290.032C107.217 289.596 98.4135 284.312 98.5631 283.915L110.62 283.928C111.023 283.928 111.388 284.078 111.661 284.318C112.143 284.721 112.364 285.417 112.097 286.073C111.524 287.445 111.544 289.349 111.544 291.462V292.749C111.537 294.861 111.511 296.766 112.091 298.137Z" fill="#A3D5E6"/>
<path opacity="0.4" d="M111.531 290.903H45.0393V292.385H111.531V290.903Z" fill="#A3D5E6"/>
<path opacity="0.4" d="M111.531 287.562H45.0393V289.044H111.531V287.562Z" fill="#A3D5E6"/>
<path opacity="0.4" d="M111.531 295.154H45.0393V296.636H111.531V295.154Z" fill="#A3D5E6"/>
<path d="M90.1175 297.26L86.5844 293.737L83.0448 297.26V287.562H90.1175V297.26Z" fill="#C33E5D"/>
<path d="M120.972 302.297V304.39C117.179 304.826 116.255 308.024 116.255 311.924V313.211C116.255 317.111 117.185 320.309 120.972 320.744V322.831H48.4944C45.5209 322.831 43.1134 320.426 43.1134 317.455V307.686C43.1134 304.715 45.5209 302.297 48.4944 302.297H120.972Z" fill="#C33E5D"/>
<path d="M119.84 318.599C120.276 319.626 119.476 320.744 118.37 320.744L49.1061 320.796V304.338L118.37 304.39C118.773 304.39 119.137 304.54 119.411 304.78C119.892 305.183 120.113 305.879 119.847 306.535C119.274 307.907 119.293 309.811 119.293 311.924V313.211C119.287 315.33 119.267 317.234 119.84 318.599Z" fill="white"/>
<path opacity="0.4" d="M119.411 304.78C118.077 304.852 56.875 308.011 52.6782 313.958C51.5396 315.57 50.2513 316.467 49.1061 316.649V304.345L118.37 304.397C118.773 304.39 119.137 304.54 119.411 304.78Z" fill="#A3D5E6"/>
<path d="M52.6782 322.837H46.588C44.6685 322.837 43.1134 321.284 43.1134 319.366V305.781C43.1134 303.864 44.6685 302.31 46.588 302.31H52.6782V322.837Z" fill="#C33E5D"/>
<path opacity="0.4" d="M119.84 318.599C120.276 319.626 119.476 320.744 118.37 320.744L104.543 320.757C115.526 319.509 114.843 310.494 114.843 310.494C114.967 310.058 106.163 304.774 106.313 304.377L118.37 304.39C118.773 304.39 119.137 304.54 119.411 304.78C119.892 305.183 120.113 305.879 119.847 306.535C119.274 307.907 119.293 309.811 119.293 311.924V313.211C119.287 315.33 119.267 317.234 119.84 318.599Z" fill="#A3D5E6"/>
<path opacity="0.4" d="M119.287 311.365H52.7953V312.847H119.287V311.365Z" fill="#A3D5E6"/>
<path opacity="0.4" d="M119.287 308.024H52.7953V309.506H119.287V308.024Z" fill="#A3D5E6"/>
<path opacity="0.4" d="M119.287 315.616H52.7953V317.098H119.287V315.616Z" fill="#A3D5E6"/>
<path d="M112.013 319.015L108.278 315.291L104.543 319.015V308.771H112.013V319.015Z" fill="#C33E5D"/>
<path d="M471.942 331.755V333.257C471.942 337.846 468.213 341.564 463.62 341.564H38.0577C34.1863 341.564 30.9329 338.925 30.0025 335.356C30.0025 335.35 30.0025 335.343 29.996 335.337C29.8268 334.667 29.7357 333.972 29.7357 333.257V331.755C29.7357 327.166 33.4575 323.448 38.0577 323.448H463.62C468.213 323.448 471.942 327.166 471.942 331.755Z" fill="#47547C"/>
<path opacity="0.5" d="M471.942 331.755V333.257C471.942 337.846 468.213 341.564 463.62 341.564H38.0577C34.1863 341.564 30.9329 338.925 30.0025 335.356C30.0025 335.35 30.0025 335.343 29.996 335.337C29.8203 334.004 29.7357 333.257 29.7357 333.257C268.368 341.564 463.62 323.448 463.62 323.448C468.213 323.448 471.942 327.166 471.942 331.755Z" fill="#2B2B3F"/>
<path d="M461.329 103.989C461.329 103.937 461.336 103.885 461.336 103.833C461.336 103.781 461.329 103.729 461.329 103.683C462.11 103.326 462.891 102.91 463.665 102.409C464.492 101.844 465.331 101.187 466.112 100.433L465.943 99.7701C465.78 99.0161 465.487 98.2946 465.227 97.5731C465.077 97.2221 464.902 96.8776 464.732 96.5331C464.576 96.1756 464.388 95.8441 464.179 95.5191L463.828 94.9406C462.767 94.9471 461.687 95.0836 460.705 95.2656C459.82 95.4476 458.961 95.7141 458.161 96.0196L457.946 95.8051C458.245 94.9991 458.512 94.1476 458.694 93.2636C458.883 92.2821 459.02 91.2096 459.026 90.1436L458.447 89.7926C458.122 89.5846 457.783 89.3961 457.432 89.2401C457.087 89.0711 456.742 88.8956 456.384 88.7461C455.662 88.4796 454.94 88.1936 454.192 88.0311L453.528 87.8621C452.78 88.6421 452.123 89.4741 451.55 90.3061C451.049 91.0731 450.639 91.8531 450.275 92.6396C450.229 92.6396 450.171 92.6266 450.125 92.6266C450.073 92.6266 450.021 92.6396 449.969 92.6396C449.617 91.8531 449.194 91.0731 448.693 90.3061C448.134 89.4741 447.47 88.6421 446.722 87.8621L446.058 88.0311C445.297 88.1936 444.581 88.4861 443.859 88.7461C443.508 88.8956 443.163 89.0711 442.811 89.2401C442.46 89.3961 442.128 89.5846 441.796 89.7926L441.217 90.1436C441.23 91.2031 441.367 92.2821 441.549 93.2636C441.731 94.1476 441.998 94.9991 442.304 95.8051C442.232 95.8766 442.154 95.9481 442.089 96.0196C441.282 95.7141 440.43 95.4541 439.545 95.2656C438.563 95.0836 437.482 94.9471 436.422 94.9406L436.064 95.5191C435.862 95.8441 435.674 96.1756 435.511 96.5331C435.348 96.8776 435.173 97.2221 435.023 97.5731C434.75 98.2946 434.47 99.0226 434.307 99.7701L434.138 100.433C434.919 101.187 435.752 101.837 436.585 102.409C437.352 102.91 438.133 103.319 438.914 103.683C438.914 103.729 438.907 103.781 438.907 103.833C438.907 103.885 438.914 103.937 438.914 103.989C438.133 104.34 437.352 104.762 436.585 105.263C435.752 105.822 434.919 106.485 434.138 107.232L434.307 107.895C434.47 108.649 434.756 109.371 435.023 110.092C435.173 110.443 435.348 110.788 435.511 111.139C435.674 111.49 435.862 111.821 436.064 112.146L436.422 112.731C437.476 112.725 438.563 112.588 439.545 112.406C440.43 112.224 441.282 111.958 442.089 111.652C442.154 111.724 442.232 111.802 442.304 111.867C441.998 112.673 441.738 113.524 441.549 114.408C441.367 115.39 441.23 116.469 441.217 117.528L441.796 117.886C442.128 118.087 442.46 118.276 442.811 118.432C443.163 118.601 443.508 118.776 443.859 118.926C444.581 119.199 445.304 119.478 446.058 119.641L446.722 119.81C447.464 119.03 448.127 118.198 448.693 117.366C449.194 116.599 449.617 115.819 449.969 115.032C450.021 115.039 450.073 115.045 450.125 115.045C450.171 115.045 450.229 115.039 450.275 115.032C450.632 115.819 451.049 116.599 451.55 117.366C452.116 118.198 452.773 119.03 453.528 119.81L454.192 119.641C454.946 119.478 455.662 119.192 456.384 118.926C456.742 118.776 457.087 118.601 457.432 118.432C457.783 118.276 458.122 118.087 458.447 117.886L459.026 117.528C459.02 116.475 458.883 115.39 458.694 114.408C458.519 113.524 458.245 112.673 457.946 111.867C458.018 111.802 458.089 111.724 458.161 111.652C458.961 111.958 459.82 112.218 460.705 112.406C461.687 112.588 462.761 112.725 463.828 112.731L464.179 112.146C464.388 111.821 464.576 111.49 464.732 111.139C464.902 110.788 465.077 110.443 465.227 110.092C465.494 109.371 465.78 108.643 465.943 107.895L466.112 107.232C465.331 106.491 464.492 105.828 463.665 105.263C462.891 104.762 462.11 104.34 461.329 103.989ZM450.112 109.195C447.145 109.195 444.744 106.797 444.744 103.833C444.744 100.869 447.145 98.4701 450.112 98.4701C453.079 98.4701 455.48 100.869 455.48 103.833C455.48 106.797 453.072 109.195 450.112 109.195Z" fill="#EBA154"/>
<path d="M434.717 112.114H398.482V147.76H408.541" stroke="#FD783D" stroke-miterlimit="10" stroke-dasharray="4 4"/>
<path d="M429.323 166.837H409.406V170.393H429.323V166.837Z" fill="white"/>
<path d="M440.033 173.422H409.406V176.977H440.033V173.422Z" fill="white"/>
<path d="M419.836 180H409.406V183.555H419.836V180Z" fill="white"/>
<path d="M434.522 180H424.092V183.555H434.522V180Z" fill="#EBA154"/>
<path d="M453.235 180H438.257V183.555H453.235V180Z" fill="#EBA154"/>
<path d="M453.235 173.422H444.139V176.977H453.235V173.422Z" fill="#EBA154"/>
<path d="M453.235 166.837H433.318V170.393H453.235V166.837Z" fill="#EBA154"/>
<path d="M460.529 143.808H459.865V183.445H460.529V143.808Z" fill="white"/>
<path d="M430.195 145.264H409.712V148.923H430.195V145.264Z" fill="white"/>
<path d="M441.204 152.03H409.712V155.69H441.204V152.03Z" fill="white"/>
<path d="M420.435 158.797H409.712V162.456H420.435V158.797Z" fill="white"/>
<path d="M435.544 158.797H424.821V162.456H435.544V158.797Z" fill="#EBA154"/>
<path d="M454.784 158.797H439.382V162.456H454.784V158.797Z" fill="#EBA154"/>
<path d="M454.79 152.03H445.434V155.69H454.79V152.03Z" fill="#EBA154"/>
<path d="M454.784 145.264H434.301V148.923H454.784V145.264Z" fill="#EBA154"/>
<path d="M384.004 77.1046H325.06V192.818H384.004V77.1046Z" fill="#49496B"/>
<path d="M376.034 101.714H331.775V106.407H376.034V101.714Z" fill="white"/>
<path d="M361.068 112.114H331.775V116.807H361.068V112.114Z" fill="white"/>
<path d="M376.033 112.114H365.421V116.807H376.033V112.114Z" fill="#EBA154"/>
<path d="M376.034 122.507H348.608V127.2H376.034V122.507Z" fill="#EBA154"/>
<path d="M344.619 122.507H331.775V127.2H344.619V122.507Z" fill="white"/>
<path d="M355.167 132.907H331.775V137.6H355.167V132.907Z" fill="white"/>
<path d="M376.034 132.907H358.771V137.6H376.034V132.907Z" fill="#EBA154"/>
<path d="M376.034 143.307H344.619V148H376.034V143.307Z" fill="#EBA154"/>
<path d="M341.268 143.307H331.775V148H341.268V143.307Z" fill="white"/>
<path d="M350.768 153.701H331.775V158.394H350.768V153.701Z" fill="white"/>
<path d="M376.033 153.701H353.904V158.394H376.033V153.701Z" fill="#EBA154"/>
<path d="M374.726 181.41V182.73L369.885 184.569V183.302L373.275 182.073L369.885 180.832V179.571L374.726 181.41Z" fill="#EBA154"/>
<path d="M360.958 179.571V180.832L357.568 182.073L360.958 183.302V184.569L356.117 182.73V181.41L360.958 179.571Z" fill="#EBA154"/>
<path d="M366.683 176.009H368.199L364.601 186.266H363.085L366.683 176.009Z" fill="#EBA154"/>
<path d="M352.486 91.1122V92.8412L346.135 95.2527V93.5887L350.579 91.9767L346.135 90.3517V88.7007L352.486 91.1122Z" fill="#EBA154"/>
<path d="M340.813 88.7007V90.3517L336.369 91.9767L340.813 93.5887V95.2527L334.462 92.8412V91.1122L340.813 88.7007Z" fill="#EBA154"/>
<path d="M338.436 62.6539V75.7H334.345V70.6142H330.457V75.7H326.366V62.6539H330.457V67.3527H334.345V62.6539H338.436ZM350.522 62.6539V65.897H347.057V75.7H342.967V65.897H339.539V62.6539H350.522ZM367.312 62.6539V75.7H363.24V69.1954L361.231 75.7H357.73L355.722 69.1954V75.7H351.631V62.6539H356.643L359.518 70.4853L362.319 62.6539H367.312ZM373.249 72.6043H377.192V75.7H369.158V62.6539H373.249V72.6043Z" fill="white"/>
<path d="M52.3073 195.652C51.084 194.456 49.6721 193.481 48.1365 192.779C48.1105 192.766 48.078 192.753 48.0519 192.74C45.8917 191.765 43.5103 191.297 41.1028 191.433C39.4566 191.518 37.7974 191.888 36.1968 192.564C36.0992 192.603 35.9951 192.649 35.8975 192.694C33.0281 193.975 30.7637 196.061 29.2542 198.564C26.8467 202.568 26.3587 207.638 28.4083 212.22C31.7332 219.669 40.5042 223.023 47.9543 219.702C54.7863 216.66 58.1763 209.042 56.1397 202.061C55.9575 201.424 55.7233 200.793 55.4435 200.176C54.6692 198.427 53.5956 196.906 52.3073 195.652ZM46.113 215.561C40.9402 217.862 34.8564 215.535 32.5531 210.368C31.1802 207.293 31.4534 203.9 32.9825 201.17C32.9955 201.151 33.002 201.131 33.015 201.105C34.0561 199.272 35.6763 197.738 37.7454 196.815C38.1358 196.64 38.5262 196.497 38.9296 196.373C38.9686 196.36 39.0142 196.347 39.0532 196.334C41.1093 195.736 43.237 195.808 45.176 196.458C45.1825 196.458 45.189 196.464 45.202 196.464C46.8612 197.023 48.3773 197.998 49.5745 199.331C50.2772 200.104 50.8628 201.001 51.3118 202.009C51.5916 202.633 51.7998 203.27 51.9429 203.913C53.01 208.593 50.6611 213.533 46.113 215.561Z" fill="#64648E"/>
<path d="M48.1366 192.779C49.6656 193.481 51.0841 194.449 52.3073 195.652C53.5957 196.913 54.6693 198.434 55.4501 200.176C55.7298 200.793 55.9576 201.424 56.1463 202.061L51.9495 203.92C51.8063 203.276 51.5916 202.639 51.3183 202.015C50.8694 201.014 50.2773 200.117 49.581 199.337C48.3838 198.005 46.8678 197.03 45.2086 196.471L45.176 196.464L48.052 192.733" fill="#EBA154"/>
<path d="M45.1955 196.471L45.1759 196.464C43.237 195.814 41.1093 195.743 39.0532 196.341C39.0141 196.354 38.9686 196.367 38.9295 196.38L36.2032 192.558C37.8039 191.888 39.4631 191.518 41.1093 191.427C43.5167 191.297 45.8982 191.758 48.0584 192.733" fill="#B83D5D"/>
<path d="M43.1069 220.976V222.276" stroke="#FD783D" stroke-miterlimit="10"/>
<path d="M43.1069 224.765V243.427" stroke="#FD783D" stroke-miterlimit="10" stroke-dasharray="3.83 3.83"/>
<path d="M43.1069 244.668V245.968H44.4083" stroke="#FD783D" stroke-miterlimit="10"/>
<path d="M47.089 245.968H83.24" stroke="#FD783D" stroke-miterlimit="10" stroke-dasharray="4.12 4.12"/>
<path d="M84.5804 245.968H85.8818V244.668" stroke="#FD783D" stroke-miterlimit="10"/>
<path d="M85.8817 242.14V223.153" stroke="#FD783D" stroke-miterlimit="10" stroke-dasharray="3.89 3.89"/>
<path d="M85.8817 221.886V220.586" stroke="#FD783D" stroke-miterlimit="10"/>
<path d="M195.753 69.9091H70.2722V219.357H195.753V69.9091Z" fill="#49496B"/>
<path d="M195.753 62.6292H70.2722V81.5961H195.753V62.6292Z" fill="#64648E"/>
<path d="M181.23 209.074V210.303L176.721 212.019V210.836L179.877 209.692L176.721 208.535V207.358L181.23 209.074Z" fill="#EBA154"/>
<path d="M168.399 207.358V208.535L165.244 209.692L168.399 210.836V212.019L163.89 210.303V209.074L168.399 207.358Z" fill="#EBA154"/>
<path d="M175.356 204.291H177.526L172.375 218.997H170.205L175.356 204.291Z" fill="#EBA154"/>
<path d="M100.001 93.6861V95.2201L94.3729 97.3587V95.8831L98.3094 94.4531L94.3729 93.0101V91.5476L100.001 93.6861Z" fill="#EBA154"/>
<path d="M89.6556 91.5476V93.0101L85.7191 94.4531L89.6556 95.8831V97.3587L84.0273 95.2201V93.6861L89.6556 91.5476Z" fill="#EBA154"/>
<path d="M92.1157 72.4146L89.5823 82.1329H86.7166L85.1661 75.7371L83.5602 82.1329H80.6946L78.2304 72.4146H80.7638L82.162 79.4888L83.8925 72.4146H86.4951L88.1564 79.4888L89.5684 72.4146H92.1157ZM95.6702 74.3112V76.277H98.8404V78.1044H95.6702V80.2363H99.2558V82.1329H93.3029V72.4146H99.2558V74.3112H95.6702ZM106.676 77.1492C107.239 77.2691 107.691 77.5506 108.033 77.9936C108.374 78.4274 108.545 78.9258 108.545 79.4888C108.545 80.3009 108.259 80.947 107.687 81.4269C107.124 81.8976 106.335 82.1329 105.32 82.1329H100.793V72.4146H105.167C106.155 72.4146 106.925 72.6407 107.479 73.0929C108.042 73.5452 108.324 74.1589 108.324 74.9342C108.324 75.5064 108.171 75.9817 107.867 76.3601C107.571 76.7385 107.175 77.0015 106.676 77.1492ZM103.16 76.3462H104.71C105.098 76.3462 105.393 76.2632 105.596 76.097C105.809 75.9217 105.915 75.6679 105.915 75.3356C105.915 75.0034 105.809 74.7496 105.596 74.5742C105.393 74.3989 105.098 74.3112 104.71 74.3112H103.16V76.3462ZM104.904 80.2225C105.301 80.2225 105.606 80.1348 105.818 79.9595C106.039 79.7749 106.15 79.5118 106.15 79.1704C106.15 78.8289 106.035 78.5612 105.804 78.3674C105.583 78.1736 105.273 78.0767 104.877 78.0767H103.16V80.2225H104.904ZM82.3835 93.4146C83.408 93.4146 84.3032 93.6176 85.0692 94.0237C85.8352 94.4298 86.4259 95.002 86.8412 95.7403C87.2658 96.4695 87.478 97.3139 87.478 98.2738C87.478 99.2244 87.2658 100.069 86.8412 100.807C86.4259 101.546 85.8306 102.118 85.0554 102.524C84.2893 102.93 83.3987 103.133 82.3835 103.133H78.7426V93.4146H82.3835ZM82.2312 101.084C83.1265 101.084 83.8233 100.839 84.3216 100.35C84.82 99.8612 85.0692 99.169 85.0692 98.2738C85.0692 97.3785 84.82 96.6817 84.3216 96.1833C83.8233 95.685 83.1265 95.4358 82.2312 95.4358H81.1099V101.084H82.2312ZM91.1683 95.3112V97.277H94.3385V99.1044H91.1683V101.236H94.7538V103.133H88.801V93.4146H94.7538V95.3112H91.1683ZM105.414 93.4146L101.967 103.133H99.0041L95.557 93.4146H98.0765L100.485 100.752L102.908 93.4146H105.414ZM108.77 95.3112V97.277H111.941V99.1044H108.77V101.236H112.356V103.133H106.403V93.4146H112.356V95.3112H108.77ZM116.26 101.306H119.361V103.133H113.893V93.4146H116.26V101.306ZM125.086 103.23C124.173 103.23 123.333 103.018 122.567 102.593C121.81 102.168 121.206 101.578 120.753 100.821C120.31 100.055 120.089 99.1967 120.089 98.2461C120.089 97.2955 120.31 96.4418 120.753 95.685C121.206 94.9282 121.81 94.3375 122.567 93.913C123.333 93.4884 124.173 93.2761 125.086 93.2761C126 93.2761 126.835 93.4884 127.592 93.913C128.358 94.3375 128.958 94.9282 129.392 95.685C129.835 96.4418 130.056 97.2955 130.056 98.2461C130.056 99.1967 129.835 100.055 129.392 100.821C128.949 101.578 128.349 102.168 127.592 102.593C126.835 103.018 126 103.23 125.086 103.23ZM125.086 101.07C125.862 101.07 126.48 100.812 126.942 100.295C127.412 99.7781 127.648 99.0952 127.648 98.2461C127.648 97.3878 127.412 96.7048 126.942 96.1972C126.48 95.6804 125.862 95.4219 125.086 95.4219C124.302 95.4219 123.674 95.6757 123.204 96.1833C122.742 96.691 122.511 97.3785 122.511 98.2461C122.511 99.1044 122.742 99.792 123.204 100.309C123.674 100.816 124.302 101.07 125.086 101.07ZM138.78 96.5433C138.78 97.1063 138.651 97.6231 138.392 98.0938C138.134 98.5553 137.737 98.929 137.202 99.2151C136.666 99.5012 136.002 99.6443 135.208 99.6443H133.741V103.133H131.373V93.4146H135.208C135.983 93.4146 136.639 93.5484 137.174 93.8161C137.709 94.0837 138.111 94.4529 138.378 94.9236C138.646 95.3942 138.78 95.9342 138.78 96.5433ZM135.028 97.7615C135.48 97.7615 135.817 97.6554 136.039 97.4431C136.26 97.2309 136.371 96.9309 136.371 96.5433C136.371 96.1557 136.26 95.8557 136.039 95.6434C135.817 95.4312 135.48 95.325 135.028 95.325H133.741V97.7615H135.028ZM142.38 93.4146V103.133H140.012V93.4146H142.38ZM152.789 103.133H150.422L146.462 97.1386V103.133H144.095V93.4146H146.462L150.422 99.4366V93.4146H152.789V103.133ZM85.1938 117.488C85.0184 117.165 84.7646 116.92 84.4324 116.754C84.1094 116.579 83.7264 116.491 83.2834 116.491C82.5173 116.491 81.9036 116.745 81.4421 117.253C80.9807 117.751 80.7499 118.42 80.7499 119.26C80.7499 120.155 80.9899 120.857 81.4698 121.364C81.959 121.863 82.6281 122.112 83.4772 122.112C84.0586 122.112 84.5478 121.964 84.9446 121.669C85.3507 121.373 85.646 120.949 85.8306 120.395H82.8265V118.651H87.9764V120.852C87.8011 121.443 87.5011 121.992 87.0766 122.499C86.6612 123.007 86.1306 123.418 85.4845 123.731C84.8385 124.045 84.1094 124.202 83.2972 124.202C82.3374 124.202 81.4791 123.994 80.7223 123.579C79.9747 123.155 79.3886 122.569 78.9641 121.821C78.5488 121.073 78.3411 120.22 78.3411 119.26C78.3411 118.3 78.5488 117.446 78.9641 116.699C79.3886 115.942 79.9747 115.356 80.7223 114.941C81.4698 114.516 82.3235 114.304 83.2834 114.304C84.4462 114.304 85.4245 114.585 86.2182 115.148C87.0212 115.711 87.5519 116.491 87.8103 117.488H85.1938Z" fill="white"/>
<path d="M128.852 106.472H91.9655V113.219H128.852V106.472Z" fill="#54B3CD"/>
<path d="M152.484 106.472H134.044V113.219H152.484V106.472Z" fill="#EBA154"/>
<path d="M182.135 106.472H156.733V113.219H182.135V106.472Z" fill="white"/>
<path d="M109.182 118.523H91.9655V125.27H109.182V118.523Z" fill="#54B3CD"/>
<path d="M143.264 118.523H113.86V125.27H143.264V118.523Z" fill="#EBA154"/>
<path d="M182.135 118.523H148.059V125.27H182.135V118.523Z" fill="white"/>
<path d="M114.628 130.567H91.9655V137.314H114.628V130.567Z" fill="#54B3CD"/>
<path d="M160.936 130.567H118.311V137.314H160.936V130.567Z" fill="#EBA154"/>
<path d="M182.135 130.567H165.504V137.314H182.135V130.567Z" fill="white"/>
<path d="M120.536 142.618H91.9655V149.365H120.536V142.618Z" fill="#54B3CD"/>
<path d="M152.484 142.618H124.753V149.365H152.484V142.618Z" fill="#EBA154"/>
<path d="M182.135 142.618H156.733V149.365H182.135V142.618Z" fill="white"/>
<path d="M104.497 154.663H91.9655V161.41H104.497V154.663Z" fill="#54B3CD"/>
<path d="M133.537 154.663H108.707V161.41H133.537V154.663Z" fill="#EBA154"/>
<path d="M182.135 154.663H137.401V161.41H182.135V154.663Z" fill="white"/>
<path d="M127.798 166.707H91.9655V173.454H127.798V166.707Z" fill="#54B3CD"/>
<path d="M143.264 166.707H132.248V173.454H143.264V166.707Z" fill="#EBA154"/>
<path d="M182.135 166.707H148.059V173.454H182.135V166.707Z" fill="white"/>
<path d="M138.625 178.758H91.9655V185.505H138.625V178.758Z" fill="#54B3CD"/>
<path d="M161.645 178.758H142.555V185.505H161.645V178.758Z" fill="#EBA154"/>
<path d="M182.135 178.758H165.504V185.505H182.135V178.758Z" fill="white"/>
<path d="M106.254 190.803H91.9655V197.55H106.254V190.803Z" fill="#54B3CD"/>
<path d="M127.798 190.803H110.405V197.55H127.798V190.803Z" fill="#EBA154"/>
<path d="M182.135 190.803H132.248V197.55H182.135V190.803Z" fill="white"/>
<path d="M188.44 106.472H187.067V197.55H188.44V106.472Z" fill="white"/>
<path d="M80.364 113.219C82.2291 113.219 83.741 111.708 83.741 109.845C83.741 107.982 82.2291 106.472 80.364 106.472C78.499 106.472 76.9871 107.982 76.9871 109.845C76.9871 111.708 78.499 113.219 80.364 113.219Z" fill="white"/>
<path d="M80.364 125.27C82.2291 125.27 83.741 123.759 83.741 121.896C83.741 120.033 82.2291 118.523 80.364 118.523C78.499 118.523 76.9871 120.033 76.9871 121.896C76.9871 123.759 78.499 125.27 80.364 125.27Z" fill="white"/>
<path d="M80.364 137.314C82.2291 137.314 83.741 135.804 83.741 133.941C83.741 132.078 82.2291 130.567 80.364 130.567C78.499 130.567 76.9871 132.078 76.9871 133.941C76.9871 135.804 78.499 137.314 80.364 137.314Z" fill="white"/>
<path d="M80.364 149.365C82.2291 149.365 83.741 147.855 83.741 145.992C83.741 144.129 82.2291 142.618 80.364 142.618C78.499 142.618 76.9871 144.129 76.9871 145.992C76.9871 147.855 78.499 149.365 80.364 149.365Z" fill="white"/>
<path d="M80.364 161.41C82.2291 161.41 83.741 159.899 83.741 158.036C83.741 156.173 82.2291 154.663 80.364 154.663C78.499 154.663 76.9871 156.173 76.9871 158.036C76.9871 159.899 78.499 161.41 80.364 161.41Z" fill="white"/>
<path d="M80.364 173.454C82.2291 173.454 83.741 171.944 83.741 170.081C83.741 168.218 82.2291 166.707 80.364 166.707C78.499 166.707 76.9871 168.218 76.9871 170.081C76.9871 171.944 78.499 173.454 80.364 173.454Z" fill="white"/>
<path d="M80.364 185.505C82.2291 185.505 83.741 183.995 83.741 182.132C83.741 180.268 82.2291 178.758 80.364 178.758C78.499 178.758 76.9871 180.268 76.9871 182.132C76.9871 183.995 78.499 185.505 80.364 185.505Z" fill="white"/>
<path d="M80.364 197.55C82.2291 197.55 83.741 196.039 83.741 194.176C83.741 192.313 82.2291 190.803 80.364 190.803C78.499 190.803 76.9871 192.313 76.9871 194.176C76.9871 196.039 78.499 197.55 80.364 197.55Z" fill="white"/>
<path d="M190.164 73.1592C190.164 75.0572 188.622 76.5977 186.722 76.5977C184.822 76.5977 183.28 75.0572 183.28 73.1592C183.28 71.2612 184.822 69.7207 186.722 69.7207C188.622 69.7142 190.164 71.2547 190.164 73.1592Z" fill="#B83D5D"/>
<path d="M181.647 73.0876C181.647 75.0051 180.092 76.5521 178.179 76.5521C176.259 76.5521 174.711 74.9986 174.711 73.0876C174.711 71.1701 176.266 69.6231 178.179 69.6231C180.092 69.6231 181.647 71.1701 181.647 73.0876Z" fill="white"/>
<path d="M224.604 87.4786H212.449V90.8781H224.604V87.4786Z" fill="#47547C"/>
<path d="M249.635 81.4207H212.449V84.8202H249.635V81.4207Z" fill="#64648E"/>
<path d="M233.934 91.5281V92.8281" stroke="#FD783D" stroke-miterlimit="10"/>
<path d="M233.934 95.0251V102.708" stroke="#FD783D" stroke-miterlimit="10" stroke-dasharray="3.38 3.38"/>
<path d="M233.934 103.8V105.1H235.236" stroke="#FD783D" stroke-miterlimit="10"/>
<path d="M237.715 105.1H276.13" stroke="#FD783D" stroke-miterlimit="10" stroke-dasharray="3.81 3.81"/>
<path d="M277.373 105.1H278.674V103.8" stroke="#FD783D" stroke-miterlimit="10"/>
<path d="M278.674 101.168V97.2091" stroke="#FD783D" stroke-miterlimit="10" stroke-dasharray="4.06 4.06"/>
<path d="M278.674 95.8896V94.5896" stroke="#FD783D" stroke-miterlimit="10"/>
<path d="M213.004 73.9191C213.004 72.6292 213.262 71.4806 213.778 70.4733C214.306 69.4659 215.055 68.6859 216.026 68.1331C216.996 67.568 218.139 67.2854 219.453 67.2854C220.583 67.2854 221.591 67.5004 222.475 67.9304C223.372 68.3481 224.097 68.9439 224.65 69.7178C225.215 70.4917 225.589 71.3946 225.774 72.4265H221.462C221.265 71.9965 220.983 71.6649 220.614 71.4315C220.258 71.1858 219.846 71.0629 219.38 71.0629C218.692 71.0629 218.145 71.3209 217.74 71.8368C217.347 72.3528 217.15 73.0469 217.15 73.9191C217.15 74.7913 217.347 75.4853 217.74 76.0013C218.145 76.5172 218.692 76.7752 219.38 76.7752C219.846 76.7752 220.258 76.6585 220.614 76.4251C220.983 76.1794 221.265 75.8416 221.462 75.4116H225.774C225.589 76.4435 225.215 77.3464 224.65 78.1203C224.097 78.8943 223.372 79.4962 222.475 79.9262C221.591 80.3438 220.583 80.5527 219.453 80.5527C218.139 80.5527 216.996 80.2763 216.026 79.7235C215.055 79.1584 214.306 78.3722 213.778 77.3649C213.262 76.3575 213.004 75.2089 213.004 73.9191ZM232.351 80.5895C230.791 80.5895 229.501 80.2271 228.481 79.5024C227.474 78.7653 226.927 77.6904 226.841 76.2777H231.19C231.251 77.027 231.583 77.4017 232.185 77.4017C232.406 77.4017 232.59 77.3526 232.738 77.2543C232.897 77.1437 232.977 76.9779 232.977 76.7568C232.977 76.4497 232.811 76.204 232.48 76.0197C232.148 75.8232 231.632 75.602 230.932 75.3563C230.097 75.0615 229.402 74.7728 228.85 74.4903C228.309 74.2077 227.842 73.7962 227.449 73.2557C227.056 72.7152 226.866 72.0211 226.878 71.1735C226.878 70.3259 227.093 69.6072 227.523 69.0176C227.965 68.4156 228.561 67.9611 229.31 67.654C230.072 67.3469 230.926 67.1933 231.872 67.1933C233.469 67.1933 234.734 67.5618 235.668 68.2989C236.613 69.036 237.111 70.074 237.16 71.413H232.756C232.744 71.0445 232.652 70.7804 232.48 70.6207C232.308 70.461 232.099 70.3811 231.853 70.3811C231.681 70.3811 231.54 70.4426 231.429 70.5654C231.319 70.676 231.264 70.8357 231.264 71.0445C231.264 71.3393 231.423 71.585 231.743 71.7816C232.074 71.9658 232.596 72.1931 233.309 72.4634C234.132 72.7705 234.808 73.0653 235.336 73.3478C235.876 73.6304 236.343 74.0235 236.736 74.5271C237.129 75.0308 237.326 75.6635 237.326 76.4251C237.326 77.2236 237.129 77.9422 236.736 78.581C236.343 79.2075 235.772 79.6989 235.023 80.0552C234.273 80.4114 233.383 80.5895 232.351 80.5895ZM243.867 80.5895C242.307 80.5895 241.017 80.2271 239.998 79.5024C238.99 78.7653 238.444 77.6904 238.358 76.2777H242.707C242.768 77.027 243.1 77.4017 243.702 77.4017C243.923 77.4017 244.107 77.3526 244.254 77.2543C244.414 77.1437 244.494 76.9779 244.494 76.7568C244.494 76.4497 244.328 76.204 243.996 76.0197C243.665 75.8232 243.149 75.602 242.449 75.3563C241.613 75.0615 240.919 74.7728 240.366 74.4903C239.826 74.2077 239.359 73.7962 238.966 73.2557C238.573 72.7152 238.382 72.0211 238.395 71.1735C238.395 70.3259 238.61 69.6072 239.04 69.0176C239.482 68.4156 240.078 67.9611 240.827 67.654C241.589 67.3469 242.442 67.1933 243.388 67.1933C244.985 67.1933 246.251 67.5618 247.184 68.2989C248.13 69.036 248.628 70.074 248.677 71.413H244.273C244.261 71.0445 244.168 70.7804 243.996 70.6207C243.824 70.461 243.616 70.3811 243.37 70.3811C243.198 70.3811 243.057 70.4426 242.946 70.5654C242.836 70.676 242.78 70.8357 242.78 71.0445C242.78 71.3393 242.94 71.585 243.259 71.7816C243.591 71.9658 244.113 72.1931 244.826 72.4634C245.649 72.7705 246.324 73.0653 246.853 73.3478C247.393 73.6304 247.86 74.0235 248.253 74.5271C248.646 75.0308 248.843 75.6635 248.843 76.4251C248.843 77.2236 248.646 77.9422 248.253 78.581C247.86 79.2075 247.289 79.6989 246.539 80.0552C245.79 80.4114 244.899 80.5895 243.867 80.5895Z" fill="white"/>
<path d="M288.532 80.7387C288.408 80.2967 288.246 79.8612 288.05 79.4322C287.51 78.2232 286.762 77.1702 285.871 76.2927C285.025 75.4607 284.036 74.7912 282.975 74.3037C282.956 74.2907 282.936 74.2842 282.917 74.2777C281.42 73.5952 279.767 73.2767 278.095 73.3677C276.95 73.4327 275.805 73.6862 274.692 74.1542C274.627 74.1867 274.555 74.2127 274.484 74.2452C272.493 75.1357 270.925 76.5787 269.877 78.3142C268.576 80.4722 268.088 83.0722 268.595 85.6137C268.739 86.3482 268.973 87.0762 269.285 87.7847C271.588 92.9522 277.679 95.2792 282.845 92.9717C286.001 91.5677 288.096 88.7597 288.734 85.6072C289.059 84.0277 289.007 82.3572 288.532 80.7387ZM281.576 90.1052C277.991 91.7042 273.768 90.0857 272.168 86.5042C272.037 86.2117 271.927 85.9127 271.836 85.6137C271.283 83.7352 271.549 81.7592 272.46 80.1277C272.467 80.1147 272.473 80.0952 272.48 80.0822C273.202 78.8082 274.321 77.7487 275.759 77.1052C276.033 76.9882 276.299 76.8842 276.579 76.8062C276.605 76.7932 276.631 76.7867 276.664 76.7802C278.089 76.3577 279.566 76.4162 280.913 76.8582C280.919 76.8582 280.919 76.8647 280.926 76.8647C282.077 77.2547 283.131 77.9307 283.958 78.8537C284.446 79.3932 284.849 80.0107 285.161 80.7127C285.357 81.1482 285.5 81.5902 285.604 82.0322C285.877 83.2412 285.825 84.4697 285.487 85.6137C284.934 87.5442 283.554 89.2212 281.576 90.1052Z" fill="#64648E"/>
<path d="M288.74 85.6066H285.506C285.844 84.4626 285.897 83.2276 285.623 82.0251C285.519 81.5831 285.376 81.1411 285.181 80.7056C284.868 80.0036 284.465 79.3861 283.977 78.8466C283.144 77.9236 282.097 77.2476 280.945 76.8576C280.938 76.8576 280.938 76.8511 280.932 76.8511C279.585 76.4026 278.108 76.3506 276.683 76.7731C276.651 76.7796 276.625 76.7861 276.599 76.7991C276.319 76.8771 276.045 76.9811 275.779 77.0981C274.341 77.7416 273.222 78.8011 272.499 80.0751C272.493 80.0881 272.48 80.1076 272.48 80.1206C271.562 81.7456 271.296 83.7281 271.855 85.6066H268.621C268.114 83.0651 268.602 80.4586 269.903 78.3071C270.944 76.5651 272.519 75.1221 274.51 74.2381C274.575 74.2056 274.653 74.1796 274.718 74.1471C275.831 73.6856 276.982 73.4256 278.121 73.3606C279.793 73.2696 281.446 73.5881 282.943 74.2706C282.962 74.2771 282.982 74.2836 283.001 74.2966C284.062 74.7841 285.044 75.4536 285.897 76.2856C286.788 77.1631 287.536 78.2161 288.076 79.4251C288.265 79.8541 288.428 80.2896 288.558 80.7316C289.007 82.3566 289.059 84.0271 288.74 85.6066Z" fill="#B83D5D"/>
<path d="M249.641 87.4786H227.044V90.8781H249.641V87.4786Z" fill="#64648E"/>
<path d="M45.6866 74.1633C45.6866 75.2021 45.5193 75.9944 45.1848 76.5402C44.8503 77.0861 44.3045 77.4734 43.5474 77.7023C44.3045 77.9312 44.8503 78.3185 45.1848 78.8644C45.5193 79.4102 45.6866 80.2025 45.6866 81.2413V83.7503C45.6866 84.3313 45.8451 84.7803 46.162 85.0972C46.4789 85.4141 46.9455 85.5726 47.5617 85.5726H47.8258V90.0623H45.8715C43.8467 90.0623 42.3149 89.5781 41.2761 88.6098C40.2373 87.6414 39.7179 86.2504 39.7179 84.4369V81.1092C39.7179 80.7219 39.6122 80.4314 39.4009 80.2377C39.2073 80.044 38.9344 79.9472 38.5822 79.9472H37.7107V75.4574H38.5822C38.9344 75.4574 39.2073 75.3606 39.4009 75.1669C39.6122 74.9732 39.7179 74.6827 39.7179 74.2954V70.9677C39.7179 69.1542 40.2373 67.7632 41.2761 66.7948C42.3149 65.8265 43.8467 65.3423 45.8715 65.3423H47.8258V69.832H47.5617C46.9455 69.832 46.4789 69.9905 46.162 70.3074C45.8451 70.6243 45.6866 71.0733 45.6866 71.6543V74.1633ZM46.9015 107.457V111.947H46.0299C45.6778 111.947 45.3961 112.044 45.1848 112.238C44.9911 112.431 44.8943 112.722 44.8943 113.109V116.437C44.8943 118.25 44.3749 119.641 43.3361 120.61C42.2973 121.578 40.7655 122.062 38.7407 122.062H36.7863V117.573H37.0504C37.6667 117.573 38.1332 117.414 38.4502 117.097C38.7671 116.78 38.9256 116.331 38.9256 115.75V113.241C38.9256 112.202 39.0928 111.41 39.4273 110.864C39.7619 110.319 40.3077 109.931 41.0648 109.702C40.3077 109.473 39.7619 109.086 39.4273 108.54C39.0928 107.994 38.9256 107.202 38.9256 106.163V103.654C38.9256 103.073 38.7671 102.624 38.4502 102.307C38.1332 101.99 37.6667 101.832 37.0504 101.832H36.7863V97.3423H38.7407C40.7655 97.3423 42.2973 97.8265 43.3361 98.7948C44.3749 99.7632 44.8943 101.154 44.8943 102.968V106.295C44.8943 106.683 44.9911 106.973 45.1848 107.167C45.3961 107.361 45.6778 107.457 46.0299 107.457H46.9015Z" fill="#323247"/>
<path d="M49.7893 96.3317H36.4246V102.702H49.7893V96.3317Z" fill="white"/>
<path d="M49.7893 107.46H36.4246V113.83H49.7893V107.46Z" fill="white"/>
<path d="M49.7893 118.594H36.4246V124.964H49.7893V118.594Z" fill="#EBA154"/>
<path d="M49.7893 129.722H36.4246V136.092H49.7893V129.722Z" fill="#EBA154"/>
<path d="M49.7893 140.85H36.4246V147.22H49.7893V140.85Z" fill="#EBA154"/>
<path d="M49.7893 151.985H36.4246V158.355H49.7893V151.985Z" fill="#EBA154"/>
<path d="M49.7893 163.113H36.4246V169.483H49.7893V163.113Z" fill="#EBA154"/>
<path d="M427.462 221.613C427.462 221.567 427.469 221.528 427.469 221.483C427.469 221.437 427.462 221.398 427.462 221.353C428.126 221.047 428.803 220.696 429.46 220.267C430.169 219.78 430.885 219.221 431.548 218.577L431.405 218.012C431.269 217.368 431.015 216.751 430.794 216.133C430.664 215.834 430.514 215.535 430.371 215.243C430.241 214.937 430.078 214.651 429.896 214.378L429.596 213.878C428.686 213.884 427.768 214.001 426.929 214.157C426.167 214.313 425.432 214.541 424.749 214.801L424.567 214.619C424.821 213.93 425.055 213.202 425.204 212.441C425.367 211.603 425.484 210.68 425.491 209.776L424.99 209.477C424.71 209.295 424.424 209.139 424.118 209.003C423.825 208.86 423.526 208.71 423.22 208.58C422.602 208.353 421.984 208.106 421.346 207.969L420.78 207.826C420.136 208.489 419.576 209.204 419.088 209.913C418.659 210.569 418.307 211.239 418.002 211.908C417.963 211.908 417.917 211.895 417.871 211.895C417.826 211.895 417.787 211.908 417.741 211.908C417.442 211.239 417.084 210.569 416.655 209.913C416.173 209.204 415.607 208.489 414.969 207.826L414.403 207.969C413.753 208.106 413.141 208.359 412.523 208.58C412.224 208.71 411.924 208.86 411.625 209.003C411.326 209.133 411.039 209.295 410.753 209.477L410.252 209.776C410.265 210.686 410.382 211.603 410.538 212.441C410.695 213.202 410.922 213.93 411.183 214.619C411.117 214.684 411.052 214.742 411 214.801C410.311 214.541 409.582 214.313 408.821 214.157C407.981 214.001 407.057 213.884 406.153 213.878L405.847 214.378C405.671 214.658 405.509 214.937 405.372 215.243C405.235 215.535 405.086 215.834 404.956 216.133C404.721 216.751 404.481 217.368 404.344 218.012L404.201 218.577C404.865 219.221 405.58 219.78 406.29 220.267C406.947 220.696 407.617 221.047 408.281 221.353C408.281 221.392 408.274 221.431 408.274 221.483C408.274 221.528 408.281 221.567 408.281 221.613C407.617 221.912 406.94 222.269 406.29 222.698C405.58 223.179 404.865 223.745 404.201 224.382L404.344 224.947C404.481 225.591 404.728 226.208 404.956 226.826C405.086 227.125 405.235 227.424 405.372 227.723C405.509 228.022 405.671 228.308 405.847 228.587L406.153 229.088C407.057 229.081 407.981 228.964 408.821 228.808C409.582 228.652 410.311 228.425 411 228.165C411.059 228.23 411.124 228.295 411.183 228.347C410.922 229.036 410.695 229.764 410.538 230.524C410.382 231.363 410.265 232.286 410.252 233.189L410.753 233.495C411.039 233.67 411.319 233.833 411.625 233.963C411.924 234.106 412.224 234.255 412.523 234.385C413.141 234.619 413.759 234.86 414.403 234.996L414.969 235.139C415.607 234.476 416.173 233.761 416.655 233.053C417.084 232.396 417.442 231.727 417.741 231.057C417.787 231.064 417.826 231.07 417.871 231.07C417.91 231.07 417.956 231.064 418.002 231.057C418.307 231.727 418.659 232.396 419.088 233.053C419.576 233.761 420.136 234.476 420.78 235.139L421.346 234.996C421.99 234.86 422.602 234.613 423.22 234.385C423.526 234.255 423.825 234.106 424.118 233.963C424.417 233.833 424.71 233.67 424.99 233.495L425.491 233.189C425.484 232.286 425.367 231.363 425.204 230.524C425.055 229.764 424.821 229.036 424.567 228.347C424.632 228.288 424.69 228.223 424.749 228.165C425.432 228.425 426.167 228.652 426.929 228.808C427.768 228.964 428.692 229.081 429.596 229.088L429.896 228.587C430.078 228.308 430.241 228.028 430.371 227.723C430.514 227.424 430.664 227.125 430.794 226.826C431.021 226.208 431.269 225.591 431.405 224.947L431.548 224.382C430.885 223.745 430.162 223.179 429.46 222.698C428.803 222.269 428.126 221.912 427.462 221.613ZM417.865 226.065C415.327 226.065 413.271 224.011 413.271 221.476C413.271 218.941 415.327 216.887 417.865 216.887C420.403 216.887 422.459 218.941 422.459 221.476C422.459 224.011 420.403 226.065 417.865 226.065Z" fill="#323247"/>
<path d="M385.267 204.576H379.202V231.857H385.267V204.576Z" fill="#B83D5D"/>
<path d="M376.762 216.595H370.262V231.857H376.762V216.595Z" fill="#64648E"/>
<path d="M367.757 221.476H361.257V231.85H367.757V221.476Z" fill="#FD783D"/>
<path d="M360.105 227.508H358.804" stroke="#FD783D" stroke-miterlimit="10"/>
<path d="M355.505 227.508H350.56" stroke="#FD783D" stroke-miterlimit="10" stroke-dasharray="5.07 5.07"/>
<path d="M348.907 227.508H347.606V228.808" stroke="#FD783D" stroke-miterlimit="10"/>
<path d="M347.606 231.239V249.478" stroke="#FD783D" stroke-miterlimit="10" stroke-dasharray="3.74 3.74"/>
<path d="M347.606 250.694V251.994H348.907" stroke="#FD783D" stroke-miterlimit="10"/>
<path d="M351.12 251.994H358.849" stroke="#FD783D" stroke-miterlimit="10" stroke-dasharray="3.4 3.4"/>
<path d="M359.956 251.994H361.257" stroke="#FD783D" stroke-miterlimit="10"/>
<path d="M380.51 250.778H363.313V253.846H380.51V250.778Z" fill="white"/>
<path d="M375.207 256.459H363.313V259.527H375.207V256.459Z" fill="white"/>
<path d="M378.369 262.14H363.313V265.208H378.369V262.14Z" fill="white"/>
<path d="M385 262.14H381.486V265.208H385V262.14Z" fill="#EBA154"/>
<path d="M401.149 262.14H388.22V265.208H401.149V262.14Z" fill="#EBA154"/>
<path d="M401.149 256.459H379.02V259.527H401.149V256.459Z" fill="#EBA154"/>
<path d="M401.156 250.778H383.959V253.846H401.156V250.778Z" fill="#EBA154"/>
<path d="M460.126 219.812H448.798V225.214H460.126V219.812Z" fill="#B83D5D"/>
<path d="M460.126 229.25H448.798V234.652H460.126V229.25Z" fill="#B83D5D"/>
<path d="M460.126 238.688H448.798V244.09H460.126V238.688Z" fill="#B83D5D"/>
<path d="M460.126 248.126H448.798V253.528H460.126V248.126Z" fill="#B83D5D"/>
<path d="M460.126 257.564H448.798V262.966H460.126V257.564Z" fill="white"/>
<path d="M460.126 267.002H448.798V272.404H460.126V267.002Z" fill="white"/>
<path d="M460.126 276.44H448.798V281.842H460.126V276.44Z" fill="white"/>
<path d="M410.727 297.318C406.491 297.636 402.945 296.629 399.984 294.796C388.032 287.405 385.54 266.566 385.364 265C385.468 265.481 386.646 268.029 399.074 276.381C400.108 277.077 401.052 277.785 401.917 278.5C401.917 278.5 401.93 278.513 401.962 278.533C412.79 287.49 410.727 297.318 410.727 297.318Z" fill="#0C8068"/>
<path d="M385.358 264.909C385.358 264.909 396.516 292.268 408.899 295.154" stroke="#0A6D53" stroke-miterlimit="10"/>
<path opacity="0.5" d="M410.727 297.318C406.491 297.637 402.945 296.629 399.984 294.796C402.366 289.174 401.917 278.501 401.917 278.501C401.917 278.501 401.93 278.514 401.963 278.533C412.79 287.49 410.727 297.318 410.727 297.318Z" fill="#0A6D53"/>
<path d="M442.454 266.528C442.409 266.82 442.239 267.828 441.908 269.316C441.908 269.316 441.908 269.316 441.908 269.323C440.144 277.214 433.781 298.443 416.655 296.311C416.655 296.311 416.369 294.491 416.941 291.761C417.787 287.757 420.514 281.79 428.797 276.785C441.081 269.362 442.324 266.976 442.454 266.528Z" fill="#0C8068"/>
<path d="M441.9 268.211C441.9 268.211 433.11 290.961 417.865 295.596" stroke="#0A6D53" stroke-miterlimit="10"/>
<path opacity="0.5" d="M441.901 269.316C440.137 277.207 433.774 298.436 416.648 296.311C416.648 296.311 416.362 294.491 416.934 291.761H416.954C431.204 292.528 441.901 269.316 441.901 269.316Z" fill="#0A6D53"/>
<path d="M415.731 297.071C415.308 297.806 409.055 295.212 406.237 287.698C404.546 283.187 404.097 276.902 406.888 268.497C414.234 246.436 411.209 242.276 411.117 242.159C411.267 242.231 417.65 245.396 421.762 253.099C421.762 253.099 421.769 253.112 421.782 253.131C426.304 261.627 428.067 275.628 415.731 297.071Z" fill="#159A7A"/>
<path d="M411.111 242.159C411.111 242.159 420.689 254.23 417.039 277.188C413.395 300.146 415.731 297.065 415.731 297.065" stroke="#0C8068" stroke-miterlimit="10"/>
<path opacity="0.5" d="M415.731 297.071C415.308 297.806 409.055 295.212 406.237 287.698C422.003 292.17 421.762 253.105 421.762 253.105C421.762 253.105 421.769 253.118 421.782 253.138C426.304 261.627 428.067 275.628 415.731 297.071Z" fill="#0C8068"/>
<path d="M385.351 264.909C385.351 264.909 385.351 264.935 385.358 264.987C385.351 264.935 385.351 264.909 385.351 264.909Z" fill="#0C8068"/>
<path d="M427.853 296.74V314.374C427.853 319.535 423.669 323.715 418.502 323.715H410.2C406.816 323.715 403.856 321.921 402.216 319.236C401.351 317.819 400.856 316.155 400.856 314.374V296.74H427.853Z" fill="#EBA154"/>
<path d="M428.829 294.452H399.867C399.484 294.452 399.178 294.757 399.178 295.141V296.051C399.178 296.428 399.484 296.74 399.867 296.74H428.829C429.206 296.74 429.518 296.434 429.518 296.051V295.141C429.518 294.764 429.212 294.452 428.829 294.452Z" fill="#EBA154"/>
<path d="M427.853 296.74V314.374C427.853 319.535 423.669 323.715 418.502 323.715H410.2C406.817 323.715 403.856 321.921 402.216 319.236C421.99 325.444 426.284 310.916 425.523 305.151C424.762 299.392 417.637 296.74 417.637 296.74H427.853Z" fill="#DC831E"/>
<path d="M261.363 198.7C264.876 205.392 275.417 205.87 278.931 198.7" stroke="#00023A" stroke-width="3"/>
</g>
<rect x="2.5" y="2.5" width="493" height="330" stroke="white" stroke-opacity="0.5" stroke-width="5"/>
<defs>
<clipPath id="clip0">
<rect x="5" y="5" width="488" height="325" fill="white"/>
</clipPath>
</defs>
</svg>
