<svg width="71" height="70" viewBox="0 0 71 70" fill="none" xmlns="http://www.w3.org/2000/svg">
<g clip-path="url(#clip0)">
<path d="M0.969238 0H70.9842V70H0.969238V0Z" fill="#F7DF1E"/>
<path d="M19.3788 58.497L24.7366 55.2551C25.7704 57.0874 26.7107 58.6378 28.9662 58.6378C31.1282 58.6378 32.4916 57.7924 32.4916 54.5034V32.1368H39.0711V54.5964C39.0711 61.4097 35.0764 64.511 29.2482 64.511C23.9848 64.511 20.9295 61.7856 19.3785 58.4965L19.3788 58.497ZM42.6448 57.7921L48.0021 54.691C49.4125 56.9936 51.2455 58.6851 54.488 58.6851C57.2145 58.6851 58.9529 57.3223 58.9529 55.4427C58.9529 53.1874 57.1669 52.3884 54.159 51.0732L52.5145 50.3677C47.7674 48.3478 44.6187 45.8103 44.6187 40.4537C44.6187 35.5198 48.3784 31.7606 54.2534 31.7606C58.4362 31.7606 61.4441 33.2174 63.6058 37.0234L58.4827 40.3129C57.3545 38.2924 56.1331 37.4937 54.2531 37.4937C52.326 37.4937 51.1041 38.7154 51.1041 40.3129C51.1041 42.2863 52.3261 43.0855 55.1458 44.3072L56.7906 45.0119C62.3836 47.4086 65.5323 49.8517 65.5323 55.3489C65.5323 61.2699 60.8796 64.5118 54.6289 64.5118C48.5193 64.5118 44.5713 61.5986 42.6446 57.7924" fill="black"/>
</g>
<defs>
<clipPath id="clip0">
<rect width="70.015" height="70" fill="white" transform="translate(0.969238)"/>
</clipPath>
</defs>
</svg>
