<svg width="61" height="60" viewBox="0 0 61 60" fill="none" xmlns="http://www.w3.org/2000/svg">
<path d="M5.46923 15.664L30.3 1.32791L55.1307 15.664V44.336L30.3 58.6721L5.46923 44.336V15.664Z" fill="url(#paint0_radial)" stroke="#4381C9" stroke-width="2.3"/>
<path d="M21.7234 35.6255H19.4855L18.5541 41.3926H15.7879L16.7193 35.6255H13.6334V33.0514H17.1363L17.7479 29.3379H14.6759V26.7638H18.1649L19.124 20.9124H21.8763L20.9311 26.7638H23.1691L24.1282 20.9124H26.8944L25.9353 26.7638H29.1463V29.3379H25.5183L24.9066 33.0514H28.0899V35.6255H24.4896L23.5583 41.3926H20.7921L21.7234 35.6255ZM19.9025 33.0514H22.1404L22.7521 29.3379H20.5141L19.9025 33.0514ZM31.2869 41.3926V20.9124H38.5569C41.1609 20.9124 43.1394 21.3953 44.4925 22.3612C45.8546 23.327 46.5358 24.7289 46.5358 26.5669C46.5358 27.6266 46.2948 28.5315 45.8129 29.2817C45.3311 30.0319 44.6221 30.5851 43.6862 30.9415C44.7427 31.2228 45.5535 31.7479 46.1187 32.5169C46.684 33.2858 46.9667 34.2236 46.9667 35.3301C46.9667 37.3368 46.3365 38.8467 45.0762 39.8593C43.8251 40.8627 41.9672 41.3738 39.5022 41.3926H31.2869ZM36.166 32.6857V37.5947H39.3632C40.2435 37.5947 40.9201 37.3931 41.3926 36.99C41.8652 36.5773 42.1015 36.0006 42.1015 35.2598C42.1015 33.5531 41.2628 32.695 39.5856 32.6857H36.166ZM36.166 29.4505H38.7098C39.7755 29.4411 40.5354 29.2442 40.9895 28.8597C41.4435 28.4752 41.6706 27.9079 41.6706 27.1577C41.6706 26.295 41.4251 25.6761 40.934 25.301C40.4428 24.9165 39.6504 24.7243 38.5569 24.7243H36.166V29.4505Z" fill="white"/>
<defs>
<radialGradient id="paint0_radial" cx="0" cy="0" r="1" gradientUnits="userSpaceOnUse" gradientTransform="translate(30.3 30) rotate(90) scale(30)">
<stop offset="0.28125" stop-color="#5476FC"/>
<stop offset="0.651042" stop-color="#52A7FD"/>
<stop offset="1" stop-color="#50EAFF"/>
</radialGradient>
</defs>
</svg>
