<svg width="1440" height="442" viewBox="0 0 1440 442" fill="none" xmlns="http://www.w3.org/2000/svg">
<g filter="url(#filter0_d)">
<path d="M92.501 212.179L77.4144 203.445L62.3278 212.179V229.647L77.4144 238.381L92.501 229.756V212.179Z" fill="black" stroke="#000641"/>
<path d="M816.658 212.179L801.571 203.445L786.484 212.179V229.647L801.571 238.381L816.658 229.756V212.179Z" fill="black" stroke="#000641"/>
<path d="M183.02 212.179L167.934 203.445L152.847 212.179V229.647L167.934 238.381L183.02 229.756V212.179Z" fill="black" stroke="#000641"/>
<path d="M907.179 212.179L892.092 203.445L877.006 212.179V229.647L892.092 238.381L907.179 229.756V212.179Z" fill="black" stroke="#000641"/>
<path d="M122.674 212.179L107.587 203.445L92.5009 212.179V229.647L107.587 238.381L122.674 229.756V212.179Z" fill="black" stroke="#000641"/>
<path d="M846.83 212.179L831.744 203.445L816.657 212.179V229.647L831.744 238.381L846.83 229.756V212.179Z" fill="black" stroke="#000641"/>
<path d="M213.195 212.179L198.108 203.445L183.021 212.179V229.647L198.108 238.381L213.195 229.756V212.179Z" fill="black" stroke="#000641"/>
<path d="M937.352 212.179L922.266 203.445L907.179 212.179V229.647L922.266 238.381L937.352 229.756V212.179Z" fill="black" stroke="#000641"/>
<path d="M62.3282 212.179L47.2416 203.445L32.155 212.179V229.647L47.2416 238.381L62.3282 229.756V212.179Z" fill="black" stroke="#000641"/>
<path d="M32.155 212.179L17.0684 203.445L1.98175 212.179V229.647L17.0684 238.381L32.155 229.756V212.179Z" fill="black" stroke="#000641"/>
<path d="M2.17321 212.179L-12.9134 203.445L-28 212.179V229.647L-12.9134 238.381L2.17321 229.756V212.179Z" fill="black" stroke="#000641"/>
<path d="M786.486 212.179L771.399 203.445L756.312 212.179V229.647L771.399 238.381L786.486 229.756V212.179Z" fill="black" stroke="#000641"/>
<path d="M152.849 212.179L137.762 203.445L122.675 212.179V229.647L137.762 238.381L152.849 229.756V212.179Z" fill="black" stroke="#000641"/>
<path d="M877.005 212.179L861.918 203.445L846.831 212.179V229.647L861.918 238.381L877.005 229.756V212.179Z" fill="black" stroke="#000641"/>
<path d="M273.541 212.179L258.454 203.445L243.367 212.179V229.647L258.454 238.381L273.541 229.756V212.179Z" fill="black" stroke="#000641"/>
<path d="M997.697 212.179L982.61 203.445L967.524 212.179V229.647L982.61 238.381L997.697 229.756V212.179Z" fill="black" stroke="#000641"/>
<path d="M364.061 212.179L348.974 203.445L333.888 212.179V229.647L348.974 238.381L364.061 229.756V212.179Z" fill="black" stroke="#000641"/>
<path d="M1088.22 212.179L1073.13 203.445L1058.04 212.179V229.647L1073.13 238.381L1088.22 229.756V212.179Z" fill="black" stroke="#000641"/>
<path d="M303.714 212.179L288.627 203.445L273.54 212.179V229.647L288.627 238.381L303.714 229.756V212.179Z" fill="black" stroke="#000641"/>
<path d="M1027.87 212.179L1012.78 203.445L997.697 212.179V229.647L1012.78 238.381L1027.87 229.756V212.179Z" fill="black" stroke="#000641"/>
<path d="M394.233 212.179L379.146 203.445L364.06 212.179V229.647L379.146 238.381L394.233 229.756V212.179Z" fill="black" stroke="#000641"/>
<path d="M1118.39 212.179L1103.3 203.445L1088.22 212.179V229.647L1103.3 238.381L1118.39 229.756V212.179Z" fill="black" stroke="#000641"/>
<path d="M243.368 212.179L228.281 203.445L213.195 212.179V229.647L228.281 238.381L243.368 229.756V212.179Z" fill="black" stroke="#000641"/>
<path d="M967.525 212.179L952.439 203.445L937.352 212.179V229.647L952.439 238.381L967.525 229.756V212.179Z" fill="black" stroke="#000641"/>
<path d="M333.887 212.179L318.8 203.445L303.714 212.179V229.647L318.8 238.381L333.887 229.756V212.179Z" fill="black" stroke="#000641"/>
<path d="M1058.05 212.179L1042.96 203.445L1027.87 212.179V229.647L1042.96 238.381L1058.05 229.756V212.179Z" fill="black" stroke="#000641"/>
<path d="M454.579 212.179L439.493 203.445L424.406 212.179V229.647L439.493 238.381L454.579 229.756V212.179Z" fill="black" stroke="#000641"/>
<path d="M1178.74 212.179L1163.65 203.445L1148.56 212.179V229.647L1163.65 238.381L1178.74 229.756V212.179Z" fill="black" stroke="#000641"/>
<path d="M545.1 212.179L530.013 203.445L514.926 212.179V229.647L530.013 238.381L545.1 229.756V212.179Z" fill="black" stroke="#000641"/>
<path d="M1269.26 212.179L1254.17 203.445L1239.08 212.179V229.647L1254.17 238.381L1269.26 229.756V212.179Z" fill="black" stroke="#000641"/>
<path d="M484.753 212.179L469.667 203.445L454.58 212.179V229.647L469.667 238.381L484.753 229.756V212.179Z" fill="black" stroke="#000641"/>
<path d="M1208.91 212.179L1193.82 203.445L1178.74 212.179V229.647L1193.82 238.381L1208.91 229.756V212.179Z" fill="black" stroke="#000641"/>
<path d="M575.273 212.179L560.186 203.445L545.099 212.179V229.647L560.186 238.381L575.273 229.756V212.179Z" fill="black" stroke="#000641"/>
<path d="M1299.43 212.179L1284.34 203.445L1269.26 212.179V229.647L1284.34 238.381L1299.43 229.756V212.179Z" fill="black" stroke="#000641"/>
<path d="M424.407 212.179L409.32 203.445L394.233 212.179V229.647L409.32 238.381L424.407 229.756V212.179Z" fill="black" stroke="#000641"/>
<path d="M1148.56 212.179L1133.48 203.445L1118.39 212.179V229.647L1133.48 238.381L1148.56 229.756V212.179Z" fill="black" stroke="#000641"/>
<path d="M514.927 212.179L499.84 203.445L484.753 212.179V229.647L499.84 238.381L514.927 229.756V212.179Z" fill="black" stroke="#000641"/>
<path d="M1239.08 212.179L1224 203.445L1208.91 212.179V229.647L1224 238.381L1239.08 229.756V212.179Z" fill="black" stroke="#000641"/>
<path d="M635.62 212.179L620.533 203.445L605.447 212.179V229.647L620.533 238.381L635.62 229.756V212.179Z" fill="black" stroke="#000641"/>
<path d="M1359.78 212.179L1344.69 203.445L1329.6 212.179V229.647L1344.69 238.381L1359.78 229.756V212.179Z" fill="black" stroke="#000641"/>
<path d="M726.138 212.179L711.051 203.445L695.964 212.179V229.647L711.051 238.381L726.138 229.756V212.179Z" fill="black" stroke="#000641"/>
<path d="M665.792 212.179L650.705 203.445L635.619 212.179V229.647L650.705 238.381L665.792 229.756V212.179Z" fill="black" stroke="#000641"/>
<path d="M1389.95 212.179L1374.86 203.445L1359.78 212.179V229.647L1374.86 238.381L1389.95 229.756V212.179Z" fill="black" stroke="#000641"/>
<path d="M756.313 212.179L741.226 203.445L726.139 212.179V229.647L741.226 238.381L756.313 229.756V212.179Z" fill="black" stroke="#000641"/>
<path d="M605.446 212.179L590.359 203.445L575.272 212.179V229.647L590.359 238.381L605.446 229.756V212.179Z" fill="black" stroke="#000641"/>
<path d="M1329.6 212.179L1314.52 203.445L1299.43 212.179V229.647L1314.52 238.381L1329.6 229.756V212.179Z" fill="black" stroke="#000641"/>
<path d="M695.967 212.179L680.88 203.445L665.794 212.179V229.647L680.88 238.381L695.967 229.756V212.179Z" fill="black" stroke="#000641"/>
<path d="M1420.12 212.179L1405.04 203.445L1389.95 212.179V229.647L1405.04 238.381L1420.12 229.756V212.179Z" fill="black" stroke="#000641"/>
<path d="M1450.1 212.179L1435.02 203.445L1419.93 212.179V229.647L1435.02 238.381L1450.1 229.756V212.179Z" fill="black" stroke="#000641"/>
<path d="M77.415 186.772L62.3284 178.038L47.2418 186.772V204.239L62.3284 212.973L77.415 204.349V186.772Z" fill="black" stroke="#000641"/>
<path d="M77.415 237.587L62.3284 228.853L47.2418 237.587V255.055L62.3284 263.789L77.415 255.164V237.587Z" fill="black" stroke="#000641"/>
<path d="M801.572 186.772L786.485 178.038L771.398 186.772V204.239L786.485 212.973L801.572 204.349V186.772Z" fill="black" stroke="#000641"/>
<path d="M801.572 237.587L786.485 228.853L771.398 237.587V255.055L786.485 263.789L801.572 255.164V237.587Z" fill="black" stroke="#000641"/>
<path d="M167.934 186.772L152.848 178.038L137.761 186.772V204.239L152.848 212.973L167.934 204.349V186.772Z" fill="black" stroke="#000641"/>
<path d="M167.934 237.587L152.848 228.853L137.761 237.587V255.055L152.848 263.789L167.934 255.164V237.587Z" fill="black" stroke="#000641"/>
<path d="M892.092 186.772L877.005 178.038L861.918 186.772V204.239L877.005 212.973L892.092 204.349V186.772Z" fill="black" stroke="#000641"/>
<path d="M892.092 237.587L877.005 228.853L861.918 237.587V255.055L877.005 263.789L892.092 255.164V237.587Z" fill="black" stroke="#000641"/>
<path d="M107.588 186.772L92.5018 178.038L77.4152 186.772V204.239L92.5018 212.973L107.588 204.349V186.772Z" fill="black" stroke="#000641"/>
<path d="M107.588 237.587L92.5018 228.853L77.4152 237.587V255.055L92.5018 263.789L107.588 255.164V237.587Z" fill="black" stroke="#000641"/>
<path d="M831.745 186.772L816.659 178.038L801.572 186.772V204.239L816.659 212.973L831.745 204.349V186.772Z" fill="black" stroke="#000641"/>
<path d="M831.745 237.587L816.659 228.853L801.572 237.587V255.055L816.659 263.789L831.745 255.164V237.587Z" fill="black" stroke="#000641"/>
<path d="M198.108 186.772L183.021 178.038L167.934 186.772V204.239L183.021 212.973L198.108 204.349V186.772Z" fill="black" stroke="#000641"/>
<path d="M198.108 237.587L183.021 228.853L167.934 237.587V255.055L183.021 263.789L198.108 255.164V237.587Z" fill="black" stroke="#000641"/>
<path d="M922.263 186.772L907.177 178.038L892.09 186.772V204.239L907.177 212.973L922.263 204.349V186.772Z" fill="black" stroke="#000641"/>
<path d="M922.263 237.587L907.177 228.853L892.09 237.587V255.055L907.177 263.789L922.263 255.164V237.587Z" fill="black" stroke="#000641"/>
<path d="M47.2415 186.772L32.1548 178.038L17.0682 186.772V204.239L32.1548 212.973L47.2415 204.349V186.772Z" fill="black" stroke="#000641"/>
<path d="M17.2597 186.772L2.17306 178.038L-12.9135 186.772V204.239L2.17306 212.973L17.2597 204.349V186.772Z" fill="black" stroke="#000641"/>
<path d="M47.2415 237.587L32.1548 228.853L17.0682 237.587V255.055L32.1548 263.789L47.2415 255.164V237.587Z" fill="black" stroke="#000641"/>
<path d="M17.2597 237.587L2.17306 228.853L-12.9135 237.587V255.055L2.17306 263.789L17.2597 255.164V237.587Z" fill="black" stroke="#000641"/>
<path d="M771.398 186.772L756.311 178.038L741.224 186.772V204.239L756.311 212.973L771.398 204.349V186.772Z" fill="black" stroke="#000641"/>
<path d="M771.398 237.587L756.311 228.853L741.224 237.587V255.055L756.311 263.789L771.398 255.164V237.587Z" fill="black" stroke="#000641"/>
<path d="M137.761 186.772L122.675 178.038L107.588 186.772V204.239L122.675 212.973L137.761 204.349V186.772Z" fill="black" stroke="#000641"/>
<path d="M137.761 237.587L122.675 228.853L107.588 237.587V255.055L122.675 263.789L137.761 255.164V237.587Z" fill="black" stroke="#000641"/>
<path d="M861.92 186.772L846.833 178.038L831.747 186.772V204.239L846.833 212.973L861.92 204.349V186.772Z" fill="black" stroke="#000641"/>
<path d="M861.92 237.587L846.833 228.853L831.747 237.587V255.055L846.833 263.789L861.92 255.164V237.587Z" fill="black" stroke="#000641"/>
<path d="M258.454 186.772L243.367 178.038L228.28 186.772V204.239L243.367 212.973L258.454 204.349V186.772Z" fill="black" stroke="#000641"/>
<path d="M258.454 237.587L243.367 228.853L228.28 237.587V255.055L243.367 263.789L258.454 255.164V237.587Z" fill="black" stroke="#000641"/>
<path d="M982.611 186.772L967.525 178.038L952.438 186.772V204.239L967.525 212.973L982.611 204.349V186.772Z" fill="black" stroke="#000641"/>
<path d="M982.611 237.587L967.525 228.853L952.438 237.587V255.055L967.525 263.789L982.611 255.164V237.587Z" fill="black" stroke="#000641"/>
<path d="M348.974 186.772L333.888 178.038L318.801 186.772V204.239L333.888 212.973L348.974 204.349V186.772Z" fill="black" stroke="#000641"/>
<path d="M348.974 237.587L333.888 228.853L318.801 237.587V255.055L333.888 263.789L348.974 255.164V237.587Z" fill="black" stroke="#000641"/>
<path d="M1073.13 186.772L1058.04 178.038L1042.96 186.772V204.239L1058.04 212.973L1073.13 204.349V186.772Z" fill="black" stroke="#000641"/>
<path d="M1073.13 237.587L1058.04 228.853L1042.96 237.587V255.055L1058.04 263.789L1073.13 255.164V237.587Z" fill="black" stroke="#000641"/>
<path d="M288.628 186.772L273.541 178.038L258.455 186.772V204.239L273.541 212.973L288.628 204.349V186.772Z" fill="black" stroke="#000641"/>
<path d="M288.628 237.587L273.541 228.853L258.455 237.587V255.055L273.541 263.789L288.628 255.164V237.587Z" fill="black" stroke="#000641"/>
<path d="M1012.78 186.772L997.697 178.038L982.61 186.772V204.239L997.697 212.973L1012.78 204.349V186.772Z" fill="black" stroke="#000641"/>
<path d="M1012.78 237.587L997.697 228.853L982.61 237.587V255.055L997.697 263.789L1012.78 255.164V237.587Z" fill="black" stroke="#000641"/>
<path d="M379.147 186.772L364.06 178.038L348.974 186.772V204.239L364.06 212.973L379.147 204.349V186.772Z" fill="black" stroke="#000641"/>
<path d="M379.147 237.587L364.06 228.853L348.974 237.587V255.055L364.06 263.789L379.147 255.164V237.587Z" fill="black" stroke="#000641"/>
<path d="M1103.3 186.772L1088.22 178.038L1073.13 186.772V204.239L1088.22 212.973L1103.3 204.349V186.772Z" fill="black" stroke="#000641"/>
<path d="M1103.3 237.587L1088.22 228.853L1073.13 237.587V255.055L1088.22 263.789L1103.3 255.164V237.587Z" fill="black" stroke="#000641"/>
<path d="M228.28 186.772L213.193 178.038L198.107 186.772V204.239L213.193 212.973L228.28 204.349V186.772Z" fill="black" stroke="#000641"/>
<path d="M228.28 237.587L213.193 228.853L198.107 237.587V255.055L213.193 263.789L228.28 255.164V237.587Z" fill="black" stroke="#000641"/>
<path d="M952.438 186.772L937.351 178.038L922.264 186.772V204.239L937.351 212.973L952.438 204.349V186.772Z" fill="black" stroke="#000641"/>
<path d="M952.438 237.587L937.351 228.853L922.264 237.587V255.055L937.351 263.789L952.438 255.164V237.587Z" fill="black" stroke="#000641"/>
<path d="M318.799 186.772L303.713 178.038L288.626 186.772V204.239L303.713 212.973L318.799 204.349V186.772Z" fill="black" stroke="#000641"/>
<path d="M318.799 237.587L303.713 228.853L288.626 237.587V255.055L303.713 263.789L318.799 255.164V237.587Z" fill="black" stroke="#000641"/>
<path d="M1042.96 186.772L1027.87 178.038L1012.78 186.772V204.239L1027.87 212.973L1042.96 204.349V186.772Z" fill="black" stroke="#000641"/>
<path d="M1042.96 237.587L1027.87 228.853L1012.78 237.587V255.055L1027.87 263.789L1042.96 255.164V237.587Z" fill="black" stroke="#000641"/>
<path d="M439.493 186.772L424.407 178.038L409.32 186.772V204.239L424.407 212.973L439.493 204.349V186.772Z" fill="black" stroke="#000641"/>
<path d="M439.493 237.587L424.407 228.853L409.32 237.587V255.055L424.407 263.789L439.493 255.164V237.587Z" fill="black" stroke="#000641"/>
<path d="M1163.65 186.772L1148.56 178.038L1133.48 186.772V204.239L1148.56 212.973L1163.65 204.349V186.772Z" fill="black" stroke="#000641"/>
<path d="M1163.65 237.587L1148.56 228.853L1133.48 237.587V255.055L1148.56 263.789L1163.65 255.164V237.587Z" fill="black" stroke="#000641"/>
<path d="M530.012 186.772L514.926 178.038L499.839 186.772V204.239L514.926 212.973L530.012 204.349V186.772Z" fill="black" stroke="#000641"/>
<path d="M530.012 237.587L514.926 228.853L499.839 237.587V255.055L514.926 263.789L530.012 255.164V237.587Z" fill="black" stroke="#000641"/>
<path d="M1254.17 186.772L1239.08 178.038L1224 186.772V204.239L1239.08 212.973L1254.17 204.349V186.772Z" fill="black" stroke="#000641"/>
<path d="M1254.17 237.587L1239.08 228.853L1224 237.587V255.055L1239.08 263.789L1254.17 255.164V237.587Z" fill="black" stroke="#000641"/>
<path d="M469.666 186.772L454.58 178.038L439.493 186.772V204.239L454.58 212.973L469.666 204.349V186.772Z" fill="black" stroke="#000641"/>
<path d="M469.666 237.587L454.58 228.853L439.493 237.587V255.055L454.58 263.789L469.666 255.164V237.587Z" fill="black" stroke="#000641"/>
<path d="M1193.82 186.772L1178.74 178.038L1163.65 186.772V204.239L1178.74 212.973L1193.82 204.349V186.772Z" fill="black" stroke="#000641"/>
<path d="M1193.82 237.587L1178.74 228.853L1163.65 237.587V255.055L1178.74 263.789L1193.82 255.164V237.587Z" fill="black" stroke="#000641"/>
<path d="M560.187 186.772L545.1 178.038L530.013 186.772V204.239L545.1 212.973L560.187 204.349V186.772Z" fill="black" stroke="#000641"/>
<path d="M560.187 237.587L545.1 228.853L530.013 237.587V255.055L545.1 263.789L560.187 255.164V237.587Z" fill="black" stroke="#000641"/>
<path d="M1284.34 186.772L1269.26 178.038L1254.17 186.772V204.239L1269.26 212.973L1284.34 204.349V186.772Z" fill="black" stroke="#000641"/>
<path d="M1284.34 237.587L1269.26 228.853L1254.17 237.587V255.055L1269.26 263.789L1284.34 255.164V237.587Z" fill="black" stroke="#000641"/>
<path d="M409.32 186.772L394.233 178.038L379.147 186.772V204.239L394.233 212.973L409.32 204.349V186.772Z" fill="black" stroke="#000641"/>
<path d="M409.32 237.587L394.233 228.853L379.147 237.587V255.055L394.233 263.789L409.32 255.164V237.587Z" fill="black" stroke="#000641"/>
<path d="M1133.48 186.772L1118.39 178.038L1103.3 186.772V204.239L1118.39 212.973L1133.48 204.349V186.772Z" fill="black" stroke="#000641"/>
<path d="M1133.48 237.587L1118.39 228.853L1103.3 237.587V255.055L1118.39 263.789L1133.48 255.164V237.587Z" fill="black" stroke="#000641"/>
<path d="M499.84 186.772L484.754 178.038L469.667 186.772V204.239L484.754 212.973L499.84 204.349V186.772Z" fill="black" stroke="#000641"/>
<path d="M499.84 237.587L484.754 228.853L469.667 237.587V255.055L484.754 263.789L499.84 255.164V237.587Z" fill="black" stroke="#000641"/>
<path d="M1224 186.772L1208.91 178.038L1193.82 186.772V204.239L1208.91 212.973L1224 204.349V186.772Z" fill="black" stroke="#000641"/>
<path d="M1224 237.587L1208.91 228.853L1193.82 237.587V255.055L1208.91 263.789L1224 255.164V237.587Z" fill="black" stroke="#000641"/>
<path d="M620.533 186.772L605.446 178.038L590.359 186.772V204.239L605.446 212.973L620.533 204.349V186.772Z" fill="black" stroke="#000641"/>
<path d="M620.533 237.587L605.446 228.853L590.359 237.587V255.055L605.446 263.789L620.533 255.164V237.587Z" fill="black" stroke="#000641"/>
<path d="M1344.69 186.772L1329.6 178.038L1314.52 186.772V204.239L1329.6 212.973L1344.69 204.349V186.772Z" fill="black" stroke="#000641"/>
<path d="M1344.69 237.587L1329.6 228.853L1314.52 237.587V255.055L1329.6 263.789L1344.69 255.164V237.587Z" fill="black" stroke="#000641"/>
<path d="M711.053 186.772L695.966 178.038L680.88 186.772V204.239L695.966 212.973L711.053 204.349V186.772Z" fill="black" stroke="#000641"/>
<path d="M711.053 237.587L695.966 228.853L680.88 237.587V255.055L695.966 263.789L711.053 255.164V237.587Z" fill="black" stroke="#000641"/>
<path d="M650.705 186.772L635.619 178.038L620.532 186.772V204.239L635.619 212.973L650.705 204.349V186.772Z" fill="black" stroke="#000641"/>
<path d="M650.705 237.587L635.619 228.853L620.532 237.587V255.055L635.619 263.789L650.705 255.164V237.587Z" fill="black" stroke="#000641"/>
<path d="M1374.86 186.772L1359.78 178.038L1344.69 186.772V204.239L1359.78 212.973L1374.86 204.349V186.772Z" fill="black" stroke="#000641"/>
<path d="M1374.86 237.587L1359.78 228.853L1344.69 237.587V255.055L1359.78 263.789L1374.86 255.164V237.587Z" fill="black" stroke="#000641"/>
<path d="M741.225 186.772L726.138 178.038L711.052 186.772V204.239L726.138 212.973L741.225 204.349V186.772Z" fill="black" stroke="#000641"/>
<path d="M741.225 237.587L726.138 228.853L711.052 237.587V255.055L726.138 263.789L741.225 255.164V237.587Z" fill="black" stroke="#000641"/>
<path d="M590.36 186.772L575.273 178.038L560.186 186.772V204.239L575.273 212.973L590.36 204.349V186.772Z" fill="black" stroke="#000641"/>
<path d="M590.36 237.587L575.273 228.853L560.186 237.587V255.055L575.273 263.789L590.36 255.164V237.587Z" fill="black" stroke="#000641"/>
<path d="M1314.52 186.772L1299.43 178.038L1284.34 186.772V204.239L1299.43 212.973L1314.52 204.349V186.772Z" fill="black" stroke="#000641"/>
<path d="M1314.52 237.587L1299.43 228.853L1284.34 237.587V255.055L1299.43 263.789L1314.52 255.164V237.587Z" fill="black" stroke="#000641"/>
<path d="M680.879 186.772L665.792 178.038L650.705 186.772V204.239L665.792 212.973L680.879 204.349V186.772Z" fill="black" stroke="#000641"/>
<path d="M680.879 237.587L665.792 228.853L650.705 237.587V255.055L665.792 263.789L680.879 255.164V237.587Z" fill="black" stroke="#000641"/>
<path d="M1405.03 186.772L1389.95 178.038L1374.86 186.772V204.239L1389.95 212.973L1405.03 204.349V186.772Z" fill="black" stroke="#000641"/>
<path d="M1435.02 186.772L1419.93 178.038L1404.84 186.772V204.239L1419.93 212.973L1435.02 204.349V186.772Z" fill="black" stroke="#000641"/>
<path d="M1465 186.772L1449.91 178.038L1434.82 186.772V204.239L1449.91 212.973L1465 204.349V186.772Z" fill="black" stroke="#000641"/>
<path d="M1405.03 237.587L1389.95 228.853L1374.86 237.587V255.055L1389.95 263.789L1405.03 255.164V237.587Z" fill="black" stroke="#000641"/>
<path d="M1435.02 237.587L1419.93 228.853L1404.84 237.587V255.055L1419.93 263.789L1435.02 255.164V237.587Z" fill="black" stroke="#000641"/>
<path d="M1465 237.587L1449.91 228.853L1434.82 237.587V255.055L1449.91 263.789L1465 255.164V237.587Z" fill="black" stroke="#000641"/>
<path d="M92.501 161.364L77.4144 152.63L62.3278 161.364V178.832L77.4144 187.566L92.501 178.941V161.364Z" fill="black" stroke="#000641"/>
<path d="M816.658 161.364L801.571 152.63L786.484 161.364V178.832L801.571 187.566L816.658 178.941V161.364Z" fill="black" stroke="#000641"/>
<path d="M183.02 161.364L167.934 152.63L152.847 161.364V178.832L167.934 187.566L183.02 178.941V161.364Z" fill="black" stroke="#000641"/>
<path d="M907.179 161.364L892.092 152.63L877.006 161.364V178.832L892.092 187.566L907.179 178.941V161.364Z" fill="black" stroke="#000641"/>
<path d="M122.674 161.364L107.587 152.63L92.5009 161.364V178.832L107.587 187.566L122.674 178.941V161.364Z" fill="black" stroke="#000641"/>
<path d="M846.83 161.364L831.744 152.63L816.657 161.364V178.832L831.744 187.566L846.83 178.941V161.364Z" fill="black" stroke="#000641"/>
<path d="M213.195 161.364L198.108 152.63L183.021 161.364V178.832L198.108 187.566L213.195 178.941V161.364Z" fill="black" stroke="#000641"/>
<path d="M937.352 161.364L922.266 152.63L907.179 161.364V178.832L922.266 187.566L937.352 178.941V161.364Z" fill="black" stroke="#000641"/>
<path d="M62.3282 161.364L47.2416 152.63L32.155 161.364V178.832L47.2416 187.566L62.3282 178.941V161.364Z" fill="black" stroke="#000641"/>
<path d="M32.155 161.364L17.0684 152.63L1.98175 161.364V178.832L17.0684 187.566L32.155 178.941V161.364Z" fill="black" stroke="#000641"/>
<path d="M2.17321 161.364L-12.9134 152.63L-28 161.364V178.832L-12.9134 187.566L2.17321 178.941V161.364Z" fill="black" stroke="#000641"/>
<path d="M786.486 161.364L771.399 152.63L756.312 161.364V178.832L771.399 187.566L786.486 178.941V161.364Z" fill="black" stroke="#000641"/>
<path d="M152.849 161.364L137.762 152.63L122.675 161.364V178.832L137.762 187.566L152.849 178.941V161.364Z" fill="black" stroke="#000641"/>
<path d="M877.005 161.364L861.918 152.63L846.831 161.364V178.832L861.918 187.566L877.005 178.941V161.364Z" fill="black" stroke="#000641"/>
<path d="M273.541 161.364L258.454 152.63L243.367 161.364V178.832L258.454 187.566L273.541 178.941V161.364Z" fill="black" stroke="#000641"/>
<path d="M997.697 161.364L982.61 152.63L967.524 161.364V178.832L982.61 187.566L997.697 178.941V161.364Z" fill="black" stroke="#000641"/>
<path d="M364.061 161.364L348.974 152.63L333.888 161.364V178.832L348.974 187.566L364.061 178.941V161.364Z" fill="black" stroke="#000641"/>
<path d="M1088.22 161.364L1073.13 152.63L1058.04 161.364V178.832L1073.13 187.566L1088.22 178.941V161.364Z" fill="black" stroke="#000641"/>
<path d="M303.714 161.364L288.627 152.63L273.54 161.364V178.832L288.627 187.566L303.714 178.941V161.364Z" fill="black" stroke="#000641"/>
<path d="M1027.87 161.364L1012.78 152.63L997.697 161.364V178.832L1012.78 187.566L1027.87 178.941V161.364Z" fill="black" stroke="#000641"/>
<path d="M394.233 161.364L379.146 152.63L364.06 161.364V178.832L379.146 187.566L394.233 178.941V161.364Z" fill="black" stroke="#000641"/>
<path d="M1118.39 161.364L1103.3 152.63L1088.22 161.364V178.832L1103.3 187.566L1118.39 178.941V161.364Z" fill="black" stroke="#000641"/>
<path d="M243.368 161.364L228.281 152.63L213.195 161.364V178.832L228.281 187.566L243.368 178.941V161.364Z" fill="black" stroke="#000641"/>
<path d="M967.525 161.364L952.439 152.63L937.352 161.364V178.832L952.439 187.566L967.525 178.941V161.364Z" fill="black" stroke="#000641"/>
<path d="M333.887 161.364L318.8 152.63L303.714 161.364V178.832L318.8 187.566L333.887 178.941V161.364Z" fill="black" stroke="#000641"/>
<path d="M1058.05 161.364L1042.96 152.63L1027.87 161.364V178.832L1042.96 187.566L1058.05 178.941V161.364Z" fill="black" stroke="#000641"/>
<path d="M454.579 161.364L439.493 152.63L424.406 161.364V178.832L439.493 187.566L454.579 178.941V161.364Z" fill="black" stroke="#000641"/>
<path d="M1178.74 161.364L1163.65 152.63L1148.56 161.364V178.832L1163.65 187.566L1178.74 178.941V161.364Z" fill="black" stroke="#000641"/>
<path d="M545.1 161.364L530.013 152.63L514.926 161.364V178.832L530.013 187.566L545.1 178.941V161.364Z" fill="black" stroke="#000641"/>
<path d="M1269.26 161.364L1254.17 152.63L1239.08 161.364V178.832L1254.17 187.566L1269.26 178.941V161.364Z" fill="black" stroke="#000641"/>
<path d="M484.753 161.364L469.667 152.63L454.58 161.364V178.832L469.667 187.566L484.753 178.941V161.364Z" fill="black" stroke="#000641"/>
<path d="M1208.91 161.364L1193.82 152.63L1178.74 161.364V178.832L1193.82 187.566L1208.91 178.941V161.364Z" fill="black" stroke="#000641"/>
<path d="M575.273 161.364L560.186 152.63L545.099 161.364V178.832L560.186 187.566L575.273 178.941V161.364Z" fill="black" stroke="#000641"/>
<path d="M1299.43 161.364L1284.34 152.63L1269.26 161.364V178.832L1284.34 187.566L1299.43 178.941V161.364Z" fill="black" stroke="#000641"/>
<path d="M424.407 161.364L409.32 152.63L394.233 161.364V178.832L409.32 187.566L424.407 178.941V161.364Z" fill="black" stroke="#000641"/>
<path d="M1148.56 161.364L1133.48 152.63L1118.39 161.364V178.832L1133.48 187.566L1148.56 178.941V161.364Z" fill="black" stroke="#000641"/>
<path d="M514.927 161.364L499.84 152.63L484.753 161.364V178.832L499.84 187.566L514.927 178.941V161.364Z" fill="black" stroke="#000641"/>
<path d="M1239.08 161.364L1224 152.63L1208.91 161.364V178.832L1224 187.566L1239.08 178.941V161.364Z" fill="black" stroke="#000641"/>
<path d="M635.62 161.364L620.533 152.63L605.447 161.364V178.832L620.533 187.566L635.62 178.941V161.364Z" fill="black" stroke="#000641"/>
<path d="M1359.78 161.364L1344.69 152.63L1329.6 161.364V178.832L1344.69 187.566L1359.78 178.941V161.364Z" fill="black" stroke="#000641"/>
<path d="M726.138 161.364L711.051 152.63L695.964 161.364V178.832L711.051 187.566L726.138 178.941V161.364Z" fill="black" stroke="#000641"/>
<path d="M665.792 161.364L650.705 152.63L635.619 161.364V178.832L650.705 187.566L665.792 178.941V161.364Z" fill="black" stroke="#000641"/>
<path d="M1389.95 161.364L1374.86 152.63L1359.78 161.364V178.832L1374.86 187.566L1389.95 178.941V161.364Z" fill="black" stroke="#000641"/>
<path d="M756.313 161.364L741.226 152.63L726.139 161.364V178.832L741.226 187.566L756.313 178.941V161.364Z" fill="black" stroke="#000641"/>
<path d="M605.446 161.364L590.359 152.63L575.272 161.364V178.832L590.359 187.566L605.446 178.941V161.364Z" fill="black" stroke="#000641"/>
<path d="M1329.6 161.364L1314.52 152.63L1299.43 161.364V178.832L1314.52 187.566L1329.6 178.941V161.364Z" fill="black" stroke="#000641"/>
<path d="M695.967 161.364L680.88 152.63L665.794 161.364V178.832L680.88 187.566L695.967 178.941V161.364Z" fill="black" stroke="#000641"/>
<path d="M1420.12 161.364L1405.04 152.63L1389.95 161.364V178.832L1405.04 187.566L1420.12 178.941V161.364Z" fill="black" stroke="#000641"/>
<path d="M1450.1 161.364L1435.02 152.63L1419.93 161.364V178.832L1435.02 187.566L1450.1 178.941V161.364Z" fill="black" stroke="#000641"/>
<path d="M77.415 135.957L62.3284 127.223L47.2418 135.957V153.424L62.3284 162.158L77.415 153.534V135.957Z" fill="black" stroke="#000641"/>
<path d="M801.572 135.957L786.485 127.223L771.398 135.957V153.424L786.485 162.158L801.572 153.534V135.957Z" fill="black" stroke="#000641"/>
<path d="M167.934 135.957L152.848 127.223L137.761 135.957V153.424L152.848 162.158L167.934 153.534V135.957Z" fill="black" stroke="#000641"/>
<path d="M892.092 135.957L877.005 127.223L861.918 135.957V153.424L877.005 162.158L892.092 153.534V135.957Z" fill="black" stroke="#000641"/>
<path d="M107.588 135.957L92.5018 127.223L77.4152 135.957V153.424L92.5018 162.158L107.588 153.534V135.957Z" fill="black" stroke="#000641"/>
<path d="M831.745 135.957L816.659 127.223L801.572 135.957V153.424L816.659 162.158L831.745 153.534V135.957Z" fill="black" stroke="#000641"/>
<path d="M198.108 135.957L183.021 127.223L167.934 135.957V153.424L183.021 162.158L198.108 153.534V135.957Z" fill="black" stroke="#000641"/>
<path d="M47.2415 135.957L32.1548 127.223L17.0682 135.957V153.424L32.1548 162.158L47.2415 153.534V135.957Z" fill="black" stroke="#000641"/>
<path d="M17.2597 135.957L2.17306 127.223L-12.9135 135.957V153.424L2.17306 162.158L17.2597 153.534V135.957Z" fill="black" stroke="#000641"/>
<path d="M771.398 135.957L756.311 127.223L741.224 135.957V153.424L756.311 162.158L771.398 153.534V135.957Z" fill="black" stroke="#000641"/>
<path d="M861.92 135.957L846.833 127.223L831.747 135.957V153.424L846.833 162.158L861.92 153.534V135.957Z" fill="black" stroke="#000641"/>
<path d="M258.454 135.957L243.367 127.223L228.28 135.957V153.424L243.367 162.158L258.454 153.534V135.957Z" fill="black" stroke="#000641"/>
<path d="M1073.13 135.957L1058.04 127.223L1042.96 135.957V153.424L1058.04 162.158L1073.13 153.534V135.957Z" fill="black" stroke="#000641"/>
<path d="M288.628 135.957L273.541 127.223L258.455 135.957V153.424L273.541 162.158L288.628 153.534V135.957Z" fill="black" stroke="#000641"/>
<path d="M1012.78 135.957L997.697 127.223L982.61 135.957V153.424L997.697 162.158L1012.78 153.534V135.957Z" fill="black" stroke="#000641"/>
<path d="M379.147 135.957L364.06 127.223L348.974 135.957V153.424L364.06 162.158L379.147 153.534V135.957Z" fill="black" stroke="#000641"/>
<path d="M228.28 135.957L213.193 127.223L198.107 135.957V153.424L213.193 162.158L228.28 153.534V135.957Z" fill="black" stroke="#000641"/>
<path d="M952.438 135.957L937.351 127.223L922.264 135.957V153.424L937.351 162.158L952.438 153.534V135.957Z" fill="black" stroke="#000641"/>
<path d="M318.799 135.957L303.713 127.223L288.626 135.957V153.424L303.713 162.158L318.799 153.534V135.957Z" fill="black" stroke="#000641"/>
<path d="M1042.96 135.957L1027.87 127.223L1012.78 135.957V153.424L1027.87 162.158L1042.96 153.534V135.957Z" fill="black" stroke="#000641"/>
<path d="M439.493 135.957L424.407 127.223L409.32 135.957V153.424L424.407 162.158L439.493 153.534V135.957Z" fill="black" stroke="#000641"/>
<path d="M1163.65 135.957L1148.56 127.223L1133.48 135.957V153.424L1148.56 162.158L1163.65 153.534V135.957Z" fill="black" stroke="#000641"/>
<path d="M530.012 135.957L514.926 127.223L499.839 135.957V153.424L514.926 162.158L530.012 153.534V135.957Z" fill="black" stroke="#000641"/>
<path d="M1254.17 135.957L1239.08 127.223L1224 135.957V153.424L1239.08 162.158L1254.17 153.534V135.957Z" fill="black" stroke="#000641"/>
<path d="M469.666 135.957L454.58 127.223L439.493 135.957V153.424L454.58 162.158L469.666 153.534V135.957Z" fill="black" stroke="#000641"/>
<path d="M1193.82 135.957L1178.74 127.223L1163.65 135.957V153.424L1178.74 162.158L1193.82 153.534V135.957Z" fill="black" stroke="#000641"/>
<path d="M560.187 135.957L545.1 127.223L530.013 135.957V153.424L545.1 162.158L560.187 153.534V135.957Z" fill="black" stroke="#000641"/>
<path d="M1284.34 135.957L1269.26 127.223L1254.17 135.957V153.424L1269.26 162.158L1284.34 153.534V135.957Z" fill="black" stroke="#000641"/>
<path d="M409.32 135.957L394.233 127.223L379.147 135.957V153.424L394.233 162.158L409.32 153.534V135.957Z" fill="black" stroke="#000641"/>
<path d="M1133.48 135.957L1118.39 127.223L1103.3 135.957V153.424L1118.39 162.158L1133.48 153.534V135.957Z" fill="black" stroke="#000641"/>
<path d="M499.84 135.957L484.754 127.223L469.667 135.957V153.424L484.754 162.158L499.84 153.534V135.957Z" fill="black" stroke="#000641"/>
<path d="M1224 135.957L1208.91 127.223L1193.82 135.957V153.424L1208.91 162.158L1224 153.534V135.957Z" fill="black" stroke="#000641"/>
<path d="M620.533 135.957L605.446 127.223L590.359 135.957V153.424L605.446 162.158L620.533 153.534V135.957Z" fill="black" stroke="#000641"/>
<path d="M1344.69 135.957L1329.6 127.223L1314.52 135.957V153.424L1329.6 162.158L1344.69 153.534V135.957Z" fill="black" stroke="#000641"/>
<path d="M711.053 135.957L695.966 127.223L680.88 135.957V153.424L695.966 162.158L711.053 153.534V135.957Z" fill="black" stroke="#000641"/>
<path d="M650.705 135.957L635.619 127.223L620.532 135.957V153.424L635.619 162.158L650.705 153.534V135.957Z" fill="black" stroke="#000641"/>
<path d="M1374.86 135.957L1359.78 127.223L1344.69 135.957V153.424L1359.78 162.158L1374.86 153.534V135.957Z" fill="black" stroke="#000641"/>
<path d="M741.225 135.957L726.138 127.223L711.052 135.957V153.424L726.138 162.158L741.225 153.534V135.957Z" fill="black" stroke="#000641"/>
<path d="M590.36 135.957L575.273 127.223L560.186 135.957V153.424L575.273 162.158L590.36 153.534V135.957Z" fill="black" stroke="#000641"/>
<path d="M1314.52 135.957L1299.43 127.223L1284.34 135.957V153.424L1299.43 162.158L1314.52 153.534V135.957Z" fill="black" stroke="#000641"/>
<path d="M1405.03 135.957L1389.95 127.223L1374.86 135.957V153.424L1389.95 162.158L1405.03 153.534V135.957Z" fill="black" stroke="#000641"/>
<path d="M1435.02 135.957L1419.93 127.223L1404.84 135.957V153.424L1419.93 162.158L1435.02 153.534V135.957Z" fill="black" stroke="#000641"/>
<path d="M1465 135.957L1449.91 127.223L1434.82 135.957V153.424L1449.91 162.158L1465 153.534V135.957Z" fill="black" stroke="#000641"/>
<path d="M92.501 110.549L77.4144 101.815L62.3278 110.549V128.017L77.4144 136.751L92.501 128.126V110.549Z" fill="black" stroke="#000641"/>
<path d="M816.658 110.549L801.571 101.815L786.484 110.549V128.017L801.571 136.751L816.658 128.126V110.549Z" fill="black" stroke="#000641"/>
<path d="M183.02 110.549L167.934 101.815L152.847 110.549V128.017L167.934 136.751L183.02 128.126V110.549Z" fill="black" stroke="#000641"/>
<path d="M907.179 110.549L892.092 101.815L877.006 110.549V128.017L892.092 136.751L907.179 128.126V110.549Z" fill="black" stroke="#000641"/>
<path d="M122.674 110.549L107.587 101.815L92.5009 110.549V128.017L107.587 136.751L122.674 128.126V110.549Z" fill="black" stroke="#000641"/>
<path d="M213.195 110.549L198.108 101.815L183.021 110.549V128.017L198.108 136.751L213.195 128.126V110.549Z" fill="black" stroke="#000641"/>
<path d="M32.155 110.549L17.0684 101.815L1.98175 110.549V128.017L17.0684 136.751L32.155 128.126V110.549Z" fill="black" stroke="#000641"/>
<path d="M2.17321 110.549L-12.9134 101.815L-28 110.549V128.017L-12.9134 136.751L2.17321 128.126V110.549Z" fill="black" stroke="#000641"/>
<path d="M786.486 110.549L771.399 101.815L756.312 110.549V128.017L771.399 136.751L786.486 128.126V110.549Z" fill="black" stroke="#000641"/>
<path d="M273.541 110.549L258.454 101.815L243.367 110.549V128.017L258.454 136.751L273.541 128.126V110.549Z" fill="black" stroke="#000641"/>
<path d="M997.697 110.549L982.61 101.815L967.524 110.549V128.017L982.61 136.751L997.697 128.126V110.549Z" fill="black" stroke="#000641"/>
<path d="M364.061 110.549L348.974 101.815L333.888 110.549V128.017L348.974 136.751L364.061 128.126V110.549Z" fill="black" stroke="#000641"/>
<path d="M1088.22 110.549L1073.13 101.815L1058.04 110.549V128.017L1073.13 136.751L1088.22 128.126V110.549Z" fill="black" stroke="#000641"/>
<path d="M303.714 110.549L288.627 101.815L273.54 110.549V128.017L288.627 136.751L303.714 128.126V110.549Z" fill="black" stroke="#000641"/>
<path d="M1027.87 110.549L1012.78 101.815L997.697 110.549V128.017L1012.78 136.751L1027.87 128.126V110.549Z" fill="black" stroke="#000641"/>
<path d="M1058.05 110.549L1042.96 101.815L1027.87 110.549V128.017L1042.96 136.751L1058.05 128.126V110.549Z" fill="black" stroke="#000641"/>
<path d="M1178.74 110.549L1163.65 101.815L1148.56 110.549V128.017L1163.65 136.751L1178.74 128.126V110.549Z" fill="black" stroke="#000641"/>
<path d="M484.753 110.549L469.667 101.815L454.58 110.549V128.017L469.667 136.751L484.753 128.126V110.549Z" fill="black" stroke="#000641"/>
<path d="M1208.91 110.549L1193.82 101.815L1178.74 110.549V128.017L1193.82 136.751L1208.91 128.126V110.549Z" fill="black" stroke="#000641"/>
<path d="M575.273 110.549L560.186 101.815L545.099 110.549V128.017L560.186 136.751L575.273 128.126V110.549Z" fill="black" stroke="#000641"/>
<path d="M1299.43 110.549L1284.34 101.815L1269.26 110.549V128.017L1284.34 136.751L1299.43 128.126V110.549Z" fill="black" stroke="#000641"/>
<path d="M424.407 110.549L409.32 101.815L394.233 110.549V128.017L409.32 136.751L424.407 128.126V110.549Z" fill="black" stroke="#000641"/>
<path d="M635.62 110.549L620.533 101.815L605.447 110.549V128.017L620.533 136.751L635.62 128.126V110.549Z" fill="black" stroke="#000641"/>
<path d="M1359.78 110.549L1344.69 101.815L1329.6 110.549V128.017L1344.69 136.751L1359.78 128.126V110.549Z" fill="black" stroke="#000641"/>
<path d="M1420.12 110.549L1405.04 101.815L1389.95 110.549V128.017L1405.04 136.751L1420.12 128.126V110.549Z" fill="black" stroke="#000641"/>
<path d="M1450.1 110.549L1435.02 101.815L1419.93 110.549V128.017L1435.02 136.751L1450.1 128.126V110.549Z" fill="black" stroke="#000641"/>
<path d="M801.572 85.1414L786.485 76.4076L771.398 85.1414V102.609L786.485 111.343L801.572 102.718V85.1414Z" fill="black" stroke="#000641"/>
<path d="M892.092 85.1414L877.005 76.4076L861.918 85.1414V102.609L877.005 111.343L892.092 102.718V85.1414Z" fill="black" stroke="#000641"/>
<path d="M107.588 85.1414L92.5018 76.4076L77.4152 85.1414V102.609L92.5018 111.343L107.588 102.718V85.1414Z" fill="black" stroke="#000641"/>
<path d="M228.28 85.1414L213.193 76.4076L198.107 85.1414V102.609L213.193 111.343L228.28 102.718V85.1414Z" fill="black" stroke="#000641"/>
<path d="M318.799 85.1414L303.713 76.4076L288.626 85.1414V102.609L303.713 111.343L318.799 102.718V85.1414Z" fill="black" stroke="#000641"/>
<path d="M1042.96 85.1414L1027.87 76.4076L1012.78 85.1414V102.609L1027.87 111.343L1042.96 102.718V85.1414Z" fill="black" stroke="#000641"/>
<path d="M439.493 85.1414L424.407 76.4076L409.32 85.1414V102.609L424.407 111.343L439.493 102.718V85.1414Z" fill="black" stroke="#000641"/>
<path d="M1193.82 85.1414L1178.74 76.4076L1163.65 85.1414V102.609L1178.74 111.343L1193.82 102.718V85.1414Z" fill="black" stroke="#000641"/>
<path d="M1284.34 85.1414L1269.26 76.4076L1254.17 85.1414V102.609L1269.26 111.343L1284.34 102.718V85.1414Z" fill="black" stroke="#000641"/>
<path d="M1224 85.1414L1208.91 76.4076L1193.82 85.1414V102.609L1208.91 111.343L1224 102.718V85.1414Z" fill="black" stroke="#000641"/>
<path d="M620.533 85.1414L605.446 76.4076L590.359 85.1414V102.609L605.446 111.343L620.533 102.718V85.1414Z" fill="black" stroke="#000641"/>
<path d="M650.705 85.1414L635.619 76.4076L620.532 85.1414V102.609L635.619 111.343L650.705 102.718V85.1414Z" fill="black" stroke="#000641"/>
<path d="M1405.03 85.1414L1389.95 76.4076L1374.86 85.1414V102.609L1389.95 111.343L1405.03 102.718V85.1414Z" fill="black" stroke="#000641"/>
<path d="M1435.02 85.1414L1419.93 76.4076L1404.84 85.1414V102.609L1419.93 111.343L1435.02 102.718V85.1414Z" fill="black" stroke="#000641"/>
<path d="M1465 85.1414L1449.91 76.4076L1434.82 85.1414V102.609L1449.91 111.343L1465 102.718V85.1414Z" fill="black" stroke="#000641"/>
<path d="M1208.91 59.7338L1193.82 51L1178.74 59.7338V77.2015L1193.82 85.9354L1208.91 77.3108V59.7338Z" fill="black" stroke="#000641"/>
<path d="M907.18 280.916L922.266 289.65L937.353 280.916V263.448L922.266 254.714L907.18 263.339V280.916Z" fill="black" stroke="#000641"/>
<path d="M1329.6 280.916L1344.69 289.65L1359.78 280.916V263.448L1344.69 254.714L1329.6 263.339V280.916Z" fill="black" stroke="#000641"/>
<path d="M605.446 280.916L620.532 289.65L635.619 280.916V263.448L620.532 254.714L605.446 263.339V280.916Z" fill="black" stroke="#000641"/>
<path d="M1239.08 280.916L1254.17 289.65L1269.26 280.916V263.448L1254.17 254.714L1239.08 263.339V280.916Z" fill="black" stroke="#000641"/>
<path d="M514.926 280.916L530.013 289.65L545.099 280.916V263.448L530.013 254.714L514.926 263.339V280.916Z" fill="black" stroke="#000641"/>
<path d="M1299.43 280.916L1314.52 289.65L1329.6 280.916V263.448L1314.52 254.714L1299.43 263.339V280.916Z" fill="black" stroke="#000641"/>
<path d="M575.274 280.916L590.36 289.65L605.447 280.916V263.448L590.36 254.714L575.274 263.339V280.916Z" fill="black" stroke="#000641"/>
<path d="M1208.91 280.916L1224 289.65L1239.08 280.916V263.448L1224 254.714L1208.91 263.339V280.916Z" fill="black" stroke="#000641"/>
<path d="M484.753 280.916L499.839 289.65L514.926 280.916V263.448L499.839 254.714L484.753 263.339V280.916Z" fill="black" stroke="#000641"/>
<path d="M1359.78 280.916L1374.86 289.65L1389.95 280.916V263.448L1374.86 254.714L1359.78 263.339V280.916Z" fill="black" stroke="#000641"/>
<path d="M1389.95 280.916L1405.04 289.65L1420.12 280.916V263.448L1405.04 254.714L1389.95 263.339V280.916Z" fill="black" stroke="#000641"/>
<path d="M1419.93 280.916L1435.02 289.65L1450.1 280.916V263.448L1435.02 254.714L1419.93 263.339V280.916Z" fill="black" stroke="#000641"/>
<path d="M635.621 280.916L650.708 289.65L665.794 280.916V263.448L650.708 254.714L635.621 263.339V280.916Z" fill="black" stroke="#000641"/>
<path d="M1269.26 280.916L1284.34 289.65L1299.43 280.916V263.448L1284.34 254.714L1269.26 263.339V280.916Z" fill="black" stroke="#000641"/>
<path d="M545.099 280.916L560.186 289.65L575.272 280.916V263.448L560.186 254.714L545.099 263.339V280.916Z" fill="black" stroke="#000641"/>
<path d="M1148.56 280.916L1163.65 289.65L1178.74 280.916V263.448L1163.65 254.714L1148.56 263.339V280.916Z" fill="black" stroke="#000641"/>
<path d="M424.406 280.916L439.492 289.65L454.579 280.916V263.448L439.492 254.714L424.406 263.339V280.916Z" fill="black" stroke="#000641"/>
<path d="M1058.04 280.916L1073.13 289.65L1088.22 280.916V263.448L1073.13 254.714L1058.04 263.339V280.916Z" fill="black" stroke="#000641"/>
<path d="M333.887 280.916L348.974 289.65L364.06 280.916V263.448L348.974 254.714L333.887 263.339V280.916Z" fill="black" stroke="#000641"/>
<path d="M1118.39 280.916L1133.48 289.65L1148.56 280.916V263.448L1133.48 254.714L1118.39 263.339V280.916Z" fill="black" stroke="#000641"/>
<path d="M394.232 280.916L409.318 289.65L424.405 280.916V263.448L409.318 254.714L394.232 263.339V280.916Z" fill="black" stroke="#000641"/>
<path d="M1027.87 280.916L1042.96 289.65L1058.04 280.916V263.448L1042.96 254.714L1027.87 263.339V280.916Z" fill="black" stroke="#000641"/>
<path d="M303.715 280.916L318.802 289.65L333.888 280.916V263.448L318.802 254.714L303.715 263.339V280.916Z" fill="black" stroke="#000641"/>
<path d="M1178.74 280.916L1193.82 289.65L1208.91 280.916V263.448L1193.82 254.714L1178.74 263.339V280.916Z" fill="black" stroke="#000641"/>
<path d="M454.579 280.916L469.666 289.65L484.753 280.916V263.448L469.666 254.714L454.579 263.339V280.916Z" fill="black" stroke="#000641"/>
<path d="M1088.22 280.916L1103.3 289.65L1118.39 280.916V263.448L1103.3 254.714L1088.22 263.339V280.916Z" fill="black" stroke="#000641"/>
<path d="M364.061 280.916L379.148 289.65L394.235 280.916V263.448L379.148 254.714L364.061 263.339V280.916Z" fill="black" stroke="#000641"/>
<path d="M967.523 280.916L982.61 289.65L997.696 280.916V263.448L982.61 254.714L967.523 263.339V280.916Z" fill="black" stroke="#000641"/>
<path d="M243.367 280.916L258.454 289.65L273.54 280.916V263.448L258.454 254.714L243.367 263.339V280.916Z" fill="black" stroke="#000641"/>
<path d="M877.006 280.916L892.093 289.65L907.179 280.916V263.448L892.093 254.714L877.006 263.339V280.916Z" fill="black" stroke="#000641"/>
<path d="M152.847 280.916L167.934 289.65L183.021 280.916V263.448L167.934 254.714L152.847 263.339V280.916Z" fill="black" stroke="#000641"/>
<path d="M937.351 280.916L952.438 289.65L967.524 280.916V263.448L952.438 254.714L937.351 263.339V280.916Z" fill="black" stroke="#000641"/>
<path d="M213.194 280.916L228.28 289.65L243.367 280.916V263.448L228.28 254.714L213.194 263.339V280.916Z" fill="black" stroke="#000641"/>
<path d="M846.833 280.916L861.919 289.65L877.006 280.916V263.448L861.919 254.714L846.833 263.339V280.916Z" fill="black" stroke="#000641"/>
<path d="M122.673 280.916L137.76 289.65L152.846 280.916V263.448L137.76 254.714L122.673 263.339V280.916Z" fill="black" stroke="#000641"/>
<path d="M997.696 280.916L1012.78 289.65L1027.87 280.916V263.448L1012.78 254.714L997.696 263.339V280.916Z" fill="black" stroke="#000641"/>
<path d="M273.54 280.916L288.627 289.65L303.714 280.916V263.448L288.627 254.714L273.54 263.339V280.916Z" fill="black" stroke="#000641"/>
<path d="M183.021 280.916L198.108 289.65L213.194 280.916V263.448L198.108 254.714L183.021 263.339V280.916Z" fill="black" stroke="#000641"/>
<path d="M786.484 280.916L801.57 289.65L816.657 280.916V263.448L801.57 254.714L786.484 263.339V280.916Z" fill="black" stroke="#000641"/>
<path d="M62.3284 280.916L77.415 289.65L92.5016 280.916V263.448L77.415 254.714L62.3284 263.339V280.916Z" fill="black" stroke="#000641"/>
<path d="M695.965 280.916L711.052 289.65L726.139 280.916V263.448L711.052 254.714L695.965 263.339V280.916Z" fill="black" stroke="#000641"/>
<path d="M756.311 280.916L771.397 289.65L786.484 280.916V263.448L771.397 254.714L756.311 263.339V280.916Z" fill="black" stroke="#000641"/>
<path d="M32.155 280.916L47.2416 289.65L62.3282 280.916V263.448L47.2416 254.714L32.155 263.339V280.916Z" fill="black" stroke="#000641"/>
<path d="M665.792 280.916L680.878 289.65L695.965 280.916V263.448L680.878 254.714L665.792 263.339V280.916Z" fill="black" stroke="#000641"/>
<path d="M816.658 280.916L831.745 289.65L846.831 280.916V263.448L831.745 254.714L816.658 263.339V280.916Z" fill="black" stroke="#000641"/>
<path d="M92.5032 280.916L107.59 289.65L122.676 280.916V263.448L107.59 254.714L92.5032 263.339V280.916Z" fill="black" stroke="#000641"/>
<path d="M726.138 280.916L741.225 289.65L756.312 280.916V263.448L741.225 254.714L726.138 263.339V280.916Z" fill="black" stroke="#000641"/>
<path d="M1.982 280.916L17.0686 289.65L32.1552 280.916V263.448L17.0686 254.714L1.982 263.339V280.916Z" fill="black" stroke="#000641"/>
<path d="M-28 280.916L-12.9134 289.65L2.17325 280.916V263.448L-12.9134 254.714L-28 263.339V280.916Z" fill="black" stroke="#000641"/>
<path d="M1344.69 306.323L1359.78 315.057L1374.86 306.323V288.856L1359.78 280.122L1344.69 288.746V306.323Z" fill="black" stroke="#000641"/>
<path d="M620.532 306.323L635.618 315.057L650.705 306.323V288.856L635.618 280.122L620.532 288.746V306.323Z" fill="black" stroke="#000641"/>
<path d="M1254.17 306.323L1269.26 315.057L1284.34 306.323V288.856L1269.26 280.122L1254.17 288.746V306.323Z" fill="black" stroke="#000641"/>
<path d="M530.014 306.323L545.101 315.057L560.188 306.323V288.856L545.101 280.122L530.014 288.746V306.323Z" fill="black" stroke="#000641"/>
<path d="M1314.52 306.323L1329.6 315.057L1344.69 306.323V288.856L1329.6 280.122L1314.52 288.746V306.323Z" fill="black" stroke="#000641"/>
<path d="M590.358 306.323L605.444 315.057L620.531 306.323V288.856L605.444 280.122L590.358 288.746V306.323Z" fill="black" stroke="#000641"/>
<path d="M1224 306.323L1239.08 315.057L1254.17 306.323V288.856L1239.08 280.122L1224 288.746V306.323Z" fill="black" stroke="#000641"/>
<path d="M1374.86 306.323L1389.95 315.057L1405.04 306.323V288.856L1389.95 280.122L1374.86 288.746V306.323Z" fill="black" stroke="#000641"/>
<path d="M1404.84 306.323L1419.93 315.057L1435.02 306.323V288.856L1419.93 280.122L1404.84 288.746V306.323Z" fill="black" stroke="#000641"/>
<path d="M1434.83 306.323L1449.91 315.057L1465 306.323V288.856L1449.91 280.122L1434.83 288.746V306.323Z" fill="black" stroke="#000641"/>
<path d="M650.706 306.323L665.793 315.057L680.879 306.323V288.856L665.793 280.122L650.706 288.746V306.323Z" fill="black" stroke="#000641"/>
<path d="M560.185 306.323L575.272 315.057L590.358 306.323V288.856L575.272 280.122L560.185 288.746V306.323Z" fill="black" stroke="#000641"/>
<path d="M1163.65 306.323L1178.74 315.057L1193.82 306.323V288.856L1178.74 280.122L1163.65 288.746V306.323Z" fill="black" stroke="#000641"/>
<path d="M348.973 306.323L364.06 315.057L379.146 306.323V288.856L364.06 280.122L348.973 288.746V306.323Z" fill="black" stroke="#000641"/>
<path d="M1133.48 306.323L1148.56 315.057L1163.65 306.323V288.856L1148.56 280.122L1133.48 288.746V306.323Z" fill="black" stroke="#000641"/>
<path d="M409.32 306.323L424.406 315.057L439.493 306.323V288.856L424.406 280.122L409.32 288.746V306.323Z" fill="black" stroke="#000641"/>
<path d="M1042.96 306.323L1058.04 315.057L1073.13 306.323V288.856L1058.04 280.122L1042.96 288.746V306.323Z" fill="black" stroke="#000641"/>
<path d="M1193.82 306.323L1208.91 315.057L1224 306.323V288.856L1208.91 280.122L1193.82 288.746V306.323Z" fill="black" stroke="#000641"/>
<path d="M469.666 306.323L484.753 315.057L499.84 306.323V288.856L484.753 280.122L469.666 288.746V306.323Z" fill="black" stroke="#000641"/>
<path d="M1103.31 306.323L1118.39 315.057L1133.48 306.323V288.856L1118.39 280.122L1103.31 288.746V306.323Z" fill="black" stroke="#000641"/>
<path d="M379.147 306.323L394.233 315.057L409.32 306.323V288.856L394.233 280.122L379.147 288.746V306.323Z" fill="black" stroke="#000641"/>
<path d="M982.61 306.323L997.697 315.057L1012.78 306.323V288.856L997.697 280.122L982.61 288.746V306.323Z" fill="black" stroke="#000641"/>
<path d="M258.454 306.323L273.541 315.057L288.627 306.323V288.856L273.541 280.122L258.454 288.746V306.323Z" fill="black" stroke="#000641"/>
<path d="M892.091 306.323L907.177 315.057L922.264 306.323V288.856L907.177 280.122L892.091 288.746V306.323Z" fill="black" stroke="#000641"/>
<path d="M167.934 306.323L183.021 315.057L198.107 306.323V288.856L183.021 280.122L167.934 288.746V306.323Z" fill="black" stroke="#000641"/>
<path d="M952.437 306.323L967.524 315.057L982.61 306.323V288.856L967.524 280.122L952.437 288.746V306.323Z" fill="black" stroke="#000641"/>
<path d="M228.282 306.323L243.369 315.057L258.455 306.323V288.856L243.369 280.122L228.282 288.746V306.323Z" fill="black" stroke="#000641"/>
<path d="M861.916 306.323L877.003 315.057L892.089 306.323V288.856L877.003 280.122L861.916 288.746V306.323Z" fill="black" stroke="#000641"/>
<path d="M137.761 306.323L152.848 315.057L167.935 306.323V288.856L152.848 280.122L137.761 288.746V306.323Z" fill="black" stroke="#000641"/>
<path d="M1012.78 306.323L1027.87 315.057L1042.96 306.323V288.856L1027.87 280.122L1012.78 288.746V306.323Z" fill="black" stroke="#000641"/>
<path d="M288.627 306.323L303.714 315.057L318.8 306.323V288.856L303.714 280.122L288.627 288.746V306.323Z" fill="black" stroke="#000641"/>
<path d="M922.265 306.323L937.351 315.057L952.438 306.323V288.856L937.351 280.122L922.265 288.746V306.323Z" fill="black" stroke="#000641"/>
<path d="M198.108 306.323L213.195 315.057L228.281 306.323V288.856L213.195 280.122L198.108 288.746V306.323Z" fill="black" stroke="#000641"/>
<path d="M801.574 306.323L816.661 315.057L831.748 306.323V288.856L816.661 280.122L801.574 288.746V306.323Z" fill="black" stroke="#000641"/>
<path d="M77.4149 306.323L92.5015 315.057L107.588 306.323V288.856L92.5015 280.122L77.4149 288.746V306.323Z" fill="black" stroke="#000641"/>
<path d="M711.051 306.323L726.138 315.057L741.225 306.323V288.856L726.138 280.122L711.051 288.746V306.323Z" fill="black" stroke="#000641"/>
<path d="M771.4 306.323L786.486 315.057L801.573 306.323V288.856L786.486 280.122L771.4 288.746V306.323Z" fill="black" stroke="#000641"/>
<path d="M47.2415 306.323L62.3281 315.057L77.4147 306.323V288.856L62.3281 280.122L47.2415 288.746V306.323Z" fill="black" stroke="#000641"/>
<path d="M680.879 306.323L695.965 315.057L711.052 306.323V288.856L695.965 280.122L680.879 288.746V306.323Z" fill="black" stroke="#000641"/>
<path d="M831.744 306.323L846.831 315.057L861.918 306.323V288.856L846.831 280.122L831.744 288.746V306.323Z" fill="black" stroke="#000641"/>
<path d="M107.588 306.323L122.674 315.057L137.761 306.323V288.856L122.674 280.122L107.588 288.746V306.323Z" fill="black" stroke="#000641"/>
<path d="M17.0671 306.323L32.1537 315.057L47.2403 306.323V288.856L32.1537 280.122L17.0671 288.746V306.323Z" fill="black" stroke="#000641"/>
<path d="M-12.9146 306.323L2.17197 315.057L17.2586 306.323V288.856L2.17197 280.122L-12.9146 288.746V306.323Z" fill="black" stroke="#000641"/>
<path d="M1329.6 331.731L1344.69 340.465L1359.78 331.731V314.263L1344.69 305.53L1329.6 314.154V331.731Z" fill="black" stroke="#000641"/>
<path d="M605.446 331.731L620.532 340.465L635.619 331.731V314.263L620.532 305.53L605.446 314.154V331.731Z" fill="black" stroke="#000641"/>
<path d="M1239.08 331.731L1254.17 340.465L1269.26 331.731V314.263L1254.17 305.53L1239.08 314.154V331.731Z" fill="black" stroke="#000641"/>
<path d="M514.926 331.731L530.013 340.465L545.099 331.731V314.263L530.013 305.53L514.926 314.154V331.731Z" fill="black" stroke="#000641"/>
<path d="M1299.43 331.731L1314.52 340.465L1329.6 331.731V314.263L1314.52 305.53L1299.43 314.154V331.731Z" fill="black" stroke="#000641"/>
<path d="M1208.91 331.731L1224 340.465L1239.08 331.731V314.263L1224 305.53L1208.91 314.154V331.731Z" fill="black" stroke="#000641"/>
<path d="M1389.95 331.731L1405.04 340.465L1420.12 331.731V314.263L1405.04 305.53L1389.95 314.154V331.731Z" fill="black" stroke="#000641"/>
<path d="M1419.93 331.731L1435.02 340.465L1450.1 331.731V314.263L1435.02 305.53L1419.93 314.154V331.731Z" fill="black" stroke="#000641"/>
<path d="M635.621 331.731L650.708 340.465L665.794 331.731V314.263L650.708 305.53L635.621 314.154V331.731Z" fill="black" stroke="#000641"/>
<path d="M1148.56 331.731L1163.65 340.465L1178.74 331.731V314.263L1163.65 305.53L1148.56 314.154V331.731Z" fill="black" stroke="#000641"/>
<path d="M424.406 331.731L439.492 340.465L454.579 331.731V314.263L439.492 305.53L424.406 314.154V331.731Z" fill="black" stroke="#000641"/>
<path d="M1058.04 331.731L1073.13 340.465L1088.22 331.731V314.263L1073.13 305.53L1058.04 314.154V331.731Z" fill="black" stroke="#000641"/>
<path d="M333.887 331.731L348.974 340.465L364.06 331.731V314.263L348.974 305.53L333.887 314.154V331.731Z" fill="black" stroke="#000641"/>
<path d="M1118.39 331.731L1133.48 340.465L1148.56 331.731V314.263L1133.48 305.53L1118.39 314.154V331.731Z" fill="black" stroke="#000641"/>
<path d="M394.232 331.731L409.318 340.465L424.405 331.731V314.263L409.318 305.53L394.232 314.154V331.731Z" fill="black" stroke="#000641"/>
<path d="M364.061 331.731L379.148 340.465L394.235 331.731V314.263L379.148 305.53L364.061 314.154V331.731Z" fill="black" stroke="#000641"/>
<path d="M243.367 331.731L258.454 340.465L273.54 331.731V314.263L258.454 305.53L243.367 314.154V331.731Z" fill="black" stroke="#000641"/>
<path d="M937.351 331.731L952.438 340.465L967.524 331.731V314.263L952.438 305.53L937.351 314.154V331.731Z" fill="black" stroke="#000641"/>
<path d="M213.194 331.731L228.28 340.465L243.367 331.731V314.263L228.28 305.53L213.194 314.154V331.731Z" fill="black" stroke="#000641"/>
<path d="M846.833 331.731L861.919 340.465L877.006 331.731V314.263L861.919 305.53L846.833 314.154V331.731Z" fill="black" stroke="#000641"/>
<path d="M122.673 331.731L137.76 340.465L152.846 331.731V314.263L137.76 305.53L122.673 314.154V331.731Z" fill="black" stroke="#000641"/>
<path d="M997.696 331.731L1012.78 340.465L1027.87 331.731V314.263L1012.78 305.53L997.696 314.154V331.731Z" fill="black" stroke="#000641"/>
<path d="M786.484 331.731L801.57 340.465L816.657 331.731V314.263L801.57 305.53L786.484 314.154V331.731Z" fill="black" stroke="#000641"/>
<path d="M62.3284 331.731L77.415 340.465L92.5016 331.731V314.263L77.415 305.53L62.3284 314.154V331.731Z" fill="black" stroke="#000641"/>
<path d="M1.982 331.731L17.0686 340.465L32.1552 331.731V314.263L17.0686 305.53L1.982 314.154V331.731Z" fill="black" stroke="#000641"/>
<path d="M-28 331.731L-12.9134 340.465L2.17325 331.731V314.263L-12.9134 305.53L-28 314.154V331.731Z" fill="black" stroke="#000641"/>
<path d="M620.532 357.139L635.618 365.872L650.705 357.139V339.671L635.618 330.937L620.532 339.562V357.139Z" fill="black" stroke="#000641"/>
<path d="M530.014 357.139L545.101 365.872L560.188 357.139V339.671L545.101 330.937L530.014 339.562V357.139Z" fill="black" stroke="#000641"/>
<path d="M1314.52 357.139L1329.6 365.872L1344.69 357.139V339.671L1329.6 330.937L1314.52 339.562V357.139Z" fill="black" stroke="#000641"/>
<path d="M1193.82 357.139L1208.91 365.872L1224 357.139V339.671L1208.91 330.937L1193.82 339.562V357.139Z" fill="black" stroke="#000641"/>
<path d="M1103.31 357.139L1118.39 365.872L1133.48 357.139V339.671L1118.39 330.937L1103.31 339.562V357.139Z" fill="black" stroke="#000641"/>
<path d="M379.147 357.139L394.233 365.872L409.32 357.139V339.671L394.233 330.937L379.147 339.562V357.139Z" fill="black" stroke="#000641"/>
<path d="M982.61 357.139L997.697 365.872L1012.78 357.139V339.671L997.697 330.937L982.61 339.562V357.139Z" fill="black" stroke="#000641"/>
<path d="M228.282 357.139L243.369 365.872L258.455 357.139V339.671L243.369 330.937L228.282 339.562V357.139Z" fill="black" stroke="#000641"/>
<path d="M137.761 357.139L152.848 365.872L167.935 357.139V339.671L152.848 330.937L137.761 339.562V357.139Z" fill="black" stroke="#000641"/>
<path d="M198.108 357.139L213.195 365.872L228.281 357.139V339.671L213.195 330.937L198.108 339.562V357.139Z" fill="black" stroke="#000641"/>
<path d="M801.574 357.139L816.661 365.872L831.748 357.139V339.671L816.661 330.937L801.574 339.562V357.139Z" fill="black" stroke="#000641"/>
<path d="M771.4 357.139L786.486 365.872L801.573 357.139V339.671L786.486 330.937L771.4 339.562V357.139Z" fill="black" stroke="#000641"/>
<path d="M17.0671 357.139L32.1537 365.872L47.2403 357.139V339.671L32.1537 330.937L17.0671 339.562V357.139Z" fill="black" stroke="#000641"/>
<path d="M213.194 382.546L228.28 391.28L243.367 382.546V365.078L228.28 356.345L213.194 364.969V382.546Z" fill="black" stroke="#000641"/>
</g>
<defs>
<filter id="filter0_d" x="-78.5" y="0.422256" width="1594" height="441.435" filterUnits="userSpaceOnUse" color-interpolation-filters="sRGB">
<feFlood flood-opacity="0" result="BackgroundImageFix"/>
<feColorMatrix in="SourceAlpha" type="matrix" values="0 0 0 0 0 0 0 0 0 0 0 0 0 0 0 0 0 0 127 0"/>
<feOffset/>
<feGaussianBlur stdDeviation="25"/>
<feColorMatrix type="matrix" values="0 0 0 0 0 0 0 0 0 0 0 0 0 0 0 0 0 0 0.75 0"/>
<feBlend mode="normal" in2="BackgroundImageFix" result="effect1_dropShadow"/>
<feBlend mode="normal" in="SourceGraphic" in2="effect1_dropShadow" result="shape"/>
</filter>
</defs>
</svg>
