<svg width="1493" height="139" viewBox="0 0 1493 139" fill="none" xmlns="http://www.w3.org/2000/svg">
<g clip-path="url(#clip0_602_137)">
<g filter="url(#filter0_d_602_137)">
<path d="M120.501 121.364L105.414 112.63L90.3276 121.364V138.832L105.414 147.566L120.501 138.941V121.364Z" fill="black" stroke="#000641"/>
<path d="M844.658 121.364L829.571 112.63L814.484 121.364V138.832L829.571 147.566L844.658 138.941V121.364Z" fill="black" stroke="#000641"/>
<path d="M211.02 121.364L195.934 112.63L180.847 121.364V138.832L195.934 147.566L211.02 138.941V121.364Z" fill="black" stroke="#000641"/>
<path d="M935.179 121.364L920.092 112.63L905.006 121.364V138.832L920.092 147.566L935.179 138.941V121.364Z" fill="black" stroke="#000641"/>
<path d="M150.674 121.364L135.587 112.63L120.501 121.364V138.832L135.587 147.566L150.674 138.941V121.364Z" fill="black" stroke="#000641"/>
<path d="M874.83 121.364L859.744 112.63L844.657 121.364V138.832L859.744 147.566L874.83 138.941V121.364Z" fill="black" stroke="#000641"/>
<path d="M241.195 121.364L226.108 112.63L211.021 121.364V138.832L226.108 147.566L241.195 138.941V121.364Z" fill="black" stroke="#000641"/>
<path d="M965.352 121.364L950.266 112.63L935.179 121.364V138.832L950.266 147.566L965.352 138.941V121.364Z" fill="black" stroke="#000641"/>
<path d="M90.328 121.364L75.2414 112.63L60.1548 121.364V138.832L75.2414 147.566L90.328 138.941V121.364Z" fill="black" stroke="#000641"/>
<path d="M60.1552 121.364L45.0686 112.63L29.9819 121.364V138.832L45.0686 147.566L60.1552 138.941V121.364Z" fill="black" stroke="#000641"/>
<path d="M30.1732 121.364L15.0866 112.63L0 121.364V138.832L15.0866 147.566L30.1732 138.941V121.364Z" fill="black" stroke="#000641"/>
<path d="M814.486 121.364L799.399 112.63L784.312 121.364V138.832L799.399 147.566L814.486 138.941V121.364Z" fill="black" stroke="#000641"/>
<path d="M180.849 121.364L165.762 112.63L150.675 121.364V138.832L165.762 147.566L180.849 138.941V121.364Z" fill="black" stroke="#000641"/>
<path d="M905.005 121.364L889.918 112.63L874.831 121.364V138.832L889.918 147.566L905.005 138.941V121.364Z" fill="black" stroke="#000641"/>
<path d="M301.541 121.364L286.454 112.63L271.367 121.364V138.832L286.454 147.566L301.541 138.941V121.364Z" fill="black" stroke="#000641"/>
<path d="M1025.7 121.364L1010.61 112.63L995.524 121.364V138.832L1010.61 147.566L1025.7 138.941V121.364Z" fill="black" stroke="#000641"/>
<path d="M392.061 121.364L376.974 112.63L361.888 121.364V138.832L376.974 147.566L392.061 138.941V121.364Z" fill="black" stroke="#000641"/>
<path d="M1116.22 121.364L1101.13 112.63L1086.04 121.364V138.832L1101.13 147.566L1116.22 138.941V121.364Z" fill="black" stroke="#000641"/>
<path d="M331.714 121.364L316.627 112.63L301.54 121.364V138.832L316.627 147.566L331.714 138.941V121.364Z" fill="black" stroke="#000641"/>
<path d="M1055.87 121.364L1040.78 112.63L1025.7 121.364V138.832L1040.78 147.566L1055.87 138.941V121.364Z" fill="black" stroke="#000641"/>
<path d="M422.233 121.364L407.146 112.63L392.06 121.364V138.832L407.146 147.566L422.233 138.941V121.364Z" fill="black" stroke="#000641"/>
<path d="M1146.39 121.364L1131.3 112.63L1116.22 121.364V138.832L1131.3 147.566L1146.39 138.941V121.364Z" fill="black" stroke="#000641"/>
<path d="M271.368 121.364L256.281 112.63L241.195 121.364V138.832L256.281 147.566L271.368 138.941V121.364Z" fill="black" stroke="#000641"/>
<path d="M995.525 121.364L980.439 112.63L965.352 121.364V138.832L980.439 147.566L995.525 138.941V121.364Z" fill="black" stroke="#000641"/>
<path d="M361.887 121.364L346.8 112.63L331.714 121.364V138.832L346.8 147.566L361.887 138.941V121.364Z" fill="black" stroke="#000641"/>
<path d="M1086.05 121.364L1070.96 112.63L1055.87 121.364V138.832L1070.96 147.566L1086.05 138.941V121.364Z" fill="black" stroke="#000641"/>
<path d="M482.579 121.364L467.493 112.63L452.406 121.364V138.832L467.493 147.566L482.579 138.941V121.364Z" fill="black" stroke="#000641"/>
<path d="M1206.74 121.364L1191.65 112.63L1176.56 121.364V138.832L1191.65 147.566L1206.74 138.941V121.364Z" fill="black" stroke="#000641"/>
<path d="M573.1 121.364L558.013 112.63L542.926 121.364V138.832L558.013 147.566L573.1 138.941V121.364Z" fill="black" stroke="#000641"/>
<path d="M1297.26 121.364L1282.17 112.63L1267.08 121.364V138.832L1282.17 147.566L1297.26 138.941V121.364Z" fill="black" stroke="#000641"/>
<path d="M512.753 121.364L497.667 112.63L482.58 121.364V138.832L497.667 147.566L512.753 138.941V121.364Z" fill="black" stroke="#000641"/>
<path d="M1236.91 121.364L1221.82 112.63L1206.74 121.364V138.832L1221.82 147.566L1236.91 138.941V121.364Z" fill="black" stroke="#000641"/>
<path d="M603.273 121.364L588.186 112.63L573.099 121.364V138.832L588.186 147.566L603.273 138.941V121.364Z" fill="black" stroke="#000641"/>
<path d="M1327.43 121.364L1312.34 112.63L1297.26 121.364V138.832L1312.34 147.566L1327.43 138.941V121.364Z" fill="black" stroke="#000641"/>
<path d="M452.407 121.364L437.32 112.63L422.233 121.364V138.832L437.32 147.566L452.407 138.941V121.364Z" fill="black" stroke="#000641"/>
<path d="M1176.56 121.364L1161.48 112.63L1146.39 121.364V138.832L1161.48 147.566L1176.56 138.941V121.364Z" fill="black" stroke="#000641"/>
<path d="M542.927 121.364L527.84 112.63L512.753 121.364V138.832L527.84 147.566L542.927 138.941V121.364Z" fill="black" stroke="#000641"/>
<path d="M1267.08 121.364L1252 112.63L1236.91 121.364V138.832L1252 147.566L1267.08 138.941V121.364Z" fill="black" stroke="#000641"/>
<path d="M663.62 121.364L648.533 112.63L633.447 121.364V138.832L648.533 147.566L663.62 138.941V121.364Z" fill="black" stroke="#000641"/>
<path d="M1387.78 121.364L1372.69 112.63L1357.6 121.364V138.832L1372.69 147.566L1387.78 138.941V121.364Z" fill="black" stroke="#000641"/>
<path d="M754.138 121.364L739.051 112.63L723.964 121.364V138.832L739.051 147.566L754.138 138.941V121.364Z" fill="black" stroke="#000641"/>
<path d="M693.792 121.364L678.705 112.63L663.619 121.364V138.832L678.705 147.566L693.792 138.941V121.364Z" fill="black" stroke="#000641"/>
<path d="M1417.95 121.364L1402.86 112.63L1387.78 121.364V138.832L1402.86 147.566L1417.95 138.941V121.364Z" fill="black" stroke="#000641"/>
<path d="M784.313 121.364L769.226 112.63L754.139 121.364V138.832L769.226 147.566L784.313 138.941V121.364Z" fill="black" stroke="#000641"/>
<path d="M633.446 121.364L618.359 112.63L603.272 121.364V138.832L618.359 147.566L633.446 138.941V121.364Z" fill="black" stroke="#000641"/>
<path d="M1357.6 121.364L1342.52 112.63L1327.43 121.364V138.832L1342.52 147.566L1357.6 138.941V121.364Z" fill="black" stroke="#000641"/>
<path d="M723.967 121.364L708.88 112.63L693.794 121.364V138.832L708.88 147.566L723.967 138.941V121.364Z" fill="black" stroke="#000641"/>
<path d="M1448.12 121.364L1433.04 112.63L1417.95 121.364V138.832L1433.04 147.566L1448.12 138.941V121.364Z" fill="black" stroke="#000641"/>
<path d="M1478.1 121.364L1463.02 112.63L1447.93 121.364V138.832L1463.02 147.566L1478.1 138.941V121.364Z" fill="black" stroke="#000641"/>
<path d="M105.415 95.9569L90.3283 87.2229L75.2417 95.9569V113.424L90.3283 122.158L105.415 113.534V95.9569Z" fill="black" stroke="#000641"/>
<path d="M829.572 95.9569L814.485 87.2229L799.398 95.9569V113.424L814.485 122.158L829.572 113.534V95.9569Z" fill="black" stroke="#000641"/>
<path d="M195.934 95.9569L180.848 87.2229L165.761 95.9569V113.424L180.848 122.158L195.934 113.534V95.9569Z" fill="black" stroke="#000641"/>
<path d="M920.092 95.9569L905.005 87.2229L889.918 95.9569V113.424L905.005 122.158L920.092 113.534V95.9569Z" fill="black" stroke="#000641"/>
<path d="M135.588 95.9569L120.502 87.2229L105.415 95.9569V113.424L120.502 122.158L135.588 113.534V95.9569Z" fill="black" stroke="#000641"/>
<path d="M859.745 95.9569L844.659 87.2229L829.572 95.9569V113.424L844.659 122.158L859.745 113.534V95.9569Z" fill="black" stroke="#000641"/>
<path d="M226.108 95.9569L211.021 87.2229L195.934 95.9569V113.424L211.021 122.158L226.108 113.534V95.9569Z" fill="black" stroke="#000641"/>
<path d="M75.2417 95.9569L60.155 87.2229L45.0684 95.9569V113.424L60.155 122.158L75.2417 113.534V95.9569Z" fill="black" stroke="#000641"/>
<path d="M45.2596 95.9569L30.173 87.2229L15.0864 95.9569V113.424L30.173 122.158L45.2596 113.534V95.9569Z" fill="black" stroke="#000641"/>
<path d="M799.398 95.9569L784.311 87.2229L769.224 95.9569V113.424L784.311 122.158L799.398 113.534V95.9569Z" fill="black" stroke="#000641"/>
<path d="M889.92 95.9569L874.833 87.2229L859.747 95.9569V113.424L874.833 122.158L889.92 113.534V95.9569Z" fill="black" stroke="#000641"/>
<path d="M286.454 95.9569L271.367 87.2229L256.28 95.9569V113.424L271.367 122.158L286.454 113.534V95.9569Z" fill="black" stroke="#000641"/>
<path d="M1101.13 95.9569L1086.04 87.2229L1070.96 95.9569V113.424L1086.04 122.158L1101.13 113.534V95.9569Z" fill="black" stroke="#000641"/>
<path d="M316.628 95.9569L301.541 87.2229L286.455 95.9569V113.424L301.541 122.158L316.628 113.534V95.9569Z" fill="black" stroke="#000641"/>
<path d="M1040.78 95.9569L1025.7 87.2229L1010.61 95.9569V113.424L1025.7 122.158L1040.78 113.534V95.9569Z" fill="black" stroke="#000641"/>
<path d="M407.147 95.9569L392.06 87.2229L376.974 95.9569V113.424L392.06 122.158L407.147 113.534V95.9569Z" fill="black" stroke="#000641"/>
<path d="M256.28 95.9569L241.193 87.2229L226.107 95.9569V113.424L241.193 122.158L256.28 113.534V95.9569Z" fill="black" stroke="#000641"/>
<path d="M980.438 95.9569L965.351 87.2229L950.264 95.9569V113.424L965.351 122.158L980.438 113.534V95.9569Z" fill="black" stroke="#000641"/>
<path d="M346.799 95.9569L331.713 87.2229L316.626 95.9569V113.424L331.713 122.158L346.799 113.534V95.9569Z" fill="black" stroke="#000641"/>
<path d="M1070.96 95.9569L1055.87 87.2229L1040.78 95.9569V113.424L1055.87 122.158L1070.96 113.534V95.9569Z" fill="black" stroke="#000641"/>
<path d="M467.493 95.9569L452.407 87.2229L437.32 95.9569V113.424L452.407 122.158L467.493 113.534V95.9569Z" fill="black" stroke="#000641"/>
<path d="M1191.65 95.9569L1176.56 87.2229L1161.48 95.9569V113.424L1176.56 122.158L1191.65 113.534V95.9569Z" fill="black" stroke="#000641"/>
<path d="M558.012 95.9569L542.926 87.2229L527.839 95.9569V113.424L542.926 122.158L558.012 113.534V95.9569Z" fill="black" stroke="#000641"/>
<path d="M1282.17 95.9569L1267.08 87.2229L1252 95.9569V113.424L1267.08 122.158L1282.17 113.534V95.9569Z" fill="black" stroke="#000641"/>
<path d="M497.666 95.9569L482.58 87.2229L467.493 95.9569V113.424L482.58 122.158L497.666 113.534V95.9569Z" fill="black" stroke="#000641"/>
<path d="M1221.82 95.9569L1206.74 87.2229L1191.65 95.9569V113.424L1206.74 122.158L1221.82 113.534V95.9569Z" fill="black" stroke="#000641"/>
<path d="M588.187 95.9569L573.1 87.2229L558.013 95.9569V113.424L573.1 122.158L588.187 113.534V95.9569Z" fill="black" stroke="#000641"/>
<path d="M1312.34 95.9569L1297.26 87.2229L1282.17 95.9569V113.424L1297.26 122.158L1312.34 113.534V95.9569Z" fill="black" stroke="#000641"/>
<path d="M437.32 95.9569L422.233 87.2229L407.147 95.9569V113.424L422.233 122.158L437.32 113.534V95.9569Z" fill="black" stroke="#000641"/>
<path d="M1161.48 95.9569L1146.39 87.2229L1131.3 95.9569V113.424L1146.39 122.158L1161.48 113.534V95.9569Z" fill="black" stroke="#000641"/>
<path d="M527.84 95.9569L512.754 87.2229L497.667 95.9569V113.424L512.754 122.158L527.84 113.534V95.9569Z" fill="black" stroke="#000641"/>
<path d="M1252 95.9569L1236.91 87.2229L1221.82 95.9569V113.424L1236.91 122.158L1252 113.534V95.9569Z" fill="black" stroke="#000641"/>
<path d="M648.533 95.9569L633.446 87.2229L618.359 95.9569V113.424L633.446 122.158L648.533 113.534V95.9569Z" fill="black" stroke="#000641"/>
<path d="M1372.69 95.9569L1357.6 87.2229L1342.52 95.9569V113.424L1357.6 122.158L1372.69 113.534V95.9569Z" fill="black" stroke="#000641"/>
<path d="M739.053 95.9569L723.966 87.2229L708.88 95.9569V113.424L723.966 122.158L739.053 113.534V95.9569Z" fill="black" stroke="#000641"/>
<path d="M678.705 95.9569L663.619 87.2229L648.532 95.9569V113.424L663.619 122.158L678.705 113.534V95.9569Z" fill="black" stroke="#000641"/>
<path d="M1402.86 95.9569L1387.78 87.2229L1372.69 95.9569V113.424L1387.78 122.158L1402.86 113.534V95.9569Z" fill="black" stroke="#000641"/>
<path d="M769.225 95.9569L754.138 87.2229L739.052 95.9569V113.424L754.138 122.158L769.225 113.534V95.9569Z" fill="black" stroke="#000641"/>
<path d="M618.36 95.9569L603.273 87.2229L588.186 95.9569V113.424L603.273 122.158L618.36 113.534V95.9569Z" fill="black" stroke="#000641"/>
<path d="M1342.52 95.9569L1327.43 87.2229L1312.34 95.9569V113.424L1327.43 122.158L1342.52 113.534V95.9569Z" fill="black" stroke="#000641"/>
<path d="M1433.03 95.9569L1417.95 87.2229L1402.86 95.9569V113.424L1417.95 122.158L1433.03 113.534V95.9569Z" fill="black" stroke="#000641"/>
<path d="M1463.02 95.9569L1447.93 87.2229L1432.84 95.9569V113.424L1447.93 122.158L1463.02 113.534V95.9569Z" fill="black" stroke="#000641"/>
<path d="M1493 95.9569L1477.91 87.2229L1462.82 95.9569V113.424L1477.91 122.158L1493 113.534V95.9569Z" fill="black" stroke="#000641"/>
<path d="M120.501 70.5489L105.414 61.8149L90.3276 70.5489V88.0169L105.414 96.7509L120.501 88.1259V70.5489Z" fill="black" stroke="#000641"/>
<path d="M844.658 70.5489L829.571 61.8149L814.484 70.5489V88.0169L829.571 96.7509L844.658 88.1259V70.5489Z" fill="black" stroke="#000641"/>
<path d="M211.02 70.5489L195.934 61.8149L180.847 70.5489V88.0169L195.934 96.7509L211.02 88.1259V70.5489Z" fill="black" stroke="#000641"/>
<path d="M935.179 70.5489L920.092 61.8149L905.006 70.5489V88.0169L920.092 96.7509L935.179 88.1259V70.5489Z" fill="black" stroke="#000641"/>
<path d="M150.674 70.5489L135.587 61.8149L120.501 70.5489V88.0169L135.587 96.7509L150.674 88.1259V70.5489Z" fill="black" stroke="#000641"/>
<path d="M241.195 70.5489L226.108 61.8149L211.021 70.5489V88.0169L226.108 96.7509L241.195 88.1259V70.5489Z" fill="black" stroke="#000641"/>
<path d="M60.1552 70.5489L45.0686 61.8149L29.9819 70.5489V88.0169L45.0686 96.7509L60.1552 88.1259V70.5489Z" fill="black" stroke="#000641"/>
<path d="M30.1732 70.5489L15.0866 61.8149L0 70.5489V88.0169L15.0866 96.7509L30.1732 88.1259V70.5489Z" fill="black" stroke="#000641"/>
<path d="M814.486 70.5489L799.399 61.8149L784.312 70.5489V88.0169L799.399 96.7509L814.486 88.1259V70.5489Z" fill="black" stroke="#000641"/>
<path d="M301.541 70.5489L286.454 61.8149L271.367 70.5489V88.0169L286.454 96.7509L301.541 88.1259V70.5489Z" fill="black" stroke="#000641"/>
<path d="M1025.7 70.5489L1010.61 61.8149L995.524 70.5489V88.0169L1010.61 96.7509L1025.7 88.1259V70.5489Z" fill="black" stroke="#000641"/>
<path d="M392.061 70.5489L376.974 61.8149L361.888 70.5489V88.0169L376.974 96.7509L392.061 88.1259V70.5489Z" fill="black" stroke="#000641"/>
<path d="M1116.22 70.5489L1101.13 61.8149L1086.04 70.5489V88.0169L1101.13 96.7509L1116.22 88.1259V70.5489Z" fill="black" stroke="#000641"/>
<path d="M331.714 70.5489L316.627 61.8149L301.54 70.5489V88.0169L316.627 96.7509L331.714 88.1259V70.5489Z" fill="black" stroke="#000641"/>
<path d="M1055.87 70.5489L1040.78 61.8149L1025.7 70.5489V88.0169L1040.78 96.7509L1055.87 88.1259V70.5489Z" fill="black" stroke="#000641"/>
<path d="M1086.05 70.5489L1070.96 61.8149L1055.87 70.5489V88.0169L1070.96 96.7509L1086.05 88.1259V70.5489Z" fill="black" stroke="#000641"/>
<path d="M1206.74 70.5489L1191.65 61.8149L1176.56 70.5489V88.0169L1191.65 96.7509L1206.74 88.1259V70.5489Z" fill="black" stroke="#000641"/>
<path d="M512.753 70.5489L497.667 61.8149L482.58 70.5489V88.0169L497.667 96.7509L512.753 88.1259V70.5489Z" fill="black" stroke="#000641"/>
<path d="M1236.91 70.5489L1221.82 61.8149L1206.74 70.5489V88.0169L1221.82 96.7509L1236.91 88.1259V70.5489Z" fill="black" stroke="#000641"/>
<path d="M603.273 70.5489L588.186 61.8149L573.099 70.5489V88.0169L588.186 96.7509L603.273 88.1259V70.5489Z" fill="black" stroke="#000641"/>
<path d="M1327.43 70.5489L1312.34 61.8149L1297.26 70.5489V88.0169L1312.34 96.7509L1327.43 88.1259V70.5489Z" fill="black" stroke="#000641"/>
<path d="M452.407 70.5489L437.32 61.8149L422.233 70.5489V88.0169L437.32 96.7509L452.407 88.1259V70.5489Z" fill="black" stroke="#000641"/>
<path d="M663.62 70.5489L648.533 61.8149L633.447 70.5489V88.0169L648.533 96.7509L663.62 88.1259V70.5489Z" fill="black" stroke="#000641"/>
<path d="M1387.78 70.5489L1372.69 61.8149L1357.6 70.5489V88.0169L1372.69 96.7509L1387.78 88.1259V70.5489Z" fill="black" stroke="#000641"/>
<path d="M1448.12 70.5489L1433.04 61.8149L1417.95 70.5489V88.0169L1433.04 96.7509L1448.12 88.1259V70.5489Z" fill="black" stroke="#000641"/>
<path d="M1478.1 70.5489L1463.02 61.8149L1447.93 70.5489V88.0169L1463.02 96.7509L1478.1 88.1259V70.5489Z" fill="black" stroke="#000641"/>
<path d="M829.572 45.1415L814.485 36.4077L799.398 45.1415V62.6091L814.485 71.3431L829.572 62.7181V45.1415Z" fill="black" stroke="#000641"/>
<path d="M920.092 45.1415L905.005 36.4077L889.918 45.1415V62.6091L905.005 71.3431L920.092 62.7181V45.1415Z" fill="black" stroke="#000641"/>
<path d="M135.588 45.1415L120.502 36.4077L105.415 45.1415V62.6091L120.502 71.3431L135.588 62.7181V45.1415Z" fill="black" stroke="#000641"/>
<path d="M256.28 45.1415L241.193 36.4077L226.107 45.1415V62.6091L241.193 71.3431L256.28 62.7181V45.1415Z" fill="black" stroke="#000641"/>
<path d="M346.799 45.1415L331.713 36.4077L316.626 45.1415V62.6091L331.713 71.3431L346.799 62.7181V45.1415Z" fill="black" stroke="#000641"/>
<path d="M1070.96 45.1415L1055.87 36.4077L1040.78 45.1415V62.6091L1055.87 71.3431L1070.96 62.7181V45.1415Z" fill="black" stroke="#000641"/>
<path d="M467.493 45.1415L452.407 36.4077L437.32 45.1415V62.6091L452.407 71.3431L467.493 62.7181V45.1415Z" fill="black" stroke="#000641"/>
<path d="M1221.82 45.1415L1206.74 36.4077L1191.65 45.1415V62.6091L1206.74 71.3431L1221.82 62.7181V45.1415Z" fill="black" stroke="#000641"/>
<path d="M1312.34 45.1415L1297.26 36.4077L1282.17 45.1415V62.6091L1297.26 71.3431L1312.34 62.7181V45.1415Z" fill="black" stroke="#000641"/>
<path d="M1252 45.1415L1236.91 36.4077L1221.82 45.1415V62.6091L1236.91 71.3431L1252 62.7181V45.1415Z" fill="black" stroke="#000641"/>
<path d="M648.533 45.1415L633.446 36.4077L618.359 45.1415V62.6091L633.446 71.3431L648.533 62.7181V45.1415Z" fill="black" stroke="#000641"/>
<path d="M678.705 45.1415L663.619 36.4077L648.532 45.1415V62.6091L663.619 71.3431L678.705 62.7181V45.1415Z" fill="black" stroke="#000641"/>
<path d="M1433.03 45.1415L1417.95 36.4077L1402.86 45.1415V62.6091L1417.95 71.3431L1433.03 62.7181V45.1415Z" fill="black" stroke="#000641"/>
<path d="M1463.02 45.1415L1447.93 36.4077L1432.84 45.1415V62.6091L1447.93 71.3431L1463.02 62.7181V45.1415Z" fill="black" stroke="#000641"/>
<path d="M1493 45.1415L1477.91 36.4077L1462.82 45.1415V62.6091L1477.91 71.3431L1493 62.7181V45.1415Z" fill="black" stroke="#000641"/>
<path d="M1236.91 19.7338L1221.82 11L1206.74 19.7338V37.2015L1221.82 45.9354L1236.91 37.3108V19.7338Z" fill="black" stroke="#000641"/>
</g>
</g>
<defs>
<filter id="filter0_d_602_137" x="-50.5" y="-35.5776" width="1594" height="237.72" filterUnits="userSpaceOnUse" color-interpolation-filters="sRGB">
<feFlood flood-opacity="0" result="BackgroundImageFix"/>
<feColorMatrix in="SourceAlpha" type="matrix" values="0 0 0 0 0 0 0 0 0 0 0 0 0 0 0 0 0 0 127 0" result="hardAlpha"/>
<feOffset dy="4"/>
<feGaussianBlur stdDeviation="25"/>
<feComposite in2="hardAlpha" operator="out"/>
<feColorMatrix type="matrix" values="0 0 0 0 0 0 0 0 0 0 0 0 0 0 0 0 0 0 0.75 0"/>
<feBlend mode="normal" in2="BackgroundImageFix" result="effect1_dropShadow_602_137"/>
<feBlend mode="normal" in="SourceGraphic" in2="effect1_dropShadow_602_137" result="shape"/>
</filter>
<clipPath id="clip0_602_137">
<rect width="1493" height="139" fill="white"/>
</clipPath>
</defs>
</svg>
