<svg width="71" height="70" viewBox="0 0 71 70" fill="none" xmlns="http://www.w3.org/2000/svg">
<path d="M23.9897 70C30.4311 70 35.6589 64.7734 35.6589 58.3334V46.6667H23.9897C17.5483 46.6667 12.3206 51.8934 12.3206 58.3334C12.3206 64.7734 17.5483 70 23.9897 70Z" fill="#0ACE82"/>
<path d="M12.3206 35C12.3206 28.56 17.5483 23.3333 23.9897 23.3333H35.6589V46.6666H23.9897C17.5483 46.6666 12.3206 41.44 12.3206 35Z" fill="#A259FF"/>
<path d="M12.3206 11.6667C12.3206 5.22667 17.5483 0 23.9897 0H35.6589V23.3333H23.9897C17.5483 23.3333 12.3206 18.1067 12.3206 11.6667Z" fill="#F34E1E"/>
<path d="M35.6588 0H47.328C53.7693 0 58.9971 5.22667 58.9971 11.6667C58.9971 18.1067 53.7693 23.3333 47.328 23.3333H35.6588V0Z" fill="#FC7362"/>
<path d="M58.9971 35C58.9971 41.44 53.7693 46.6666 47.328 46.6666C40.8866 46.6666 35.6588 41.44 35.6588 35C35.6588 28.56 40.8866 23.3333 47.328 23.3333C53.7693 23.3333 58.9971 28.56 58.9971 35Z" fill="#1ABBFC"/>
</svg>
