<svg width="453" height="450" viewBox="0 0 453 450" fill="none" xmlns="http://www.w3.org/2000/svg">
<path d="M42.5123 128.528L207.009 33.556L371.505 128.528V318.472L207.009 413.444L42.5123 318.472V128.528Z" stroke="#312525" stroke-width="4"/>
<circle cx="40.7942" cy="127.59" r="7.81165" fill="#FF9141"/>
<circle cx="373.223" cy="127.59" r="7.81165" fill="#FF9141"/>
<circle cx="40.7942" cy="318.542" r="7.81165" fill="#FF9141"/>
<circle cx="373.223" cy="318.542" r="7.81165" fill="#FF9141"/>
<circle cx="206.575" cy="31.2466" r="7.81165" fill="#FF9141"/>
<circle cx="206.575" cy="415.753" r="7.81165" fill="#FF9141"/>
<path d="M2.38037 111.19C2.98096 110.453 3.76221 110.084 4.72412 110.084C6.39893 110.084 7.24365 111.029 7.2583 112.919V118.155H5.90332V112.911C5.89844 112.34 5.7666 111.918 5.50781 111.644C5.25391 111.371 4.85596 111.234 4.31396 111.234C3.87451 111.234 3.48877 111.351 3.15674 111.586C2.82471 111.82 2.56592 112.128 2.38037 112.508V118.155H1.02539V106.905H2.38037V111.19ZM11.1255 108.312V110.231H12.605V111.278H11.1255V116.192C11.1255 116.51 11.1914 116.749 11.3232 116.91C11.4551 117.066 11.6797 117.145 11.9971 117.145C12.1533 117.145 12.3682 117.115 12.6416 117.057V118.155C12.2852 118.253 11.9385 118.302 11.6016 118.302C10.9961 118.302 10.5396 118.119 10.2319 117.753C9.92432 117.386 9.77051 116.866 9.77051 116.192V111.278H8.32764V110.231H9.77051V108.312H11.1255ZM15.4688 110.231L15.5054 111.109C16.0864 110.426 16.8701 110.084 17.8564 110.084C18.9648 110.084 19.7192 110.509 20.1196 111.358C20.3833 110.978 20.7251 110.67 21.145 110.436C21.5698 110.201 22.0703 110.084 22.6465 110.084C24.3848 110.084 25.2686 111.004 25.2979 112.845V118.155H23.9429V112.926C23.9429 112.359 23.8135 111.937 23.5547 111.659C23.2959 111.376 22.8613 111.234 22.251 111.234C21.748 111.234 21.3306 111.385 20.9985 111.688C20.6665 111.986 20.4736 112.389 20.4199 112.897V118.155H19.0576V112.962C19.0576 111.81 18.4937 111.234 17.3657 111.234C16.4771 111.234 15.8691 111.612 15.542 112.369V118.155H14.187V110.231H15.4688ZM28.8208 118.155H27.4658V106.905H28.8208V118.155Z" fill="white"/>
<path d="M198.627 13.0405C199.111 13.0405 199.533 12.894 199.895 12.6011C200.256 12.3081 200.456 11.9419 200.495 11.5024H201.777C201.752 11.9565 201.596 12.3887 201.308 12.7988C201.02 13.209 200.634 13.5361 200.151 13.7803C199.672 14.0244 199.165 14.1465 198.627 14.1465C197.548 14.1465 196.689 13.7876 196.049 13.0698C195.415 12.3472 195.097 11.3608 195.097 10.1108V9.88379C195.097 9.1123 195.239 8.42627 195.522 7.82568C195.805 7.2251 196.21 6.75879 196.738 6.42676C197.27 6.09473 197.897 5.92871 198.62 5.92871C199.509 5.92871 200.246 6.19482 200.832 6.72705C201.423 7.25928 201.738 7.9502 201.777 8.7998H200.495C200.456 8.28711 200.261 7.86719 199.909 7.54004C199.562 7.20801 199.133 7.04199 198.62 7.04199C197.932 7.04199 197.397 7.29102 197.016 7.78906C196.64 8.28223 196.452 8.99756 196.452 9.93506V10.1914C196.452 11.1045 196.64 11.8076 197.016 12.3008C197.392 12.7939 197.929 13.0405 198.627 13.0405ZM207.915 11.8979C207.915 11.5317 207.775 11.2485 207.497 11.0483C207.224 10.8433 206.743 10.6675 206.054 10.521C205.371 10.3745 204.826 10.1987 204.421 9.99365C204.021 9.78857 203.723 9.54443 203.527 9.26123C203.337 8.97803 203.242 8.64111 203.242 8.25049C203.242 7.60107 203.515 7.05176 204.062 6.60254C204.614 6.15332 205.317 5.92871 206.171 5.92871C207.07 5.92871 207.797 6.16064 208.354 6.62451C208.916 7.08838 209.196 7.68164 209.196 8.4043H207.834C207.834 8.0332 207.675 7.71338 207.358 7.44482C207.045 7.17627 206.65 7.04199 206.171 7.04199C205.678 7.04199 205.292 7.14941 205.014 7.36426C204.736 7.5791 204.597 7.85986 204.597 8.20654C204.597 8.53369 204.726 8.78027 204.985 8.94629C205.244 9.1123 205.71 9.271 206.384 9.42236C207.062 9.57373 207.612 9.75439 208.032 9.96436C208.452 10.1743 208.762 10.4282 208.962 10.7261C209.167 11.019 209.27 11.3779 209.27 11.8027C209.27 12.5107 208.986 13.0796 208.42 13.5093C207.854 13.9341 207.119 14.1465 206.215 14.1465C205.581 14.1465 205.019 14.0342 204.531 13.8096C204.042 13.585 203.659 13.2725 203.381 12.8721C203.107 12.4668 202.971 12.0298 202.971 11.561H204.326C204.35 12.0151 204.531 12.3765 204.868 12.645C205.209 12.9087 205.659 13.0405 206.215 13.0405C206.728 13.0405 207.138 12.938 207.446 12.7329C207.758 12.5229 207.915 12.2446 207.915 11.8979ZM215.649 11.8979C215.649 11.5317 215.51 11.2485 215.231 11.0483C214.958 10.8433 214.477 10.6675 213.789 10.521C213.105 10.3745 212.561 10.1987 212.155 9.99365C211.755 9.78857 211.457 9.54443 211.262 9.26123C211.071 8.97803 210.976 8.64111 210.976 8.25049C210.976 7.60107 211.25 7.05176 211.796 6.60254C212.348 6.15332 213.051 5.92871 213.906 5.92871C214.804 5.92871 215.532 6.16064 216.088 6.62451C216.65 7.08838 216.931 7.68164 216.931 8.4043H215.568C215.568 8.0332 215.41 7.71338 215.092 7.44482C214.78 7.17627 214.384 7.04199 213.906 7.04199C213.413 7.04199 213.027 7.14941 212.749 7.36426C212.47 7.5791 212.331 7.85986 212.331 8.20654C212.331 8.53369 212.46 8.78027 212.719 8.94629C212.978 9.1123 213.444 9.271 214.118 9.42236C214.797 9.57373 215.346 9.75439 215.766 9.96436C216.186 10.1743 216.496 10.4282 216.696 10.7261C216.901 11.019 217.004 11.3779 217.004 11.8027C217.004 12.5107 216.721 13.0796 216.154 13.5093C215.588 13.9341 214.853 14.1465 213.95 14.1465C213.315 14.1465 212.753 14.0342 212.265 13.8096C211.777 13.585 211.394 13.2725 211.115 12.8721C210.842 12.4668 210.705 12.0298 210.705 11.561H212.06C212.084 12.0151 212.265 12.3765 212.602 12.645C212.944 12.9087 213.393 13.0405 213.95 13.0405C214.462 13.0405 214.873 12.938 215.18 12.7329C215.493 12.5229 215.649 12.2446 215.649 11.8979Z" fill="white"/>
<path d="M378.929 107.491H380.343V115.043C380.343 116.063 380.035 116.861 379.42 117.438C378.809 118.014 377.994 118.302 376.973 118.302C375.914 118.302 375.089 118.031 374.498 117.489C373.907 116.947 373.612 116.188 373.612 115.211H375.018C375.018 115.821 375.184 116.297 375.516 116.639C375.853 116.981 376.339 117.152 376.973 117.152C377.554 117.152 378.023 116.969 378.38 116.603C378.741 116.236 378.924 115.724 378.929 115.065V107.491ZM387.418 118.155C387.34 117.999 387.276 117.721 387.227 117.32C386.597 117.975 385.845 118.302 384.971 118.302C384.19 118.302 383.548 118.082 383.045 117.643C382.547 117.198 382.298 116.637 382.298 115.958C382.298 115.133 382.611 114.493 383.236 114.039C383.865 113.58 384.749 113.351 385.887 113.351H387.205V112.728C387.205 112.254 387.064 111.878 386.781 111.6C386.497 111.317 386.08 111.175 385.528 111.175C385.045 111.175 384.639 111.297 384.312 111.542C383.985 111.786 383.822 112.081 383.822 112.428H382.459C382.459 112.032 382.598 111.651 382.877 111.285C383.16 110.914 383.541 110.621 384.019 110.406C384.503 110.191 385.032 110.084 385.609 110.084C386.522 110.084 387.237 110.314 387.755 110.773C388.272 111.227 388.541 111.854 388.56 112.655V116.302C388.56 117.03 388.653 117.608 388.839 118.038V118.155H387.418ZM385.169 117.123C385.594 117.123 385.997 117.013 386.378 116.793C386.759 116.573 387.034 116.288 387.205 115.936V114.31H386.143C384.483 114.31 383.653 114.796 383.653 115.768C383.653 116.192 383.795 116.524 384.078 116.764C384.361 117.003 384.725 117.123 385.169 117.123ZM393.182 116.317L395.145 110.231H396.529L393.687 118.155H392.655L389.783 110.231H391.168L393.182 116.317ZM402.608 118.155C402.53 117.999 402.467 117.721 402.418 117.32C401.788 117.975 401.036 118.302 400.162 118.302C399.381 118.302 398.739 118.082 398.236 117.643C397.738 117.198 397.489 116.637 397.489 115.958C397.489 115.133 397.801 114.493 398.426 114.039C399.056 113.58 399.94 113.351 401.077 113.351H402.396V112.728C402.396 112.254 402.254 111.878 401.971 111.6C401.688 111.317 401.27 111.175 400.719 111.175C400.235 111.175 399.83 111.297 399.503 111.542C399.176 111.786 399.012 112.081 399.012 112.428H397.65C397.65 112.032 397.789 111.651 398.067 111.285C398.35 110.914 398.731 110.621 399.21 110.406C399.693 110.191 400.223 110.084 400.799 110.084C401.712 110.084 402.427 110.314 402.945 110.773C403.463 111.227 403.731 111.854 403.751 112.655V116.302C403.751 117.03 403.844 117.608 404.029 118.038V118.155H402.608ZM400.36 117.123C400.784 117.123 401.187 117.013 401.568 116.793C401.949 116.573 402.225 116.288 402.396 115.936V114.31H401.334C399.674 114.31 398.844 114.796 398.844 115.768C398.844 116.192 398.985 116.524 399.268 116.764C399.552 117.003 399.915 117.123 400.36 117.123ZM409.229 113.402C408.023 113.055 407.144 112.63 406.593 112.128C406.046 111.62 405.772 110.995 405.772 110.253C405.772 109.413 406.107 108.719 406.776 108.172C407.449 107.621 408.323 107.345 409.398 107.345C410.13 107.345 410.782 107.486 411.353 107.77C411.929 108.053 412.374 108.443 412.686 108.941C413.004 109.44 413.162 109.984 413.162 110.575H411.749C411.749 109.93 411.544 109.425 411.134 109.059C410.723 108.688 410.145 108.502 409.398 108.502C408.704 108.502 408.162 108.656 407.772 108.963C407.386 109.266 407.193 109.689 407.193 110.231C407.193 110.665 407.376 111.034 407.742 111.336C408.114 111.634 408.741 111.908 409.625 112.157C410.513 112.406 411.207 112.682 411.705 112.984C412.208 113.282 412.579 113.631 412.818 114.032C413.062 114.432 413.184 114.903 413.184 115.445C413.184 116.31 412.847 117.003 412.174 117.525C411.5 118.043 410.599 118.302 409.471 118.302C408.739 118.302 408.055 118.163 407.42 117.884C406.785 117.601 406.295 117.215 405.948 116.727C405.606 116.239 405.435 115.685 405.435 115.065H406.849C406.849 115.709 407.086 116.219 407.559 116.595C408.038 116.966 408.675 117.152 409.471 117.152C410.213 117.152 410.782 117.001 411.177 116.698C411.573 116.395 411.771 115.982 411.771 115.46C411.771 114.938 411.588 114.535 411.221 114.252C410.855 113.963 410.191 113.68 409.229 113.402ZM417.96 117.196C418.443 117.196 418.865 117.049 419.227 116.756C419.588 116.463 419.788 116.097 419.827 115.658H421.109C421.085 116.112 420.928 116.544 420.64 116.954C420.352 117.364 419.967 117.691 419.483 117.936C419.005 118.18 418.497 118.302 417.96 118.302C416.881 118.302 416.021 117.943 415.382 117.225C414.747 116.503 414.429 115.516 414.429 114.266V114.039C414.429 113.268 414.571 112.582 414.854 111.981C415.137 111.38 415.543 110.914 416.07 110.582C416.602 110.25 417.23 110.084 417.952 110.084C418.841 110.084 419.578 110.35 420.164 110.882C420.755 111.415 421.07 112.106 421.109 112.955H419.827C419.788 112.442 419.593 112.023 419.241 111.695C418.895 111.363 418.465 111.197 417.952 111.197C417.264 111.197 416.729 111.446 416.348 111.944C415.972 112.438 415.784 113.153 415.784 114.09V114.347C415.784 115.26 415.972 115.963 416.348 116.456C416.724 116.949 417.261 117.196 417.96 117.196ZM426.463 111.446C426.258 111.412 426.036 111.395 425.797 111.395C424.908 111.395 424.305 111.773 423.988 112.53V118.155H422.633V110.231H423.951L423.973 111.146C424.417 110.438 425.047 110.084 425.863 110.084C426.126 110.084 426.326 110.118 426.463 110.187V111.446ZM429.188 118.155H427.833V110.231H429.188V118.155ZM427.723 108.128C427.723 107.909 427.789 107.723 427.921 107.572C428.057 107.42 428.258 107.345 428.521 107.345C428.785 107.345 428.985 107.42 429.122 107.572C429.259 107.723 429.327 107.909 429.327 108.128C429.327 108.348 429.259 108.531 429.122 108.678C428.985 108.824 428.785 108.898 428.521 108.898C428.258 108.898 428.057 108.824 427.921 108.678C427.789 108.531 427.723 108.348 427.723 108.128ZM438.057 114.281C438.057 115.487 437.781 116.459 437.23 117.196C436.678 117.933 435.931 118.302 434.989 118.302C434.027 118.302 433.27 117.997 432.718 117.386V121.202H431.363V110.231H432.601L432.667 111.109C433.219 110.426 433.985 110.084 434.967 110.084C435.919 110.084 436.671 110.443 437.222 111.161C437.779 111.878 438.057 112.877 438.057 114.156V114.281ZM436.702 114.127C436.702 113.233 436.512 112.528 436.131 112.01C435.75 111.493 435.228 111.234 434.564 111.234C433.743 111.234 433.128 111.598 432.718 112.325V116.112C433.123 116.835 433.743 117.196 434.578 117.196C435.228 117.196 435.743 116.94 436.124 116.427C436.51 115.909 436.702 115.143 436.702 114.127ZM441.624 108.312V110.231H443.104V111.278H441.624V116.192C441.624 116.51 441.69 116.749 441.822 116.91C441.954 117.066 442.178 117.145 442.496 117.145C442.652 117.145 442.867 117.115 443.14 117.057V118.155C442.784 118.253 442.437 118.302 442.1 118.302C441.495 118.302 441.038 118.119 440.731 117.753C440.423 117.386 440.269 116.866 440.269 116.192V111.278H438.826V110.231H440.269V108.312H441.624ZM449.307 116.053C449.307 115.687 449.168 115.404 448.89 115.204C448.616 114.999 448.135 114.823 447.447 114.676C446.763 114.53 446.219 114.354 445.814 114.149C445.413 113.944 445.115 113.7 444.92 113.417C444.73 113.133 444.635 112.796 444.635 112.406C444.635 111.756 444.908 111.207 445.455 110.758C446.007 110.309 446.71 110.084 447.564 110.084C448.463 110.084 449.19 110.316 449.747 110.78C450.308 111.244 450.589 111.837 450.589 112.56H449.227C449.227 112.189 449.068 111.869 448.751 111.6C448.438 111.332 448.043 111.197 447.564 111.197C447.071 111.197 446.685 111.305 446.407 111.52C446.129 111.734 445.99 112.015 445.99 112.362C445.99 112.689 446.119 112.936 446.378 113.102C446.636 113.268 447.103 113.426 447.777 113.578C448.455 113.729 449.005 113.91 449.425 114.12C449.844 114.33 450.155 114.584 450.355 114.881C450.56 115.174 450.662 115.533 450.662 115.958C450.662 116.666 450.379 117.235 449.813 117.665C449.246 118.089 448.511 118.302 447.608 118.302C446.973 118.302 446.412 118.19 445.924 117.965C445.435 117.74 445.052 117.428 444.774 117.027C444.5 116.622 444.364 116.185 444.364 115.716H445.719C445.743 116.17 445.924 116.532 446.26 116.8C446.602 117.064 447.052 117.196 447.608 117.196C448.121 117.196 448.531 117.093 448.839 116.888C449.151 116.678 449.307 116.4 449.307 116.053Z" fill="white"/>
<path d="M381.829 337.79H378.402V347.297H377.003V337.79H373.582V336.633H381.829V337.79ZM384.671 347.297H383.316V339.372H384.671V347.297ZM383.206 337.27C383.206 337.051 383.272 336.865 383.404 336.714C383.541 336.562 383.741 336.487 384.005 336.487C384.268 336.487 384.469 336.562 384.605 336.714C384.742 336.865 384.81 337.051 384.81 337.27C384.81 337.49 384.742 337.673 384.605 337.82C384.469 337.966 384.268 338.039 384.005 338.039C383.741 338.039 383.541 337.966 383.404 337.82C383.272 337.673 383.206 337.49 383.206 337.27ZM388.319 347.297H386.964V336.047H388.319V347.297ZM390.164 343.269C390.164 342.053 390.452 341.076 391.029 340.339C391.605 339.597 392.359 339.226 393.292 339.226C394.219 339.226 394.954 339.543 395.496 340.178V336.047H396.851V347.297H395.606L395.54 346.447C394.998 347.112 394.244 347.444 393.277 347.444C392.359 347.444 391.61 347.068 391.029 346.316C390.452 345.564 390.164 344.582 390.164 343.371V343.269ZM391.519 343.423C391.519 344.321 391.705 345.024 392.076 345.532C392.447 346.04 392.96 346.294 393.614 346.294C394.473 346.294 395.101 345.908 395.496 345.136V341.496C395.091 340.749 394.469 340.376 393.629 340.376C392.965 340.376 392.447 340.632 392.076 341.145C391.705 341.657 391.519 342.417 391.519 343.423ZM403.853 347.297C403.775 347.141 403.712 346.863 403.663 346.462C403.033 347.116 402.281 347.444 401.407 347.444C400.626 347.444 399.984 347.224 399.481 346.784C398.983 346.34 398.734 345.779 398.734 345.1C398.734 344.275 399.046 343.635 399.671 343.181C400.301 342.722 401.185 342.492 402.323 342.492H403.641V341.87C403.641 341.396 403.499 341.02 403.216 340.742C402.933 340.459 402.515 340.317 401.964 340.317C401.48 340.317 401.075 340.439 400.748 340.683C400.421 340.927 400.257 341.223 400.257 341.57H398.895C398.895 341.174 399.034 340.793 399.312 340.427C399.595 340.056 399.976 339.763 400.455 339.548C400.938 339.333 401.468 339.226 402.044 339.226C402.957 339.226 403.673 339.455 404.19 339.914C404.708 340.368 404.976 340.996 404.996 341.797V345.444C404.996 346.172 405.089 346.75 405.274 347.18V347.297H403.853ZM401.605 346.264C402.03 346.264 402.432 346.155 402.813 345.935C403.194 345.715 403.47 345.429 403.641 345.078V343.452H402.579C400.919 343.452 400.089 343.938 400.089 344.909C400.089 345.334 400.23 345.666 400.513 345.905C400.797 346.145 401.16 346.264 401.605 346.264Z" fill="white"/>
<path d="M207.874 443.978C207.513 444.495 207.008 444.884 206.358 445.142C205.714 445.396 204.962 445.523 204.102 445.523C203.233 445.523 202.462 445.321 201.788 444.915C201.114 444.505 200.592 443.924 200.221 443.172C199.854 442.42 199.666 441.549 199.657 440.557V439.627C199.657 438.021 200.03 436.776 200.777 435.892C201.529 435.008 202.584 434.566 203.941 434.566C205.055 434.566 205.951 434.852 206.629 435.423C207.308 435.989 207.723 436.795 207.874 437.84H206.468C206.204 436.429 205.365 435.723 203.949 435.723C203.006 435.723 202.291 436.055 201.803 436.719C201.319 437.379 201.075 438.336 201.07 439.591V440.462C201.07 441.658 201.344 442.611 201.891 443.319C202.437 444.022 203.177 444.373 204.11 444.373C204.637 444.373 205.099 444.315 205.494 444.197C205.89 444.08 206.217 443.883 206.475 443.604V441.209H204.007V440.067H207.874V443.978ZM211.485 445.377H210.13V437.452H211.485V445.377ZM210.02 435.35C210.02 435.13 210.086 434.945 210.218 434.793C210.355 434.642 210.555 434.566 210.819 434.566C211.082 434.566 211.283 434.642 211.419 434.793C211.556 434.945 211.624 435.13 211.624 435.35C211.624 435.57 211.556 435.753 211.419 435.899C211.283 436.046 211.082 436.119 210.819 436.119C210.555 436.119 210.355 436.046 210.218 435.899C210.086 435.753 210.02 435.57 210.02 435.35ZM215.499 435.533V437.452H216.978V438.499H215.499V443.414C215.499 443.731 215.565 443.97 215.697 444.132C215.828 444.288 216.053 444.366 216.37 444.366C216.527 444.366 216.742 444.337 217.015 444.278V445.377C216.659 445.474 216.312 445.523 215.975 445.523C215.37 445.523 214.913 445.34 214.605 444.974C214.298 444.608 214.144 444.088 214.144 443.414V438.499H212.701V437.452H214.144V435.533H215.499Z" fill="white"/>
<path d="M15.6342 336.483C15.6439 335.901 15.7098 335.442 15.8319 335.106C15.954 334.769 16.203 334.395 16.579 333.985L17.5385 332.996C17.9486 332.532 18.1537 332.034 18.1537 331.502C18.1537 330.989 18.0194 330.589 17.7509 330.301C17.4823 330.008 17.0917 329.861 16.579 329.861C16.0809 329.861 15.6805 329.993 15.3778 330.257C15.0751 330.521 14.9237 330.875 14.9237 331.319H13.5687C13.5785 330.528 13.8593 329.891 14.411 329.407C14.9677 328.919 15.6903 328.675 16.579 328.675C17.5018 328.675 18.2196 328.924 18.7323 329.422C19.2499 329.915 19.5087 330.594 19.5087 331.458C19.5087 332.313 19.1132 333.155 18.3221 333.985L17.5238 334.776C17.1674 335.171 16.9891 335.74 16.9891 336.483H15.6342ZM15.5756 338.804C15.5756 338.585 15.6415 338.401 15.7733 338.255C15.91 338.104 16.1102 338.028 16.3739 338.028C16.6376 338.028 16.8378 338.104 16.9745 338.255C17.1112 338.401 17.1796 338.585 17.1796 338.804C17.1796 339.024 17.1112 339.207 16.9745 339.354C16.8378 339.495 16.6376 339.566 16.3739 339.566C16.1102 339.566 15.91 339.495 15.7733 339.354C15.6415 339.207 15.5756 339.024 15.5756 338.804ZM22.724 336.483C22.7338 335.901 22.7997 335.442 22.9218 335.106C23.0438 334.769 23.2928 334.395 23.6688 333.985L24.6283 332.996C25.0385 332.532 25.2435 332.034 25.2435 331.502C25.2435 330.989 25.1093 330.589 24.8407 330.301C24.5721 330.008 24.1815 329.861 23.6688 329.861C23.1708 329.861 22.7704 329.993 22.4677 330.257C22.1649 330.521 22.0135 330.875 22.0135 331.319H20.6586C20.6683 330.528 20.9491 329.891 21.5009 329.407C22.0575 328.919 22.7802 328.675 23.6688 328.675C24.5917 328.675 25.3094 328.924 25.8221 329.422C26.3397 329.915 26.5985 330.594 26.5985 331.458C26.5985 332.313 26.203 333.155 25.412 333.985L24.6136 334.776C24.2572 335.171 24.079 335.74 24.079 336.483H22.724ZM22.6654 338.804C22.6654 338.585 22.7313 338.401 22.8632 338.255C22.9999 338.104 23.2001 338.028 23.4637 338.028C23.7274 338.028 23.9276 338.104 24.0643 338.255C24.201 338.401 24.2694 338.585 24.2694 338.804C24.2694 339.024 24.201 339.207 24.0643 339.354C23.9276 339.495 23.7274 339.566 23.4637 339.566C23.2001 339.566 22.9999 339.495 22.8632 339.354C22.7313 339.207 22.6654 339.024 22.6654 338.804ZM29.8138 336.483C29.8236 335.901 29.8895 335.442 30.0116 335.106C30.1337 334.769 30.3827 334.395 30.7587 333.985L31.7181 332.996C32.1283 332.532 32.3334 332.034 32.3334 331.502C32.3334 330.989 32.1991 330.589 31.9305 330.301C31.662 330.008 31.2714 329.861 30.7587 329.861C30.2606 329.861 29.8602 329.993 29.5575 330.257C29.2548 330.521 29.1034 330.875 29.1034 331.319H27.7484C27.7582 330.528 28.0389 329.891 28.5907 329.407C29.1473 328.919 29.87 328.675 30.7587 328.675C31.6815 328.675 32.3993 328.924 32.912 329.422C33.4296 329.915 33.6884 330.594 33.6884 331.458C33.6884 332.313 33.2928 333.155 32.5018 333.985L31.7035 334.776C31.347 335.171 31.1688 335.74 31.1688 336.483H29.8138ZM29.7552 338.804C29.7552 338.585 29.8212 338.401 29.953 338.255C30.0897 338.104 30.2899 338.028 30.5536 338.028C30.8173 338.028 31.0175 338.104 31.1542 338.255C31.2909 338.401 31.3593 338.585 31.3593 338.804C31.3593 339.024 31.2909 339.207 31.1542 339.354C31.0175 339.495 30.8173 339.566 30.5536 339.566C30.2899 339.566 30.0897 339.495 29.953 339.354C29.8212 339.207 29.7552 339.024 29.7552 338.804Z" fill="white"/>
<path d="M50.3418 132.798L79.8525 150.157" stroke="#FFF741" stroke-width="3" stroke-linecap="round" stroke-linejoin="round" stroke-dasharray="5 5"/>
<path d="M93.3058 289.031L110.231 279.484L110.231 252.143" stroke="#FFF741" stroke-width="3" stroke-linecap="round" stroke-linejoin="round" stroke-dasharray="5 5"/>
</svg>
