<svg width="40" height="40" viewBox="0 0 40 40" fill="none" xmlns="http://www.w3.org/2000/svg">
<g clip-path="url(#clip0)">
<path d="M36.7178 5.53027C38.52 5.53027 39.9947 7.0049 39.9947 8.80713V9.75709L35.4421 13.0091L19.9428 23.6858L4.44346 12.9008V34.47H3.27689C1.47466 34.47 0 32.9954 0 31.1931V8.80804C0 7.00578 1.47466 5.53115 3.27689 5.53115L19.9428 17.8876L36.7169 5.53115L36.7178 5.53027Z" fill="#E75A4D"/>
<path d="M3.27692 5.53027L19.9428 17.8867L36.7178 5.53027H3.27692Z" fill="url(#paint0_linear)"/>
<path d="M4.44348 12.9004V34.4695H35.443V13.0087L19.9428 23.6854L4.44348 12.9004Z" fill="#E7E4D7"/>
<path d="M4.44348 34.4698L19.9428 23.6857L19.8726 23.636L4.44348 34.2328V34.4698Z" fill="#B8B7AE"/>
<path d="M35.4429 13.009L35.4518 34.4699L19.9427 23.6858L35.4429 13.009Z" fill="#B7B6AD"/>
<path d="M39.9947 9.75698L40 31.1957C39.9219 33.5785 38.8894 34.4291 35.4518 34.469L35.4429 13.0081L39.9956 9.7561L39.9947 9.75698Z" fill="#B2392F"/>
<path d="M3.27692 5.53027L19.9428 17.8867L36.7178 5.53027H3.27692Z" fill="url(#paint1_linear)"/>
<path d="M3.27692 5.53027L19.9428 17.8867L36.7178 5.53027H3.27692Z" fill="url(#paint2_linear)"/>
<path d="M3.27692 5.53027L19.9428 17.8867L36.7178 5.53027H3.27692Z" fill="url(#paint3_linear)"/>
<path d="M3.27692 5.53027L19.9428 17.8867L36.7178 5.53027H3.27692Z" fill="url(#paint4_linear)"/>
<path d="M3.27692 5.53027L19.9428 17.8867L36.7178 5.53027H3.27692Z" fill="url(#paint5_linear)"/>
<path d="M3.27692 5.53027L19.9428 17.8867L36.7178 5.53027H3.27692Z" fill="url(#paint6_linear)"/>
<path d="M3.27692 5.53027L19.9428 17.8867L36.7178 5.53027H3.27692Z" fill="url(#paint7_linear)"/>
<path d="M3.27692 5.53027L19.9428 17.8867L36.7178 5.53027H3.27692Z" fill="#F7F5ED"/>
</g>
<defs>
<linearGradient id="paint0_linear" x1="9.29365" y1="11.7096" x2="30.6604" y2="11.7096" gradientUnits="userSpaceOnUse">
<stop stop-color="#F8F6EF"/>
<stop offset="1" stop-color="#E7E4D6"/>
</linearGradient>
<linearGradient id="paint1_linear" x1="9.29365" y1="11.7096" x2="30.6604" y2="11.7096" gradientUnits="userSpaceOnUse">
<stop stop-color="#F8F6EF"/>
<stop offset="1" stop-color="#E7E4D6"/>
</linearGradient>
<linearGradient id="paint2_linear" x1="9.29365" y1="11.7096" x2="30.6604" y2="11.7096" gradientUnits="userSpaceOnUse">
<stop stop-color="#F8F6EF"/>
<stop offset="1" stop-color="#E7E4D6"/>
</linearGradient>
<linearGradient id="paint3_linear" x1="9.29365" y1="11.7096" x2="30.6604" y2="11.7096" gradientUnits="userSpaceOnUse">
<stop stop-color="#F8F6EF"/>
<stop offset="1" stop-color="#E7E4D6"/>
</linearGradient>
<linearGradient id="paint4_linear" x1="9.29365" y1="11.7096" x2="30.6604" y2="11.7096" gradientUnits="userSpaceOnUse">
<stop stop-color="#F8F6EF"/>
<stop offset="1" stop-color="#E7E4D6"/>
</linearGradient>
<linearGradient id="paint5_linear" x1="9.29365" y1="11.7096" x2="30.6604" y2="11.7096" gradientUnits="userSpaceOnUse">
<stop stop-color="#F8F6EF"/>
<stop offset="1" stop-color="#E7E4D6"/>
</linearGradient>
<linearGradient id="paint6_linear" x1="9.29365" y1="11.7096" x2="30.6604" y2="11.7096" gradientUnits="userSpaceOnUse">
<stop stop-color="#F8F6EF"/>
<stop offset="1" stop-color="#E7E4D6"/>
</linearGradient>
<linearGradient id="paint7_linear" x1="9.29365" y1="11.7096" x2="30.6604" y2="11.7096" gradientUnits="userSpaceOnUse">
<stop stop-color="#F8F6EF"/>
<stop offset="1" stop-color="#E7E4D6"/>
</linearGradient>
<clipPath id="clip0">
<rect width="40" height="40" fill="white"/>
</clipPath>
</defs>
</svg>
