<svg width="181" height="70" viewBox="0 0 181 70" fill="none" xmlns="http://www.w3.org/2000/svg">
<path d="M59.7506 13.7219L55.243 64.2072L34.9813 69.8232L14.7755 64.215L10.2726 13.7219H59.7506Z" fill="#E44D26"/>
<path d="M35.0116 65.5304L51.3841 60.9924L55.2359 17.8503H35.0116V65.5304Z" fill="#F16529"/>
<path d="M26.249 30.2361H35.0116V24.0433H19.4797L19.6279 25.7047L21.1503 42.7704H35.0116V36.5776H26.8151L26.249 30.2361ZM27.645 45.8669H21.4271L22.2948 55.5905L34.983 59.1118L35.0116 59.104V52.6609L34.9844 52.6681L28.0861 50.8058L27.645 45.8669Z" fill="#EBEBEB"/>
<path d="M14.876 0H18.0237V3.10928H20.9033V0H24.0512V9.41567H20.9035V6.26277H18.0239V9.41567H14.8762V0H14.876ZM28.1905 3.12246H25.4197V0H34.1113V3.12246H31.3388V9.41567H28.191V3.12246H28.1908H28.1905ZM35.4906 0H38.7728L40.7918 3.30842L42.8089 0H46.0924V9.41567H42.9574V4.74875L40.7918 8.09653H40.7375L38.5705 4.74875V9.41567H35.4906V0ZM47.6589 0H50.8076V6.30349H55.2343V9.41567H47.6587V0H47.6589Z" fill="white"/>
<path d="M34.9902 42.7704H42.6176L41.8985 50.802L34.9901 52.6662V59.1089L47.6884 55.5905L47.7815 54.5441L49.2372 38.2405L49.3883 36.5776H34.9902V42.7704ZM34.9902 30.221V30.2361H49.9519L50.0761 28.8442L50.3584 25.7047L50.5064 24.0433H34.9902V30.2212V30.221Z" fill="white"/>
<path d="M145.005 69.8231L124.799 64.215L120.296 13.7219H169.774L165.267 64.2072L145.005 69.8231Z" fill="#264DE4"/>
<path d="M161.408 60.9925L165.259 17.8504H145.035V65.5305L161.408 60.9925Z" fill="#2965F1"/>
<path d="M130.619 36.5776L131.174 42.7704H145.035V36.5776H130.619ZM129.503 24.0433L130.066 30.2361H145.035V24.0433H129.503ZM145.035 52.6609L145.008 52.6681L138.11 50.8058L137.669 45.8669H131.451L132.318 55.5905L145.007 59.1118L145.035 59.104V52.6609Z" fill="#EBEBEB"/>
<path d="M131.941 0H139.442V3.13662H135.078V6.27324H139.443V9.40967H131.941V0ZM140.943 0H148.445V2.72748H144.08V3.27294H148.445V9.54618H140.943V6.682H145.308V6.13654H140.943V0H140.943ZM149.946 0H157.448V2.72748H153.083V3.27294H157.448V9.54618H149.946V6.682H154.31V6.13654H149.946V0H149.946Z" fill="white"/>
<path d="M159.412 36.5776L160.53 24.0433H145.014V30.2361H153.742L153.178 36.5776H145.014V42.7704H152.641L151.922 50.802L145.014 52.6662V59.1089L157.712 55.5905L157.805 54.5441L159.261 38.2405L159.412 36.5776Z" fill="white"/>
</svg>
