<svg width="742" height="484" viewBox="0 0 742 484" fill="none" xmlns="http://www.w3.org/2000/svg">
<rect width="742" height="484" rx="25" fill="#C4C4C4"/>
<path d="M240.08 288H233.6L214.22 266.28V288H208.82V245.16H214.22V265.92L233.12 245.16H239.24L220.64 265.98L240.08 288ZM260.49 255.24C264.45 255.24 267.63 256.62 270.03 259.38C272.47 262.14 273.69 266.3 273.69 271.86C273.69 277.34 272.47 281.5 270.03 284.34C267.63 287.18 264.43 288.6 260.43 288.6C257.95 288.6 255.89 288.14 254.25 287.22C252.65 286.26 251.39 285.16 250.47 283.92H250.11C250.19 284.6 250.27 285.46 250.35 286.5C250.43 287.54 250.47 288.44 250.47 289.2V302.4H245.19V255.84H249.51L250.23 260.22H250.47C251.43 258.82 252.69 257.64 254.25 256.68C255.81 255.72 257.89 255.24 260.49 255.24ZM259.53 259.68C256.25 259.68 253.93 260.6 252.57 262.44C251.25 264.28 250.55 267.08 250.47 270.84V271.86C250.47 275.82 251.11 278.88 252.39 281.04C253.71 283.16 256.13 284.22 259.65 284.22C261.61 284.22 263.21 283.68 264.45 282.6C265.73 281.52 266.67 280.06 267.27 278.22C267.91 276.34 268.23 274.2 268.23 271.8C268.23 268.12 267.51 265.18 266.07 262.98C264.67 260.78 262.49 259.68 259.53 259.68ZM276.478 255.84H282.118L289.078 274.14C289.678 275.74 290.218 277.28 290.698 278.76C291.178 280.2 291.538 281.58 291.778 282.9H292.018C292.258 281.9 292.638 280.6 293.158 279C293.678 277.36 294.218 275.72 294.778 274.08L301.318 255.84H307.018L293.158 292.44C292.038 295.48 290.578 297.9 288.778 299.7C287.018 301.5 284.578 302.4 281.458 302.4C280.498 302.4 279.658 302.34 278.938 302.22C278.218 302.14 277.598 302.04 277.078 301.92V297.72C277.518 297.8 278.038 297.88 278.638 297.96C279.278 298.04 279.938 298.08 280.618 298.08C282.458 298.08 283.938 297.56 285.058 296.52C286.218 295.48 287.118 294.1 287.758 292.38L289.438 288.12L276.478 255.84ZM334.304 260.28H323.804V288H318.584V260.28H308.204V255.84H334.304V260.28ZM352.819 255.3C356.739 255.3 359.639 256.16 361.519 257.88C363.399 259.6 364.339 262.34 364.339 266.1V288H360.499L359.479 283.44H359.239C357.839 285.2 356.359 286.5 354.799 287.34C353.279 288.18 351.159 288.6 348.439 288.6C345.519 288.6 343.099 287.84 341.179 286.32C339.259 284.76 338.299 282.34 338.299 279.06C338.299 275.86 339.559 273.4 342.079 271.68C344.599 269.92 348.479 268.96 353.719 268.8L359.179 268.62V266.7C359.179 264.02 358.599 262.16 357.439 261.12C356.279 260.08 354.639 259.56 352.519 259.56C350.839 259.56 349.239 259.82 347.719 260.34C346.199 260.82 344.779 261.38 343.459 262.02L341.839 258.06C343.239 257.3 344.899 256.66 346.819 256.14C348.739 255.58 350.739 255.3 352.819 255.3ZM354.379 272.46C350.379 272.62 347.599 273.26 346.039 274.38C344.519 275.5 343.759 277.08 343.759 279.12C343.759 280.92 344.299 282.24 345.379 283.08C346.499 283.92 347.919 284.34 349.639 284.34C352.359 284.34 354.619 283.6 356.419 282.12C358.219 280.6 359.119 278.28 359.119 275.16V272.28L354.379 272.46ZM376.252 288H370.132L379.312 274.5C378.072 274.18 376.872 273.68 375.712 273C374.552 272.28 373.612 271.3 372.892 270.06C372.172 268.78 371.812 267.2 371.812 265.32C371.812 262.24 372.852 259.9 374.932 258.3C377.012 256.66 379.772 255.84 383.212 255.84H397.612V288H392.332V275.22H384.532L376.252 288ZM376.912 265.38C376.912 267.22 377.592 268.6 378.952 269.52C380.352 270.4 382.292 270.84 384.772 270.84H392.332V260.22H383.752C381.312 260.22 379.552 260.7 378.472 261.66C377.432 262.62 376.912 263.86 376.912 265.38ZM442.984 255.36C446.184 255.64 448.964 256.48 451.324 257.88C453.724 259.28 455.584 261.16 456.904 263.52C458.224 265.88 458.884 268.68 458.884 271.92C458.884 276.76 457.464 280.62 454.624 283.5C451.824 286.38 447.944 288.04 442.984 288.48V302.4H437.824V288.48C434.664 288.2 431.884 287.38 429.484 286.02C427.084 284.62 425.224 282.74 423.904 280.38C422.584 277.98 421.924 275.16 421.924 271.92C421.924 267.04 423.324 263.16 426.124 260.28C428.964 257.4 432.924 255.76 438.004 255.36V242.4H442.984V255.36ZM438.004 259.74C434.324 260.1 431.644 261.32 429.964 263.4C428.284 265.44 427.444 268.28 427.444 271.92C427.444 275.56 428.284 278.42 429.964 280.5C431.684 282.58 434.364 283.8 438.004 284.16V259.74ZM442.984 284.16C446.584 283.76 449.224 282.52 450.904 280.44C452.584 278.36 453.424 275.52 453.424 271.92C453.424 268.32 452.564 265.5 450.844 263.46C449.164 261.42 446.544 260.2 442.984 259.8V284.16ZM495.22 271.86C495.22 277.18 493.86 281.3 491.14 284.22C488.46 287.14 484.82 288.6 480.22 288.6C477.38 288.6 474.84 287.96 472.6 286.68C470.4 285.36 468.66 283.46 467.38 280.98C466.1 278.46 465.46 275.42 465.46 271.86C465.46 266.54 466.8 262.44 469.48 259.56C472.16 256.68 475.8 255.24 480.4 255.24C483.32 255.24 485.88 255.9 488.08 257.22C490.32 258.5 492.06 260.38 493.3 262.86C494.58 265.3 495.22 268.3 495.22 271.86ZM470.92 271.86C470.92 275.66 471.66 278.68 473.14 280.92C474.66 283.12 477.06 284.22 480.34 284.22C483.58 284.22 485.96 283.12 487.48 280.92C489 278.68 489.76 275.66 489.76 271.86C489.76 268.06 489 265.08 487.48 262.92C485.96 260.76 483.56 259.68 480.28 259.68C477 259.68 474.62 260.76 473.14 262.92C471.66 265.08 470.92 268.06 470.92 271.86ZM525.202 260.28H514.702V288H509.482V260.28H499.102V255.84H525.202V260.28ZM550.558 255.84H556.318L542.578 271.32L557.458 288H551.338L536.818 271.68V288H531.538V255.84H536.818V271.44L550.558 255.84ZM575.475 255.3C579.395 255.3 582.295 256.16 584.175 257.88C586.055 259.6 586.995 262.34 586.995 266.1V288H583.155L582.135 283.44H581.895C580.495 285.2 579.015 286.5 577.455 287.34C575.935 288.18 573.815 288.6 571.095 288.6C568.175 288.6 565.755 287.84 563.835 286.32C561.915 284.76 560.955 282.34 560.955 279.06C560.955 275.86 562.215 273.4 564.735 271.68C567.255 269.92 571.135 268.96 576.375 268.8L581.835 268.62V266.7C581.835 264.02 581.255 262.16 580.095 261.12C578.935 260.08 577.295 259.56 575.175 259.56C573.495 259.56 571.895 259.82 570.375 260.34C568.855 260.82 567.435 261.38 566.115 262.02L564.495 258.06C565.895 257.3 567.555 256.66 569.475 256.14C571.395 255.58 573.395 255.3 575.475 255.3ZM577.035 272.46C573.035 272.62 570.255 273.26 568.695 274.38C567.175 275.5 566.415 277.08 566.415 279.12C566.415 280.92 566.955 282.24 568.035 283.08C569.155 283.92 570.575 284.34 572.295 284.34C575.015 284.34 577.275 283.6 579.075 282.12C580.875 280.6 581.775 278.28 581.775 275.16V272.28L577.035 272.46Z" fill="black"/>
</svg>
